<?xml version="1.0" encoding="utf-8"?>
<!-- Generator: Adobe Illustrator 16.0.0, SVG Export Plug-In . SVG Version: 6.00 Build 0)  -->
<!DOCTYPE svg PUBLIC "-//W3C//DTD SVG 1.1//EN" "http://www.w3.org/Graphics/SVG/1.1/DTD/svg11.dtd">
<svg version="1.1" id="Слой_1" xmlns="http://www.w3.org/2000/svg" xmlns:xlink="http://www.w3.org/1999/xlink" x="0px" y="0px"
	 width="70px" height="58px" viewBox="0 0 70 58" enable-background="new 0 0 70 58" xml:space="preserve">
<style>
	.cloud {
		fill: #fff;
	}

	.stroke {
		stroke: #fff;
	}
</style>
<g id="cloud">
	<g>
		<path class="cloud" fill-rule="evenodd" clip-rule="evenodd" fill="#0D0F0F" d="M38.424,46.342c0.055,2.164-1.654,3.963-3.821,4.02
			c-2.164,0.055-3.963-1.654-4.018-3.82c-0.055-2.162,1.654-3.963,3.818-4.018C36.568,42.469,38.367,44.178,38.424,46.342z"/>
	</g>
	<g>
		<path class="cloud" fill="#0D0F0F" d="M27.435,4.556c6.494,0,12.153,3.547,15.172,8.801c1.379-0.531,2.871-0.834,4.438-0.834
			c5.592,0,10.311,3.71,11.844,8.801c5.092,1.533,8.801,6.483,8.801,12.075C67.689,40.231,62.15,46,55.318,46
			c-5.59,0-35.913,0-40.448,0C8.039,46,2.5,40.231,2.5,33.399c0-5.082,3.064-9.671,7.443-11.577
			C10.07,12.267,17.847,4.556,27.435,4.556 M27.435,2.306C17.16,2.306,8.611,10.302,7.761,20.4
			C3.217,22.969,0.25,27.897,0.25,33.274C0.25,41.463,6.809,48,14.871,48h40.448c8.063,0,14.621-6.537,14.621-14.726
			c0-6.127-3.762-11.592-9.28-13.777c-2.18-5.601-7.512-9.255-13.614-9.255c-1.17,0-2.33,0.157-3.469,0.439
			C39.897,5.464,33.867,2.306,27.435,2.306L27.435,2.306z"/>
	</g>

		<line class="stroke" fill-rule="evenodd" clip-rule="evenodd" fill="none" stroke="#0D0F0F" stroke-width="2.25" stroke-linecap="round" stroke-linejoin="round" stroke-miterlimit="10" x1="55.795" y1="56.08" x2="13.292" y2="56.008"/>

		<line class="stroke" fill-rule="evenodd" clip-rule="evenodd" fill="none" stroke="#0D0F0F" stroke-width="2.25" stroke-linecap="round" stroke-linejoin="round" stroke-miterlimit="10" x1="34.609" y1="55.398" x2="34.681" y2="48.69"/>
</g>
</svg>
