<?xml version="1.0" encoding="UTF-8" standalone="no"?>
<svg width="168px" height="40px" viewBox="0 0 168 40" version="1.1" xmlns="http://www.w3.org/2000/svg" xmlns:xlink="http://www.w3.org/1999/xlink" xmlns:sketch="http://www.bohemiancoding.com/sketch/ns">
    <!-- Generator: Sketch 3.1 (8751) - http://www.bohemiancoding.com/sketch -->
    <title>DaisyDisk</title>
    <desc>Created with Sketch.</desc>
    <defs></defs>
    <g id="Page-1" stroke="none" stroke-width="1" fill="none" fill-rule="evenodd" sketch:type="MSPage">
        <g id="DaisyDisk-+-DaisyDisk" sketch:type="MSLayerGroup" fill="#FFFFFF">
            <path d="M1.32,30 L10.12,30 C18.44,30 24.08,24.92 24.08,16 C24.08,7.12 18.44,2 10.12,2 L1.32,2 L1.32,30 Z M3.04,28.4 L3.04,3.6 L9.84,3.6 C17.28,3.6 22.28,8 22.28,16 C22.28,24.04 17.28,28.4 9.84,28.4 L3.04,28.4 Z M28.52,24.68 C28.52,28.68 32.08,30.48 35.32,30.48 C40.52,30.48 42.36,25.56 42.32,25.56 L42.4,25.56 C42.4,25.56 42.24,26.28 42.24,27.36 L42.24,30 L43.92,30 L43.92,17.08 C43.92,12.08 41.44,9.52 36.84,9.52 C32.48,9.52 30.08,11.72 30.08,11.72 L31.04,13.08 C31.04,13.08 33.28,11.16 36.76,11.16 C39.96,11.16 42.24,12.68 42.24,17.12 L42.24,17.8 L40.92,17.8 C37.36,17.8 28.52,17.88 28.52,24.68 L28.52,24.68 Z M30.28,24.56 C30.28,19.36 37.56,19.36 40.96,19.36 L42.24,19.36 L42.24,20.44 C42.24,24.4 39.76,28.92 35.4,28.92 C32,28.92 30.28,26.68 30.28,24.56 L30.28,24.56 Z M50.52,4.92 L52.52,4.92 L52.52,2 L50.52,2 L50.52,4.92 Z M50.68,30 L52.36,30 L52.36,10 L50.68,10 L50.68,30 Z M57.68,27.6 C57.68,27.6 60.08,30.48 64.92,30.48 C68.6,30.48 71.32,28.28 71.32,25.08 C71.32,18.44 60.32,20 60.32,14.8 C60.32,12.2 62.56,11.16 64.84,11.16 C68.24,11.16 69.88,13.04 69.88,13.04 L70.88,11.68 C70.88,11.68 69.04,9.52 64.96,9.52 C61.56,9.52 58.56,11.36 58.56,14.92 C58.56,21.44 69.56,20 69.56,25.08 C69.56,27.56 67.4,28.84 64.96,28.84 C61,28.84 58.76,26.32 58.76,26.32 L57.68,27.6 Z M73.64,37.28 C73.64,37.28 74.96,38.4 76.88,38.4 C79.4,38.4 81.08,36.76 81.96,34.68 L92.24,10 L90.44,10 L83.84,25.96 C83.44,26.92 83.16,27.84 83.16,27.84 L83.08,27.84 C83.08,27.84 82.76,26.92 82.36,25.96 L75.76,10 L73.96,10 L82.24,29.88 L80.8,33.2 C80,35.08 78.8,36.8 76.88,36.8 C75.52,36.8 74.4,35.84 74.4,35.84 L73.64,37.28 Z M97.2,30 L106,30 C114.32,30 119.96,24.92 119.96,16 C119.96,7.12 114.32,2 106,2 L97.2,2 L97.2,30 Z M98.92,28.4 L98.92,3.6 L105.72,3.6 C113.16,3.6 118.16,8 118.16,16 C118.16,24.04 113.16,28.4 105.72,28.4 L98.92,28.4 Z M125.88,4.92 L127.88,4.92 L127.88,2 L125.88,2 L125.88,4.92 Z M126.04,30 L127.72,30 L127.72,10 L126.04,10 L126.04,30 Z M133.04,27.6 C133.04,27.6 135.44,30.48 140.28,30.48 C143.96,30.48 146.68,28.28 146.68,25.08 C146.68,18.44 135.68,20 135.68,14.8 C135.68,12.2 137.92,11.16 140.2,11.16 C143.6,11.16 145.24,13.04 145.24,13.04 L146.24,11.68 C146.24,11.68 144.4,9.52 140.32,9.52 C136.92,9.52 133.92,11.36 133.92,14.92 C133.92,21.44 144.92,20 144.92,25.08 C144.92,27.56 142.76,28.84 140.32,28.84 C136.36,28.84 134.12,26.32 134.12,26.32 L133.04,27.6 Z M152.2,30 L153.88,30 L153.88,19.44 L157.44,19.44 L164.68,30 L166.8,30 L158.88,18.68 L158.88,18.6 L166.12,10 L163.92,10 L157.44,17.88 L153.88,17.88 L153.88,2 L152.2,2 L152.2,30 Z" id="DaisyDisk" sketch:type="MSShapeGroup"></path>
        </g>
    </g>
</svg>