<?xml version="1.0" encoding="utf-8"?>
<!-- Generator: Adobe Illustrator 16.0.0, SVG Export Plug-In . SVG Version: 6.00 Build 0)  -->
<!DOCTYPE svg PUBLIC "-//W3C//DTD SVG 1.1//EN" "http://www.w3.org/Graphics/SVG/1.1/DTD/svg11.dtd">
<svg version="1.1" id="Слой_1" xmlns="http://www.w3.org/2000/svg" xmlns:xlink="http://www.w3.org/1999/xlink" x="0px" y="0px"
	 width="333px" height="326px" viewBox="0 0 333 326" enable-background="new 0 0 333 326" xml:space="preserve">
<text transform="matrix(1 0 0 1 148.3916 157.5449)" fill="#FFFFFF" font-family="'.LucidaGrandeUI'" font-size="12">589,5</text>
<text transform="matrix(1 0 0 1 157.6797 173.541)" fill="#FFFFFF" font-family="'.LucidaGrandeUI'" font-size="12">GB</text>
<path fill="#81C2BF" d="M185.495,188.328l14.469,20.388c26.604-19.053,32.726-56.065,13.673-82.669s-56.065-32.725-82.669-13.673
	c-26.604,19.054-32.725,56.066-13.672,82.669c18.694,26.103,54.776,32.567,81.369,14.577l-14.097-20.646
	c-15.701,10.55-36.981,6.373-47.53-9.328c-10.55-15.699-6.374-36.98,9.327-47.529c15.701-10.55,36.981-6.374,47.53,9.327
	C204.198,156.779,200.482,177.522,185.495,188.328"/>
<path fill="#CBDD83" d="M122.002,119.546l-18.113-17.232c-32.16,34.007-30.662,87.647,3.345,119.807
	c28.893,27.323,72.898,30.884,105.807,8.561l-14.097-20.647c-27.332,18.491-64.479,11.323-82.968-16.011
	C100.299,170.85,102.803,139.899,122.002,119.546"/>
<path fill="#EAAF86" d="M138.73,241.494l-7.911,23.716c32.542,10.771,68.243,5.795,96.598-13.467l-14.096-20.647
	C191.419,245.952,163.86,249.794,138.73,241.494"/>
<path fill="#E49A86" d="M175.698,270.821l2.252,24.898c22.878-2.113,44.845-9.998,63.844-22.916l-14.096-20.647
	C212.219,262.671,194.33,269.093,175.698,270.821"/>
<path fill="#E29385" d="M198.046,292.843l5.933,24.285c18.644-4.585,36.318-12.463,52.192-23.263l-14.096-20.647
	C228.682,282.324,213.772,288.97,198.046,292.843"/>
<path fill="#E29185" d="M212.541,317.069l1.074,3.593c16.329-4.911,31.812-12.29,45.91-21.883l-2.115-3.097
	C243.632,305.057,228.5,312.27,212.541,317.069"/>
<path fill="#E7A386" d="M204.502,319.266l0.889,3.643c2.599-0.639,5.182-1.34,7.746-2.104l-1.075-3.592
	C209.559,317.957,207.037,318.642,204.502,319.266"/>
<path fill="#E9AB87" d="M182.427,295.735l3.064,24.812c6.06-0.759,12.069-1.86,18.002-3.3l-5.934-24.286
	C192.571,294.17,187.52,295.097,182.427,295.735"/>
<path fill="#E9AA86" d="M189.023,322.288l0.534,3.712c5.159-0.751,10.281-1.743,15.349-2.974l-0.892-3.643
	C199.065,320.585,194.063,321.555,189.023,322.288"/>
<path fill="#808080" d="M177.996,296.218l2.253,24.898c1.585-0.146,3.168-0.315,4.748-0.509l-3.067-24.811
	C180.62,295.956,179.31,296.097,177.996,296.218"/>
<path fill="#EDB786" d="M170.338,271.188l1.042,24.979c2.027-0.089,4.052-0.224,6.073-0.402l-2.254-24.898
	C173.581,271.009,171.96,271.116,170.338,271.188"/>
<path fill="#EFBD86" d="M166.076,271.293l0.08,25c1.575-0.008,3.15-0.043,4.725-0.106l-1.044-24.978
	C168.584,271.258,167.33,271.286,166.076,271.293"/>
<path fill="#F0C186" d="M161.958,271.239l-0.849,24.985c1.515,0.049,3.031,0.072,4.547,0.07l-0.082-25
	C164.369,271.296,163.163,271.277,161.958,271.239"/>
<path fill="#F1C586" d="M158.575,271.08l-1.613,24.948c1.217,0.076,2.432,0.136,3.648,0.18l0.847-24.985
	C160.496,271.188,159.535,271.141,158.575,271.08"/>
<path fill="#F3C987" d="M155.496,270.846l-2.308,24.893c1.091,0.1,2.183,0.186,3.275,0.258l1.611-24.948
	C157.215,270.991,156.355,270.923,155.496,270.846"/>
<path fill="#F4CB86" d="M152.495,270.533l-2.985,24.82c1.059,0.126,2.12,0.238,3.182,0.339l2.306-24.894
	C154.162,270.721,153.328,270.631,152.495,270.533"/>
<path fill="#808080" d="M130.663,265.685l-7.911,23.715c8.537,2.83,17.334,4.805,26.262,5.895l2.983-24.821
	C144.745,269.584,137.599,267.98,130.663,265.685"/>
<path fill="#E0E689" d="M91.475,202.888L69.74,215.241c13.411,23.472,34.98,41.199,60.607,49.811l7.908-23.716
	C118.482,234.676,101.838,220.996,91.475,202.888"/>
<path fill="#F9F188" d="M102.619,251.736l-14.234,20.552c10.449,7.208,21.859,12.915,33.894,16.954l7.908-23.717
	C120.399,262.236,111.121,257.596,102.619,251.736"/>
<path fill="#F9F086" d="M93.272,276.097l-13.286,21.178c10.734,6.71,22.221,12.135,34.223,16.157l7.91-23.716
	C112.003,286.321,102.321,281.75,93.272,276.097"/>
<path fill="#808080" d="M107.525,313.381l-1.335,3.504c2.031,0.771,4.077,1.501,6.137,2.191l1.186-3.558
	C111.503,314.845,109.507,314.132,107.525,313.381"/>
<path fill="#808080" d="M101.166,310.816l-1.481,3.445c1.997,0.854,4.01,1.67,6.039,2.445l1.334-3.504
	C105.079,312.445,103.114,311.649,101.166,310.816"/>
<path fill="#808080" d="M94.919,307.987l-1.624,3.38c1.959,0.938,3.937,1.836,5.931,2.697l1.48-3.446
	C98.76,309.779,96.832,308.901,94.919,307.987"/>
<path fill="#808080" d="M89.88,305.468l-1.74,3.322c1.556,0.812,3.125,1.599,4.705,2.36l1.623-3.38
	C92.927,307.027,91.398,306.26,89.88,305.468"/>
<path fill="#808080" d="M85.657,303.186l-1.837,3.27c1.283,0.718,2.576,1.418,3.878,2.104l1.738-3.323
	C88.167,304.569,86.907,303.886,85.657,303.186"/>
<path fill="#808080" d="M78.818,299.138l-1.993,3.177c2.157,1.349,4.344,2.647,6.56,3.896l1.835-3.271
	C83.058,301.722,80.923,300.454,78.818,299.138"/>
<path fill="#EEED8C" d="M89.63,273.739l-13.954,20.744c1.284,0.859,2.579,1.702,3.887,2.525l13.285-21.179
	C91.767,275.148,90.693,274.451,89.63,273.739"/>
<path fill="#E2E78A" d="M91.069,242.586l-16.836,18.48c4.339,3.938,8.93,7.592,13.741,10.938l14.233-20.554
	C98.308,248.737,94.588,245.776,91.069,242.586"/>
<path fill="#D8E287" d="M87.151,238.854l-17.719,17.637c1.445,1.446,2.922,2.859,4.431,4.239l16.835-18.482
	C89.491,241.144,88.308,240.012,87.151,238.854"/>
<path fill="#D8E287" d="M69.503,257.267l-17.641,17.715c1.578,1.566,3.188,3.1,4.829,4.6L73.526,261.1
	C72.159,259.85,70.818,258.571,69.503,257.267"/>
<path fill="#808080" d="M69.306,215.488l-21.735,12.354c5.899,10.334,13.131,19.847,21.509,28.295l17.718-17.638
	C79.987,231.626,74.105,223.89,69.306,215.488"/>
<path fill="#A6CC7D" d="M81.701,176.389l-24.578,4.573c2.239,11.884,6.418,23.317,12.37,33.845l21.734-12.354
	C86.65,194.343,83.431,185.538,81.701,176.389"/>
<path fill="#B2D181" d="M64.29,205.589l-22.862,10.115c1.776,3.994,3.743,7.899,5.896,11.703l21.734-12.354
	C67.318,211.976,65.727,208.817,64.29,205.589"/>
<path fill="#B6D381" d="M44.87,223.954l-22.149,11.593c0.787,1.5,1.599,2.986,2.433,4.461l21.735-12.354
	C46.197,226.432,45.524,225.197,44.87,223.954"/>
<path fill="#B2D181" d="M43.133,220.535L20.667,231.5c0.592,1.209,1.2,2.411,1.823,3.604l22.148-11.595
	C44.125,222.524,43.622,221.533,43.133,220.535"/>
<path fill="#B0D080" d="M41.532,217.154l-22.759,10.344c0.543,1.191,1.101,2.376,1.674,3.554l22.466-10.967
	C42.441,219.113,41.981,218.137,41.532,217.154"/>
<path fill="#AACE7F" d="M62.114,200.345l-23.351,8.931c0.773,2.01,1.594,4.001,2.462,5.973l22.862-10.117
	C63.392,203.551,62.734,201.955,62.114,200.345"/>
<path fill="#ACCE7F" d="M39.149,211.616l-23.195,9.327c0.627,1.551,1.278,3.093,1.952,4.623l22.862-10.117
	C40.209,214.18,39.669,212.902,39.149,211.616"/>
<path fill="#A6CC7E" d="M60.707,196.476l-23.667,8.057c0.492,1.434,1.007,2.859,1.546,4.276l23.35-8.932
	C61.507,198.75,61.098,197.616,60.707,196.476"/>
<path fill="#808080" d="M56.631,181.055l-24.578,4.573c1.175,6.249,2.787,12.408,4.826,18.432l23.666-8.059
	C58.895,191.117,57.586,186.121,56.631,181.055"/>
<path fill="#89BF78" d="M80.579,152.688l-24.887-2.378c-0.938,10.067-0.488,20.216,1.34,30.161l24.578-4.575
	C80.208,168.243,79.862,160.436,80.579,152.688"/>
<path fill="#8EC27A" d="M54.723,161.817l-24.999,0.229c0.085,7.747,0.834,15.472,2.238,23.091l24.578-4.574
	C55.403,174.377,54.795,168.106,54.723,161.817"/>
<path fill="#95C47B" d="M30.687,180.509L5.95,184.126c0.28,1.897,0.595,3.79,0.943,5.677l24.578-4.574
	C31.182,183.658,30.919,182.086,30.687,180.509"/>
<path fill="#95C57B" d="M4.04,186.185l-3.705,0.582c0.219,1.378,0.455,2.753,0.708,4.125l3.687-0.688
	C4.482,188.867,4.252,187.527,4.04,186.185"/>
<path fill="#808080" d="M29.224,162.052l-24.999,0.229c0.077,7.146,0.629,14.277,1.652,21.35l24.737-3.619
	C29.755,174.063,29.29,168.063,29.224,162.052"/>
<path fill="#84BD77" d="M54.773,156.991l-24.985-0.86c-0.059,1.805-0.082,3.611-0.068,5.417l24.999-0.232
	C54.709,159.874,54.727,158.432,54.773,156.991"/>
<path fill="#808080" d="M55.194,150.264l-24.887-2.378c-0.241,2.577-0.408,5.16-0.502,7.747l24.985,0.858
	C54.866,154.411,55.001,152.335,55.194,150.264"/>
<path fill="#7DBB7F" d="M84.291,134.504l-23.782-7.708c-2.405,7.481-4.005,15.197-4.769,23.017l24.886,2.376
	C81.217,146.182,82.446,140.253,84.291,134.504"/>
<path fill="#7DBB77" d="M55.657,146.137l-24.78-3.309c-0.199,1.517-0.374,3.038-0.522,4.561l24.887,2.376
	C55.361,148.554,55.499,147.344,55.657,146.137"/>
<path fill="#808080" d="M60.032,126.644l-23.782-7.708c-2.456,7.628-4.232,15.458-5.307,23.398l24.78,3.307
	C56.598,139.193,58.04,132.836,60.032,126.644"/>
<path fill="#80BE8F" d="M89.284,122.284l-22.307-11.287c-2.487,4.943-4.598,10.065-6.315,15.325l23.783,7.705
	C85.763,129.998,87.381,126.073,89.284,122.284"/>
<path fill="#80BE8C" d="M62.026,120.974l-23.329-8.986c-0.819,2.138-1.584,4.297-2.294,6.474l23.783,7.705
	C60.756,124.421,61.37,122.689,62.026,120.974"/>
<path fill="#808080" d="M37.516,113.716l-23.461-8.636c-0.67,1.828-1.307,3.669-1.91,5.521l23.783,7.706
	C36.43,116.767,36.959,115.237,37.516,113.716"/>
<path fill="#81BE90" d="M63.513,117.288l-22.992-9.817c-0.57,1.341-1.117,2.692-1.644,4.05l23.33,8.985
	C62.625,119.427,63.061,118.354,63.513,117.288"/>
<path fill="#808080" d="M66.53,110.772L44.223,99.485c-1.245,2.473-2.415,4.982-3.506,7.526l22.992,9.816
	C64.589,114.781,65.529,112.761,66.53,110.772"/>
<path fill="#81BF9C" d="M94.586,113.179L73.841,99.226c-2.436,3.64-4.653,7.422-6.639,11.326l22.308,11.285
	C91.031,118.854,92.725,115.963,94.586,113.179"/>
<path fill="#82BF99" d="M69.886,104.598L48.34,91.919c-1.368,2.335-2.665,4.709-3.891,7.121l22.308,11.285
	C67.743,108.386,68.787,106.476,69.886,104.598"/>
<path fill="#82C09D" d="M71.581,101.798l-21.163-13.31c-0.621,0.993-1.23,1.993-1.825,3.001l21.548,12.677
	C70.61,103.371,71.09,102.582,71.581,101.798"/>
<path fill="#808080" d="M73.426,98.948L52.681,84.996c-0.679,1.014-1.345,2.038-1.997,3.071l21.164,13.308
	C72.363,100.559,72.889,99.75,73.426,98.948"/>
<path fill="#82C0A5" d="M97.958,108.486L78.207,93.16c-1.422,1.841-2.785,3.725-4.087,5.652l20.746,13.951
	C95.852,111.305,96.882,109.879,97.958,108.486"/>
<path fill="#83C1A4" d="M76.066,95.175L55.92,80.372c-1.014,1.385-2,2.787-2.96,4.209l20.746,13.951
	C74.471,97.398,75.258,96.279,76.066,95.175"/>
<path fill="#808080" d="M77.81,92.854L58.059,77.528c-0.624,0.807-1.239,1.621-1.844,2.442l20.147,14.801
	C76.838,94.127,77.321,93.488,77.81,92.854"/>
<path fill="#83C1A9" d="M99.669,106.338L80.421,90.384c-0.647,0.785-1.284,1.579-1.909,2.381l19.753,15.324
	C98.725,107.5,99.193,106.917,99.669,106.338"/>
<path fill="#83C1AB" d="M101.429,104.27L82.7,87.71c-0.664,0.754-1.317,1.517-1.96,2.289l19.249,15.953
	C100.462,105.386,100.942,104.825,101.429,104.27"/>
<path fill="#808080" d="M103.526,101.97L85.413,84.738c-0.808,0.854-1.602,1.72-2.383,2.599l18.732,16.557
	C102.34,103.243,102.928,102.602,103.526,101.97"/>
<path fill="#82B9E9" d="M220.532,137.356l23.082-9.604c-18.111-43.16-67.781-63.467-110.941-45.355
	c-10.722,4.498-20.402,11.155-28.44,19.556l18.114,17.229c22.845-23.813,60.668-24.599,84.482-1.755
	C212.708,123.066,217.371,129.848,220.532,137.356"/>
<path fill="#87C8DE" d="M199.897,82.558l10.166-22.84c-42.492-18.795-92.207-8.932-124.307,24.659l18.115,17.23
	C128.681,75.68,167.069,68.063,199.897,82.558"/>
<path fill="#87C6CD" d="M149.832,50.904l-3.472-24.758c-30.176,4.29-58.031,18.611-79.079,40.655l18.114,17.23
	C102.553,66.077,125.247,54.41,149.832,50.904"/>
<path fill="#86C4BD" d="M98.003,42.169L85.666,20.425c-13.621,7.758-26.038,17.46-36.86,28.801l18.114,17.23
	C76.047,56.896,86.52,48.714,98.003,42.169"/>
<path fill="#84C2B2" d="M49.914,44.943l-2.646-2.657c-0.936,0.935-1.86,1.882-2.774,2.839l2.718,2.584
	C48.102,46.776,49.002,45.854,49.914,44.943"/>
<path fill="#808080" d="M84.579,18.512l-1.85-3.262C69.9,22.556,58.095,31.529,47.621,41.934l2.648,2.656
	C60.504,34.421,72.041,25.652,84.579,18.512"/>
<path fill="#87C6CD" d="M108.373,36.834L97.939,14.115c-4.028,1.858-7.978,3.881-11.84,6.064l12.339,21.743
	C101.68,40.091,104.994,38.394,108.373,36.834"/>
<path fill="#88C7D3" d="M116.659,33.336l-8.911-23.358c-3.159,1.211-6.279,2.521-9.355,3.928l10.434,22.719
	C111.403,35.447,114.015,34.352,116.659,33.336"/>
<path fill="#8AC8D9" d="M125.156,30.394l-7.352-23.895c-3.23,1-6.429,2.101-9.59,3.302l8.913,23.357
	C119.774,32.153,122.452,31.232,125.156,30.394"/>
<path fill="#8AC9DB" d="M132.137,28.434l-6.07-24.252c-2.613,0.658-5.208,1.382-7.785,2.17l7.354,23.895
	C127.787,29.589,129.955,28.984,132.137,28.434"/>
<path fill="#89C8DD" d="M138.229,27.045L133.277,2.54c-2.253,0.459-4.495,0.966-6.726,1.521l6.072,24.252
	C134.482,27.851,136.352,27.428,138.229,27.045"/>
<path fill="#808080" d="M146.29,25.651l-3.473-24.758c-3.031,0.43-6.049,0.946-9.05,1.548l4.954,24.504
	C141.229,26.443,143.755,26.011,146.29,25.651"/>
<path fill="#86C8E6" d="M165.156,49.795l-0.012-25c-6.119,0.014-12.229,0.442-18.29,1.281l3.474,24.758
	C155.242,50.156,160.196,49.81,165.156,49.795"/>
<path fill="#84C9F1" d="M177.941,50.5l2.874-24.834c-5.037-0.574-10.104-0.864-15.172-0.871l0.015,25
	C169.763,49.802,173.863,50.038,177.941,50.5"/>
<path fill="#85BDEB" d="M189.813,52.504l5.552-24.375c-4.639-1.048-9.33-1.852-14.055-2.407l-2.871,24.835
	C182.262,51.008,186.059,51.658,189.813,52.504"/>
<path fill="#85B2E2" d="M198.264,54.763l7.459-23.861c-3.256-1.011-6.548-1.899-9.87-2.662l-5.551,24.376
	C192.981,53.233,195.638,53.949,198.264,54.763"/>
<path fill="#84ABDD" d="M201.966,55.982l8.293-23.584c-1.346-0.471-2.699-0.92-4.06-1.348l-7.457,23.862
	C199.822,55.252,200.896,55.609,201.966,55.982"/>
<path fill="#84A7DA" d="M205.318,57.213l9.049-23.304c-1.206-0.466-2.419-0.915-3.638-1.346l-8.291,23.585
	C203.403,56.49,204.363,56.846,205.318,57.213"/>
<path fill="#808080" d="M210.266,59.26l10.165-22.84c-1.849-0.819-3.715-1.596-5.598-2.331l-9.048,23.306
	C207.292,57.984,208.786,58.606,210.266,59.26"/>
<path fill="#7F90C8" d="M219.746,94.809l15.976-19.229c-7.656-6.332-16.135-11.6-25.203-15.66l-10.163,22.842
	C207.33,85.89,213.853,89.942,219.746,94.809"/>
<path fill="#8193CA" d="M231.996,72.005l15.064-19.952c-8.12-6.107-16.899-11.282-26.174-15.43l-10.163,22.84
	C218.26,62.838,225.395,67.045,231.996,72.005"/>
<path fill="#8196CD" d="M240.995,47.146l13.896-20.781c-7.5-4.999-15.407-9.361-23.637-13.038l-10.164,22.84
	C228.02,39.266,234.678,42.938,240.995,47.146"/>
<path fill="#808080" d="M239.098,14.62l1.695-3.345c-2.346-1.184-4.72-2.313-7.119-3.384l-1.523,3.426
	C234.491,12.363,236.809,13.465,239.098,14.62"/>
<path fill="#808080" d="M246,18.312l1.854-3.26c-2.18-1.233-4.385-2.417-6.616-3.552l-1.693,3.346
	C241.722,15.953,243.874,17.108,246,18.312"/>
<path fill="#8194CB" d="M251.397,21.506l1.977-3.187c-1.678-1.037-3.373-2.043-5.087-3.021l-1.852,3.261
	C248.106,19.512,249.761,20.495,251.397,21.506"/>
<path fill="#8090C8" d="M256.114,24.535l2.085-3.117c-1.452-0.967-2.919-1.913-4.401-2.835l-1.976,3.187
	C253.268,22.669,254.698,23.591,256.114,24.535"/>
<path fill="#7F8CC5" d="M245.605,50.355l14.742-20.191c-1.658-1.206-3.338-2.381-5.04-3.523l-13.896,20.782
	C242.827,48.375,244.226,49.353,245.605,50.355"/>
<path fill="#7E89C2" d="M234.58,74.007l15.646-19.499c-0.913-0.73-1.836-1.447-2.768-2.154l-15.063,19.953
	C233.131,72.865,233.859,73.431,234.58,74.007"/>
<path fill="#7E89C2" d="M250.536,54.116l15.646-19.499c-1.108-0.886-2.229-1.758-3.359-2.614l-15.063,19.952
	C248.695,52.664,249.62,53.384,250.536,54.116"/>
<path fill="#7F82BD" d="M235.357,111.731l20.538-14.254c-5.607-8.041-12.263-15.298-19.79-21.579l-15.974,19.231
	C225.919,99.965,231.039,105.548,235.357,111.731"/>
<path fill="#7F82BD" d="M255.372,95.873L275.7,81.321c-6.681-9.295-14.509-17.708-23.3-25.038l-15.975,19.232
	C243.572,81.477,249.937,88.318,255.372,95.873"/>
<path fill="#7E86C0" d="M255.674,58.435l16.587-18.705c-1.174-1.038-2.363-2.058-3.566-3.062l-15.974,19.232
	C253.717,56.729,254.701,57.576,255.674,58.435"/>
<path fill="#808080" d="M276.106,81.029l20.328-14.552c-6.936-9.656-14.917-18.515-23.8-26.417l-16.586,18.706
	C263.532,65.427,270.26,72.894,276.106,81.029"/>
<path fill="#8B82BC" d="M240.948,120.923l22.171-11.553c-2.077-3.965-4.395-7.799-6.938-11.482l-20.538,14.255
	C237.586,114.961,239.358,117.893,240.948,120.923"/>
<path fill="#8B83BC" d="M262.874,107.845L284.89,96c-2.354-4.356-4.945-8.58-7.761-12.652l-20.537,14.255
	C258.869,100.901,260.967,104.32,262.874,107.845"/>
<path fill="#9083BB" d="M243.078,125.275L265.869,115c-0.795-1.751-1.635-3.481-2.521-5.188l-22.168,11.555
	C241.846,122.653,242.479,123.958,243.078,125.275"/>
<path fill="#9083BC" d="M265.32,112.643l22.565-10.761c-0.62-1.295-1.262-2.58-1.923-3.854l-22.169,11.554
	C264.318,110.595,264.827,111.615,265.32,112.643"/>
<path fill="#808080" d="M244.075,127.559l23.082-9.604c-0.351-0.838-0.712-1.671-1.083-2.5l-22.79,10.278
	C243.554,126.338,243.818,126.947,244.075,127.559"/>
<path fill="#BF8BBC" d="M207.558,202.951l17.536,17.818c24.44-24.197,31.833-60.766,18.712-92.557l-23.08,9.607
	C229.927,160.194,224.729,185.909,207.558,202.951"/>
<path fill="#9F84BB" d="M250.488,154.326l24.939-1.75c-0.852-11.745-3.579-23.279-8.079-34.162l-23.081,9.607
	C247.728,136.403,249.827,145.283,250.488,154.326"/>
<path fill="#9984BB" d="M273.054,134.269l24.3-5.875c-1.646-6.748-3.806-13.359-6.462-19.776l-23.081,9.606
	C269.964,123.431,271.717,128.794,273.054,134.269"/>
<path fill="#9884BB" d="M296.38,122.789l24.034-6.883c-1.672-5.803-3.668-11.508-5.98-17.087l-23.08,9.607
	C293.295,113.116,294.974,117.912,296.38,122.789"/>
<path fill="#9583BB" d="M318.16,102.233l3.506-1.332c-0.56-1.464-1.139-2.92-1.738-4.368l-3.462,1.441
	C317.051,99.386,317.615,100.806,318.16,102.233"/>
<path fill="#9783BB" d="M319.888,106.975l3.545-1.223c-0.509-1.468-1.039-2.93-1.589-4.384l-3.505,1.333
	C318.875,104.119,319.392,105.543,319.888,106.975"/>
<path fill="#808080" d="M322.528,115.3l3.605-1.032c-0.778-2.702-1.624-5.384-2.538-8.044l-3.544,1.225
	C320.943,110.045,321.769,112.663,322.528,115.3"/>
<path fill="#9E85BB" d="M297.839,128.275l24.3-5.876c-0.49-2.014-1.02-4.019-1.587-6.013l-24.034,6.885
	C296.99,124.93,297.431,126.599,297.839,128.275"/>
<path fill="#9D84BB" d="M323.889,120.32l3.637-0.917c-0.396-1.557-0.813-3.109-1.254-4.655l-3.604,1.033
	C323.096,117.288,323.503,118.801,323.889,120.32"/>
<path fill="#A587BC" d="M275.718,150.056l24.895-2.311c-0.604-6.355-1.652-12.659-3.142-18.866l-24.3,5.877
	C274.377,139.79,275.228,144.903,275.718,150.056"/>
<path fill="#A186BC" d="M299.4,135.53l24.583-4.544c-0.506-2.715-1.082-5.416-1.728-8.102l-24.299,5.877
	C298.495,131.005,298.977,133.262,299.4,135.53"/>
<path fill="#808080" d="M301.108,147.698l24.894-2.311c-0.44-4.662-1.083-9.303-1.928-13.909l-24.583,4.545
	C300.198,139.89,300.738,143.785,301.108,147.698"/>
<path fill="#B58ABC" d="M249.308,175.979l24.573,4.6c1.675-9.065,2.206-18.306,1.582-27.503l-24.939,1.752
	C250.999,161.899,250.591,169.005,249.308,175.979"/>
<path fill="#B28ABC" d="M275.7,171.22l24.878,2.467c0.726-7.444,0.832-14.936,0.322-22.398l-24.939,1.752
	C276.373,159.097,276.285,165.178,275.7,171.22"/>
<path fill="#AE89BC" d="M301.715,160.962l25,0.124c0.013-3.865-0.113-7.728-0.378-11.582l-24.938,1.75
	C301.619,154.485,301.726,157.725,301.715,160.962"/>
<path fill="#AD89BC" d="M328.837,155.462l3.748-0.11c-0.064-2.09-0.169-4.179-0.313-6.265l-3.74,0.264
	C328.672,151.386,328.773,153.423,328.837,155.462"/>
<path fill="#B089BC" d="M328.915,161.096l3.75,0.02c0.006-1.755-0.016-3.51-0.065-5.265l-3.748,0.112
	C328.899,157.674,328.921,159.385,328.915,161.096"/>
<path fill="#B38ABC" d="M301.577,166.694l24.973,1.175c0.095-2.093,0.149-4.188,0.163-6.284l-25-0.122
	C301.701,163.208,301.655,164.951,301.577,166.694"/>
<path fill="#B68BBC" d="M301.323,170.883l24.924,1.943c0.113-1.484,0.207-2.971,0.279-4.458l-24.974-1.174
	C301.493,168.425,301.417,169.654,301.323,170.883"/>
<path fill="#BB8CBD" d="M274.987,176.993l24.715,3.771c0.329-2.188,0.604-4.381,0.827-6.58l-24.879-2.465
	C275.472,173.48,275.251,175.24,274.987,176.993"/>
<path fill="#808080" d="M274.372,180.67l24.573,4.599c0.247-1.334,0.475-2.671,0.682-4.013l-24.715-3.768
	C274.747,178.551,274.567,179.611,274.372,180.67"/>
<path fill="#C68EBD" d="M245.092,190.997l23.323,9c2.352-6.137,4.15-12.472,5.374-18.929l-24.574-4.596
	C248.272,181.426,246.893,186.287,245.092,190.997"/>
<path fill="#C28EBD" d="M272.739,188.076l24.201,6.271c0.73-2.841,1.368-5.705,1.913-8.587l-24.573-4.598
	C273.84,183.482,273.326,185.789,272.739,188.076"/>
<path fill="#C18DBD" d="M297.698,193.387l24.252,6.072c0.742-2.983,1.398-5.988,1.969-9.01l-24.575-4.598
	C298.867,188.379,298.318,190.892,297.698,193.387"/>
<path fill="#C18DBD" d="M324.219,199.446l3.641,0.898c0.714-2.916,1.351-5.851,1.908-8.801l-3.687-0.689
	C325.537,193.734,324.917,196.6,324.219,199.446"/>
<path fill="#C68FBD" d="M271.882,191.223l24.006,6.98c0.324-1.12,0.633-2.245,0.927-3.373l-24.202-6.269
	C272.381,189.451,272.137,190.339,271.882,191.223"/>
<path fill="#C78FBD" d="M270.992,194.158l23.803,7.643c0.33-1.036,0.648-2.075,0.954-3.118l-24.007-6.979
	C271.502,192.524,271.251,193.344,270.992,194.158"/>
<path fill="#808080" d="M268.882,200.176l23.324,9c0.874-2.278,1.687-4.579,2.437-6.9l-23.804-7.641
	C270.235,196.499,269.583,198.347,268.882,200.176"/>
<path fill="#D08EBB" d="M238.505,204.51l21.38,12.957c3.267-5.418,6.061-11.107,8.351-17.005l-23.324-8.997
	C243.151,195.987,241.008,200.352,238.505,204.51"/>
<path fill="#CE8FBC" d="M265.099,208.906l22.466,10.969c1.627-3.349,3.115-6.763,4.462-10.233l-23.324-8.998
	C267.613,203.445,266.41,206.202,265.099,208.906"/>
<path fill="#808080" d="M290.815,213.943l22.982,9.841c0.7-1.644,1.374-3.298,2.02-4.964l-23.324-8.998
	C291.956,211.205,291.397,212.579,290.815,213.943"/>
<path fill="#808080" d="M288.899,218.236l22.628,10.628c0.716-1.529,1.407-3.069,2.074-4.621l-22.982-9.839
	C290.065,215.69,289.492,216.968,288.899,218.236"/>
<path fill="#808080" d="M260.313,217.725l21.38,12.957c2.033-3.369,3.919-6.825,5.651-10.358l-22.466-10.967
	C263.478,212.21,261.954,215.002,260.313,217.725"/>
<path fill="#D78BB9" d="M232.211,213.579l19.527,15.61c2.862-3.597,5.497-7.37,7.888-11.296l-21.381-12.955
	C236.414,207.94,234.398,210.826,232.211,213.579"/>
<path fill="#D58CBA" d="M257.535,222.098l20.751,13.943c1.085-1.622,2.135-3.266,3.148-4.933l-21.381-12.955
	C259.242,219.486,258.402,220.801,257.535,222.098"/>
<path fill="#D58CBA" d="M279.031,235.824l20.812,13.854c1.167-1.763,2.303-3.548,3.4-5.354l-21.381-12.955
	C280.947,232.872,280.003,234.357,279.031,235.824"/>
<path fill="#808080" d="M252.13,229.501l19.526,15.611c2.23-2.8,4.35-5.689,6.352-8.657l-20.752-13.941
	C255.639,224.909,253.929,227.24,252.13,229.501"/>
<path fill="#DC89B7" d="M229.904,216.359l18.849,16.424c0.911-1.051,1.803-2.119,2.674-3.203l-19.528-15.609
	C231.248,214.778,230.584,215.575,229.904,216.359"/>
<path fill="#DF88B7" d="M227.683,218.825l18.194,17.146c0.865-0.924,1.715-1.86,2.548-2.813l-18.85-16.422
	C228.956,217.443,228.325,218.14,227.683,218.825"/>
<path fill="#DF87B6" d="M225.541,221.031l17.563,17.79c0.823-0.816,1.634-1.646,2.431-2.487l-18.196-17.144
	C226.749,219.813,226.149,220.428,225.541,221.031"/>
<path fill="#DF88B6" d="M243.583,239.051l17.594,17.763c0.987-0.982,1.96-1.979,2.917-2.991l-18.195-17.145
	C245.139,237.48,244.367,238.271,243.583,239.051"/>
<path fill="#DE84B4" d="M203.543,206.591l15.849,19.334c1.85-1.525,3.633-3.129,5.347-4.806L207.2,203.304
	C206.026,204.449,204.807,205.546,203.543,206.591"/>
<path fill="#DE82B3" d="M201.618,208.117l15.041,19.969c0.793-0.601,1.575-1.216,2.347-1.845l-15.852-19.332
	C202.648,207.32,202.137,207.723,201.618,208.117"/>
<path fill="#DF84B4" d="M216.961,228.484l15.042,19.969c1.072-0.812,2.129-1.643,3.171-2.491l-15.852-19.332
	C218.546,227.261,217.759,227.881,216.961,228.484"/>
<path fill="#808080" d="M232.373,248.801l15.057,19.957c1.323-1.002,2.627-2.028,3.911-3.077l-15.851-19.333
	C234.466,247.185,233.427,248.002,232.373,248.801"/>
<path fill="#DE82B2" d="M200.284,209.102l14.482,20.379c0.502-0.359,1-0.725,1.494-1.094l-15.044-19.968
	C200.908,208.649,200.598,208.877,200.284,209.102"/>
</svg>
