<?xml version="1.0" encoding="utf-8"?>
<!-- Generator: Adobe Illustrator 16.0.0, SVG Export Plug-In . SVG Version: 6.00 Build 0)  -->
<!DOCTYPE svg PUBLIC "-//W3C//DTD SVG 1.1//EN" "http://www.w3.org/Graphics/SVG/1.1/DTD/svg11.dtd">
<svg version="1.1" id="Слой_1" xmlns="http://www.w3.org/2000/svg" xmlns:xlink="http://www.w3.org/1999/xlink" x="0px" y="0px"
	 width="72px" height="72px" viewBox="0 0 72 72" enable-background="new 0 0 72 72" xml:space="preserve">
<style>
	.disk {
		fill: #b7fb5b;
	}

	.stroke {
		stroke: #b7fb5b;
	}
</style>
<g id="dd">
	<g id="src_1_" display="none">
		<g display="inline">
			<path class="disk" fill="#0D0F0F" d="M36.21,3.32c18.227,0,33.055,14.829,33.055,33.056c0,18.226-14.828,33.054-33.055,33.054
				c-18.225,0-33.053-14.828-33.053-33.054C3.158,18.149,17.985,3.32,36.21,3.32 M36.21,1.07c-19.497,0-35.303,15.807-35.303,35.306
				c0,19.495,15.806,35.304,35.303,35.304c19.499,0,35.305-15.809,35.305-35.304C71.516,16.877,55.709,1.07,36.21,1.07L36.21,1.07z"
				/>
		</g>
		<g display="inline">
			<circle class="disk" fill-rule="evenodd" clip-rule="evenodd" fill="#0D0F0F" cx="36.598" cy="36.48" r="3.528"/>
		</g>
		<g display="inline">
			<path class="disk" fill="#0D0F0F" d="M36.21,28.563c4.308,0,7.813,3.504,7.813,7.812c0,4.308-3.505,7.813-7.813,7.813
				c-4.307,0-7.811-3.505-7.811-7.813C28.4,32.068,31.904,28.563,36.21,28.563 M36.21,26.313c-5.557,0-10.061,4.504-10.061,10.062
				c0,5.557,4.504,10.063,10.061,10.063c5.557,0,10.063-4.506,10.063-10.063C46.273,30.818,41.768,26.313,36.21,26.313L36.21,26.313
				z"/>
		</g>
		<g display="inline">
			<path class="disk" fill="#0D0F0F" d="M36.211,8.441c15.404,0,27.935,12.531,27.935,27.934c0,15.403-12.531,27.936-27.935,27.936
				c-15.403,0-27.935-12.532-27.935-27.936C8.277,20.972,20.808,8.441,36.211,8.441 M36.211,6.191
				c-16.669,0-30.185,13.513-30.185,30.184c0,16.67,13.516,30.186,30.185,30.186c16.671,0,30.185-13.516,30.185-30.186
				C66.396,19.704,52.883,6.191,36.211,6.191L36.211,6.191z"/>
		</g>
		<g display="inline">
			<path class="disk" fill="#0D0F0F" d="M36.209,13.471c12.63,0,22.906,10.274,22.906,22.904c0,12.63-10.275,22.905-22.906,22.905
				c-12.629,0-22.903-10.275-22.903-22.905C13.306,23.746,23.581,13.471,36.209,13.471 M36.209,11.221
				c-13.892,0-25.153,11.261-25.153,25.154c0,13.891,11.262,25.155,25.153,25.155c13.894,0,25.156-11.265,25.156-25.155
				C61.365,22.482,50.104,11.221,36.209,11.221L36.209,11.221z"/>
		</g>
		<g display="inline">
			<path class="disk" fill="#0D0F0F" d="M36.21,18.501c9.856,0,17.874,8.018,17.874,17.874S46.066,54.248,36.21,54.248
				c-9.855,0-17.873-8.018-17.873-17.873S26.355,18.501,36.21,18.501 M36.21,16.251c-11.113,0-20.123,9.009-20.123,20.124
				c0,11.112,9.01,20.123,20.123,20.123c11.114,0,20.124-9.011,20.124-20.123C56.334,25.261,47.324,16.251,36.21,16.251
				L36.21,16.251z"/>
		</g>
		<g display="inline">
			<path class="disk" fill="#0D0F0F" d="M36.211,23.533c7.082,0,12.843,5.761,12.843,12.842s-5.762,12.842-12.843,12.842
				s-12.843-5.761-12.843-12.842S29.13,23.533,36.211,23.533 M36.211,21.283c-8.335,0-15.093,6.757-15.093,15.092
				c0,8.335,6.758,15.092,15.093,15.092c8.335,0,15.093-6.757,15.093-15.092C51.305,28.04,44.547,21.283,36.211,21.283
				L36.211,21.283z"/>
		</g>
	</g>
	<g>
		<g>
			<path class="disk" fill="#0D0F0F" d="M36.21,3.32c18.227,0,33.055,14.829,33.055,33.056c0,18.226-14.828,33.054-33.055,33.054
				c-18.225,0-33.053-14.828-33.053-33.054C3.158,18.149,17.985,3.32,36.21,3.32 M36.21,1.07c-19.497,0-35.303,15.807-35.303,35.306
				c0,19.495,15.806,35.304,35.303,35.304c19.499,0,35.305-15.809,35.305-35.304C71.516,16.877,55.709,1.07,36.21,1.07L36.21,1.07z"
				/>
		</g>
		<g>
			<circle class="disk" fill-rule="evenodd" clip-rule="evenodd" fill="#0D0F0F" cx="36.142" cy="36.4" r="4.123"/>
		</g>
		<g>
			<path class="disk" fill="#0D0F0F" d="M36.21,28.563c4.308,0,7.813,3.504,7.813,7.812c0,4.308-3.505,7.813-7.813,7.813
				c-4.307,0-7.811-3.505-7.811-7.813C28.4,32.068,31.904,28.563,36.21,28.563 M36.21,26.313c-5.557,0-10.061,4.504-10.061,10.062
				c0,5.557,4.504,10.063,10.061,10.063c5.557,0,10.063-4.506,10.063-10.063C46.273,30.818,41.768,26.313,36.21,26.313L36.21,26.313
				z"/>
		</g>
	</g>
	<g>
		<path class="disk" fill="#0D0F0F" d="M56.006,39.897l-2.189-0.548c-0.514,3.047-1.791,5.832-3.641,8.15l1.627,1.588
			C53.928,46.487,55.396,43.342,56.006,39.897z"/>
		<path class="disk" fill="#0D0F0F" d="M22.419,30.263l2.092,0.845c1.896-4.195,5.978-7.188,10.787-7.529l-0.123-2.244
			C29.466,21.724,24.633,25.276,22.419,30.263z"/>
		<path class="disk" fill="#0D0F0F" d="M37.014,18.542c3.15,0.141,6.088,1.096,8.611,2.668l1.182-1.92c-2.848-1.77-6.164-2.842-9.727-2.994
			L37.014,18.542z"/>
		<path class="disk" fill="#0D0F0F" d="M50.514,25.702c2.082,2.784,3.367,6.186,3.531,9.883l2.232-0.317c-0.217-4.006-1.6-7.694-3.826-10.74
			L50.514,25.702z"/>
		<path class="disk" fill="#0D0F0F" d="M58.721,40.576c-0.73,3.926-2.461,7.504-4.926,10.455l1.621,1.58c2.736-3.232,4.668-7.163,5.494-11.488
			L58.721,40.576z"/>
		<path class="disk" fill="#0D0F0F" d="M19.842,29.222c2.614-5.957,8.382-10.209,15.18-10.66l-0.124-2.244c-7.7,0.498-14.221,5.308-17.148,12.059
			L19.842,29.222z"/>
		<path class="disk" fill="#0D0F0F" d="M48.176,45.551c1.953-2.545,3.129-5.72,3.129-9.176c0-8.092-6.373-14.677-14.373-15.056l-0.066,2.247
			c6.777,0.344,12.189,5.949,12.189,12.809c0,2.84-0.939,5.459-2.506,7.588L48.176,45.551z"/>
		<path class="disk" fill="#0D0F0F" d="M45.996,10.213c1.723,0.646,3.365,1.459,4.908,2.417l1.186-1.926c-1.629-1.009-3.359-1.865-5.172-2.554
			L45.996,10.213z"/>
		<path class="disk" fill="#0D0F0F" d="M17.666,49.793c-2.738-3.773-4.359-8.408-4.359-13.418c0-0.292,0.012-0.582,0.022-0.872L11.083,35.3
			c-0.015,0.357-0.027,0.715-0.027,1.075c0,5.543,1.797,10.664,4.834,14.82L17.666,49.793z"/>
		<path class="disk" fill="#0D0F0F" d="M31.368,55.887l0.488-2.197c-7.753-1.951-13.519-8.963-13.519-17.314c0-0.141,0.019-0.277,0.021-0.417
			l-2.24-0.203c-0.006,0.208-0.031,0.41-0.031,0.619C16.087,45.814,22.598,53.716,31.368,55.887z"/>
		<path class="disk" fill="#0D0F0F" d="M44.41,52.239c-2.459,1.276-5.244,2.009-8.2,2.009c-0.695,0-1.377-0.049-2.052-0.127l-0.335,2.223
			c0.785,0.094,1.578,0.154,2.387,0.154c3.42,0,6.637-0.859,9.458-2.363L44.41,52.239z"/>
		<path class="disk" fill="#0D0F0F" d="M42.861,49.908l-1.258-1.894c-1.643,0.764-3.465,1.202-5.392,1.202c-7.068,0-12.82-5.74-12.841-12.805
			l-2.243-0.203c-0.001,0.056-0.009,0.109-0.009,0.166c0,8.335,6.758,15.092,15.093,15.092
			C38.602,51.467,40.854,50.896,42.861,49.908z"/>
		<path class="disk" fill="#0D0F0F" d="M23.794,17.144c3.194-2.07,6.932-3.365,10.95-3.621l-0.124-2.247c-4.371,0.272-8.437,1.662-11.92,3.885
			L23.794,17.144z"/>
		<path class="disk" fill="#0D0F0F" d="M37.162,13.496c4.063,0.167,7.854,1.396,11.105,3.418l1.184-1.924c-3.576-2.219-7.748-3.564-12.223-3.743
			L37.162,13.496z"/>
		<path class="disk" fill="#0D0F0F" d="M39.346,61.328c-0.02-0.863-0.041-1.654-0.064-2.26c-1.006,0.135-2.029,0.212-3.072,0.212
			c-0.948,0-1.882-0.065-2.8-0.177l-0.335,2.225c1.028,0.129,2.072,0.202,3.135,0.202C37.271,61.53,38.318,61.457,39.346,61.328z"/>
		<path class="disk" fill="#0D0F0F" d="M63.613,41.799c-0.949,4.805-3.137,9.168-6.211,12.748l1.621,1.583c3.348-3.862,5.734-8.579,6.779-13.784
			L63.613,41.799z"/>
		<path class="disk" fill="#0D0F0F" d="M47.211,56.458c-1.541,0.848-3.189,1.52-4.92,1.997l0.688,2.146c1.932-0.539,3.77-1.301,5.484-2.26
			L47.211,56.458z"/>
		<path class="disk" fill="#0D0F0F" d="M39.402,64.123c-1.049,0.119-2.111,0.188-3.191,0.188c-1.203,0-2.387-0.085-3.55-0.233l-0.336,2.226
			c1.273,0.164,2.568,0.258,3.886,0.258c1.091,0,2.167-0.061,3.228-0.174C39.43,65.757,39.416,64.969,39.402,64.123z"/>
		<path class="disk" fill="#0D0F0F" d="M20.751,53.26l-1.584,1.611c3.087,2.846,6.889,4.927,11.104,5.947l0.488-2.198
			C26.968,57.69,23.542,55.817,20.751,53.26z"/>
		<path class="disk" fill="#0D0F0F" d="M16.446,16.655l-1.692-1.504c-2.672,2.701-4.84,5.902-6.345,9.453l2.095,0.846"/>
		<path class="disk" fill="#0D0F0F" d="M29.658,9.225c1.558-0.376,3.164-0.622,4.811-0.724l-0.124-2.247c-1.696,0.104-3.353,0.35-4.961,0.722
			L29.658,9.225z"/>
		<path class="disk" fill="#0D0F0F" d="M20.214,20.004l-1.695-1.507c-2.295,2.271-4.154,4.979-5.443,7.991l2.094,0.846
			C16.364,24.567,18.088,22.082,20.214,20.004z"/>
		<path class="disk" fill="#0D0F0F" d="M29.669,63.529c-4.727-1.139-8.988-3.48-12.441-6.685l-1.585,1.614c3.749,3.492,8.387,6.039,13.538,7.27
			L29.669,63.529z"/>
	</g>
</g>
</svg>
