<?xml version="1.0" encoding="utf-8"?>
<!-- Generator: Adobe Illustrator 16.0.0, SVG Export Plug-In . SVG Version: 6.00 Build 0)  -->
<!DOCTYPE svg PUBLIC "-//W3C//DTD SVG 1.1//EN" "http://www.w3.org/Graphics/SVG/1.1/DTD/svg11.dtd">
<svg version="1.1" id="Слой_1" xmlns="http://www.w3.org/2000/svg" xmlns:xlink="http://www.w3.org/1999/xlink" x="0px" y="0px"
	 width="60px" height="71px" viewBox="0 0 60 71" enable-background="new 0 0 60 71" xml:space="preserve">
<style>
	.fast {
		fill: #954326;
	}
	.stroke {
		stroke: #954326;
	}
</style>
<g id="fast">

		<line class="stroke" fill-rule="evenodd" clip-rule="evenodd" fill="none" stroke="#0D0F0F" stroke-width="2.25" stroke-linecap="round" stroke-miterlimit="10" x1="29.86" y1="41.441" x2="43.25" y2="24.582"/>
	<g>
		<path class="fast" fill-rule="evenodd" clip-rule="evenodd" fill="#0D0F0F" d="M33.85,41.342c0.057,2.164-1.653,3.963-3.818,4.02
			c-2.164,0.055-3.963-1.654-4.019-3.82c-0.055-2.162,1.654-3.963,3.819-4.018C31.996,37.469,33.795,39.178,33.85,41.342z"/>
	</g>
	<g>
		<path class="fast" fill="#0D0F0F" d="M29.948,14.983c14.297-0.001,26.069,11.403,26.435,25.784c0.373,14.607-11.164,26.752-25.775,27.127
			c-0.23,0.006-0.459,0.009-0.688,0.009c-14.299,0-26.068-11.405-26.438-25.788c-0.373-14.604,11.166-26.747,25.78-27.123
			C29.49,14.986,29.72,14.983,29.948,14.983 M30,12.733v2.25V13h-0.052c-0.247,0-0.496-0.13-0.745-0.124
			C13.375,13.283,0.828,26.419,1.231,42.239c0.194,7.538,3.275,14.552,8.676,19.81c5.391,5.247,12.498,8.121,20.012,8.121
			c0.248,0,0.497-0.011,0.746-0.018c15.825-0.406,28.371-13.614,27.967-29.438c-0.191-7.536-3.247-14.584-8.647-19.841
			C44.594,15.625,37,12.733,30,12.733L30,12.733z"/>
	</g>

		<path class="stroke" fill-rule="evenodd" clip-rule="evenodd" fill="none" stroke="#0D0F0F" stroke-width="2.25" stroke-linecap="round" stroke-miterlimit="10" d="
		M47.311,11.236c3.01,1.735,5.742,3.909,8.104,6.44"/>

		<path class="stroke" fill-rule="evenodd" clip-rule="evenodd" fill="none" stroke="#0D0F0F" stroke-width="2.25" stroke-miterlimit="10" d="
		M34.531,5.649c0,2.778-2.252,5.031-5.031,5.031c-2.778,0-5.031-2.253-5.031-5.031s2.253-3.882,5.031-3.882
		C32.279,1.767,34.531,2.871,34.531,5.649z"/>

		<line class="stroke" fill-rule="evenodd" clip-rule="evenodd" fill="none" stroke="#0D0F0F" stroke-width="2.25" stroke-linecap="round" stroke-linejoin="round" stroke-miterlimit="10" x1="29.61" y1="13.582" x2="29.682" y2="10.69"/>
</g>
</svg>
