<?xml version="1.0" encoding="utf-8"?>
<!DOCTYPE svg PUBLIC "-//W3C//DTD SVG 1.1//EN" "http://www.w3.org/Graphics/SVG/1.1/DTD/svg11.dtd">
<svg version="1.1" baseProfile="full"
 xmlns="http://www.w3.org/2000/svg"
 xmlns:xlink="http://www.w3.org/1999/xlink"
 xmlns:ev="http://www.w3.org/2001/xml-events" 
  height="33px" 
  width="31px" 
>
<path fill="rgb( 59, 89, 152 )"
 d="M5.13800000000001,0.99099999999999 C5.13800000000001,0.99099999999999 25.89,0.99099999999999 25.89,0.99099999999999 C28.712,0.99099999999999 31,3.279 31,6.101 C31,6.101 31,26.899 31,26.899 C31,29.721 28.712,32.009 25.89,32.009 C25.89,32.009 5.13800000000001,32.009 5.13800000000001,32.009 C2.315,32.009 0.02800000000001,29.721 0.02800000000001,26.899 C0.02800000000001,26.899 0.02800000000001,6.101 0.02800000000001,6.101 C0.02800000000001,3.279 2.315,0.99099999999999 5.13800000000001,0.99099999999999 Z "/>
<path fill="rgb( 255, 255, 255 )"
 d="M13.478,24.003 C13.478,24.003 13.478,15.9450000000001 13.478,15.9450000000001 C13.478,15.9450000000001 11.874,15.9450000000001 11.874,15.9450000000001 C11.874,15.9450000000001 11.874,13.103 11.874,13.103 C11.874,13.103 13.478,13.103 13.478,13.103 C13.478,13.103 13.478,11.806 13.478,11.806 C13.478,11.173 13.478,9.995 14.049,9.245 C14.702,8.38 15.559,7.97500000000002 16.744,7.97500000000002 C18.785,7.97500000000002 19.666,8.26499999999999 19.702,8.27700000000004 C19.702,8.27700000000004 19.914,8.34900000000005 19.914,8.34900000000005 C19.914,8.34900000000005 19.426,11.2329999999999 19.426,11.2329999999999 C19.426,11.2329999999999 19.145,11.151 19.145,11.151 C19.139,11.15 18.503,10.9690000000001 17.926,10.9690000000001 C17.506,10.9690000000001 17.006,11.0700000000001 17.006,11.553 C17.006,11.553 17.006,13.103 17.006,13.103 C17.006,13.103 19.583,13.103 19.583,13.103 C19.583,13.103 19.365,15.9450000000001 19.365,15.9450000000001 C19.365,15.9450000000001 17.006,15.9450000000001 17.006,15.9450000000001 C17.006,15.9450000000001 17.006,24.003 17.006,24.003 C17.006,24.003 13.478,24.003 13.478,24.003 Z "/>
</svg>
