<?xml version="1.0" encoding="utf-8"?>
<!DOCTYPE svg PUBLIC "-//W3C//DTD SVG 1.1//EN" "http://www.w3.org/Graphics/SVG/1.1/DTD/svg11.dtd">
<svg version="1.1" baseProfile="full"
 xmlns="http://www.w3.org/2000/svg"
 xmlns:xlink="http://www.w3.org/1999/xlink"
 xmlns:ev="http://www.w3.org/2001/xml-events" 
  height="33px" 
  width="31px" 
>
<path fill="rgb( 255, 255, 255 )"
 d="M5.13800000000001,0.99099999999999 C5.13800000000001,0.99099999999999 25.89,0.99099999999999 25.89,0.99099999999999 C28.712,0.99099999999999 31,3.279 31,6.101 C31,6.101 31,26.899 31,26.899 C31,29.721 28.712,32.009 25.89,32.009 C25.89,32.009 5.13800000000001,32.009 5.13800000000001,32.009 C2.315,32.009 0.02799999999999,29.721 0.02799999999999,26.899 C0.02799999999999,26.899 0.02799999999999,6.101 0.02799999999999,6.101 C0.02799999999999,3.279 2.315,0.99099999999999 5.13800000000001,0.99099999999999 Z "/>
<path fill="rgb( 0, 117, 231 )"
 d="M11.238,13.61 C13.166,13.61 14.73,15.173 14.73,17.102 C14.73,19.03 13.166,20.5940000000001 11.238,20.5940000000001 C9.309,20.5940000000001 7.745,19.03 7.745,17.102 C7.745,15.173 9.309,13.61 11.238,13.61 Z "/>
<path fill="rgb( 255, 18, 151 )"
 d="M20.529,13.61 C22.458,13.61 24.022,15.173 24.022,17.102 C24.022,19.03 22.458,20.5940000000001 20.529,20.5940000000001 C18.601,20.5940000000001 17.037,19.03 17.037,17.102 C17.037,15.173 18.601,13.61 20.529,13.61 Z "/>
<path fill="rgb( 0, 117, 231 )"
 d="M11.238,13.61 C13.166,13.61 14.73,15.173 14.73,17.102 C14.73,19.03 13.166,20.5940000000001 11.238,20.5940000000001 C9.309,20.5940000000001 7.745,19.03 7.745,17.102 C7.745,15.173 9.309,13.61 11.238,13.61 Z "/>
<path fill="rgb( 255, 18, 151 )"
 d="M20.529,13.61 C22.458,13.61 24.022,15.173 24.022,17.102 C24.022,19.03 22.458,20.5940000000001 20.529,20.5940000000001 C18.601,20.5940000000001 17.037,19.03 17.037,17.102 C17.037,15.173 18.601,13.61 20.529,13.61 Z "/>
</svg>
