<?xml version="1.0" encoding="utf-8"?>
<!-- Generator: Adobe Illustrator 16.0.0, SVG Export Plug-In . SVG Version: 6.00 Build 0)  -->
<!DOCTYPE svg PUBLIC "-//W3C//DTD SVG 1.1//EN" "http://www.w3.org/Graphics/SVG/1.1/DTD/svg11.dtd">
<svg version="1.1" id="Слой_1" xmlns="http://www.w3.org/2000/svg" xmlns:xlink="http://www.w3.org/1999/xlink" x="0px" y="0px"
	 width="71px" height="71px" viewBox="0 0 71 71" enable-background="new 0 0 71 71" xml:space="preserve">
<g id="visual_1_">
	<style>
		.friendly {
			fill: #954326;
		}

		.stroke {
			stroke: #954326;
		}
	</style>
		<path class="stroke" fill-rule="evenodd" clip-rule="evenodd" fill="none" stroke="#0D0F0F" stroke-width="2.25" stroke-linecap="round" stroke-linejoin="round" stroke-miterlimit="10" d="
		M52.795,49.08c-3.391,6.012-9.838,10.072-17.233,10.072c-6.027-0.002-11.426-2.699-15.051-6.953
		c-0.84-0.986-1.584-2.055-2.219-3.191"/>
	<g>
		<path class="friendly" fill="#0D0F0F" d="M35.542,2.652c18.227,0,33.055,14.829,33.055,33.056c0,18.226-14.828,33.054-33.055,33.054
			c-18.225,0-33.053-14.828-33.053-33.054C2.49,17.481,17.317,2.652,35.542,2.652 M35.542,0.402
			C16.046,0.402,0.24,16.209,0.24,35.708c0,19.495,15.807,35.304,35.303,35.304c19.499,0,35.305-15.809,35.305-35.304
			C70.848,16.209,55.041,0.402,35.542,0.402L35.542,0.402z"/>
	</g>
	<g>
		<g>
			<path class="friendly" fill="#0D0F0F" d="M57.871,22.261c3.261,0,0.164,9.324-2.332,10.572c-1.899,0.95-7.668,3.36-11.729,3.36
				c-1.426,0-2.642-0.298-3.404-1.061c-2.578-2.577-2.906-3.949-4.864-3.949c-1.955,0-2.285,1.373-4.861,3.949
				c-0.763,0.763-1.978,1.061-3.405,1.061c-4.06,0-9.829-2.41-11.728-3.36c-2.497-1.248-5.594-10.572-2.332-10.572
				c0.091,0,0.188,0.007,0.289,0.022c3.57,0.527,16.828,3.461,22.037,3.461c5.211,0,18.469-2.935,22.04-3.461
				C57.684,22.269,57.779,22.261,57.871,22.261 M57.871,20.011c-0.201,0-0.409,0.016-0.618,0.047
				c-1.061,0.156-2.831,0.495-5.071,0.924c-5.225,1-13.121,2.513-16.639,2.513c-3.516,0-11.411-1.512-16.635-2.512
				c-2.242-0.429-4.012-0.769-5.073-0.925c-0.208-0.031-0.416-0.046-0.617-0.046c-1.733,0-3.074,1.121-3.5,2.926
				c-0.773,3.277,1.724,10.358,4.825,11.909c0.072,0.036,7.257,3.597,12.734,3.597c2.174,0,3.855-0.579,4.996-1.72
				c0.84-0.84,1.452-1.554,1.944-2.128c0.997-1.162,1.047-1.162,1.326-1.162c0.28,0,0.331,0,1.327,1.161
				c0.492,0.575,1.105,1.29,1.946,2.13c1.141,1.14,2.821,1.719,4.995,1.719c5.478,0,12.663-3.562,12.734-3.597
				c3.101-1.55,5.599-8.632,4.825-11.909C60.944,21.133,59.604,20.011,57.871,20.011L57.871,20.011z"/>
		</g>
	</g>
</g>
</svg>
