<?xml version="1.0" encoding="utf-8"?>
<!DOCTYPE svg PUBLIC "-//W3C//DTD SVG 1.1//EN" "http://www.w3.org/Graphics/SVG/1.1/DTD/svg11.dtd">
<svg version="1.1" baseProfile="full"
 xmlns="http://www.w3.org/2000/svg"
 xmlns:xlink="http://www.w3.org/1999/xlink"
 xmlns:ev="http://www.w3.org/2001/xml-events" 
  height="33px" 
  width="31px" 
>
<path fill="rgb( 214, 74, 45 )"
 d="M5.13800000000001,0.99099999999999 C5.13800000000001,0.99099999999999 25.89,0.99099999999999 25.89,0.99099999999999 C28.712,0.99099999999999 31,3.279 31,6.101 C31,6.101 31,26.899 31,26.899 C31,29.721 28.712,32.009 25.89,32.009 C25.89,32.009 5.13800000000001,32.009 5.13800000000001,32.009 C2.315,32.009 0.02799999999999,29.721 0.02799999999999,26.899 C0.02799999999999,26.899 0.02799999999999,6.101 0.02799999999999,6.101 C0.02799999999999,3.279 2.315,0.99099999999999 5.13800000000001,0.99099999999999 Z "/>
<path fill="rgb( 255, 255, 255 )"
 d="M24.184,16.357 C24.184,16.357 24.184,18.574 24.184,18.574 C24.184,18.574 23.255,18.574 23.255,18.574 C23.255,18.574 23.255,16.357 23.255,16.357 C23.255,16.357 20.93,16.357 20.93,16.357 C20.93,16.357 20.93,15.47 20.93,15.47 C20.93,15.47 23.255,15.47 23.255,15.47 C23.255,15.47 23.255,13.252 23.255,13.252 C23.255,13.252 24.184,13.252 24.184,13.252 C24.184,13.252 24.184,15.47 24.184,15.47 C24.184,15.47 26.509,15.47 26.509,15.47 C26.509,15.47 26.509,16.357 26.509,16.357 C26.509,16.357 24.184,16.357 24.184,16.357 ZM17.523,8.83699999999999 C18.716,9.26499999999999 19.352,10.561 19.352,11.891 C19.352,13.009 18.688,13.968 17.75,14.652 C16.835,15.318 16.661,15.597 16.661,16.164 C16.661,16.648 17.642,17.47 18.154,17.809 C19.653,18.797 20.138,19.7140000000001 20.138,21.245 C20.138,23.155 18.154,25.054 14.563,25.054 C11.414,25.054 8.756,23.859 8.756,21.95 C8.756,20.011 11.181,18.141 14.33,18.141 C14.673,18.141 14.988,18.1319999999999 15.313,18.1319999999999 C14.883,17.741 14.541,17.263 14.541,16.672 C14.541,16.321 14.662,15.984 14.83,15.684 C14.658,15.696 14.484,15.699 14.303,15.699 C11.717,15.699 9.983,13.9829999999999 9.983,11.857 C9.983,9.77700000000004 12.377,7.98199999999997 14.919,7.98199999999997 C16.337,7.98199999999997 20.591,7.98199999999997 20.591,7.98199999999997 C20.591,7.98199999999997 19.322,8.83699999999999 19.322,8.83699999999999 C19.322,8.83699999999999 17.523,8.83699999999999 17.523,8.83699999999999 ZM14.93,18.633 C12.753,18.611 10.803,19.87 10.803,21.3819999999999 C10.803,22.925 12.375,24.21 14.552,24.21 C17.613,24.21 18.679,23.004 18.679,21.461 C18.679,21.275 18.655,21.093 18.61,20.9160000000001 C18.371,20.043 17.523,19.61 16.341,18.8440000000001 C15.911,18.7140000000001 15.438,18.6369999999999 14.93,18.633 ZM17.313,11.995 C17.061,10.206 15.672,8.77099999999996 14.211,8.73000000000002 C12.75,8.69000000000005 11.77,10.059 12.022,11.847 C12.274,13.636 13.663,15.119 15.124,15.16 C16.585,15.201 17.565,13.784 17.313,11.995 Z "/>
</svg>
