<?xml version="1.0" encoding="UTF-8" standalone="no"?>
<svg width="127px" height="57px" viewBox="0 0 127 57" version="1.1" xmlns="http://www.w3.org/2000/svg" xmlns:xlink="http://www.w3.org/1999/xlink" xmlns:sketch="http://www.bohemiancoding.com/sketch/ns">
    <!-- Generator: Sketch 3.1.1 (8761) - http://www.bohemiancoding.com/sketch -->
    <title>logo_beautifulpixels</title>
    <desc>Created with Sketch.</desc>
    <defs></defs>
    <g id="Page-1" stroke="none" stroke-width="1" fill="none" fill-rule="evenodd" sketch:type="MSPage">
        <g id="BP" sketch:type="MSLayerGroup" fill="#42A655">
            <g transform="translate(3.000000, 10.000000)" sketch:type="MSShapeGroup">
                <path d="M46.4133841,11.9566921 L46.4133841,12.2920877 L46.7487797,12.2920877 L50.1027359,12.2920877 C50.4740437,12.2592742 50.9613199,12.1290189 51.4528445,11.8254873 C52.2822923,11.3132778 52.7859008,10.4731663 52.7859008,9.27352696 C52.7859008,7.8309926 52.2168154,6.87066098 51.2733542,6.33996407 C50.7113931,6.02386095 50.1551801,5.91957098 49.7673403,5.91957096 L47.0841753,5.91957096 L47.0841753,6.59036219 L49.7673403,6.59036219 L49.8594805,6.5774575 C49.9457502,6.55280902 50.0873351,6.50368774 50.266298,6.42698932 C50.5622627,6.30014733 50.8582059,6.13949245 51.1361697,5.94094689 C51.9507055,5.35913561 52.4505052,4.57373606 52.4505052,3.57180169 C52.4505052,1.75565322 51.293968,0.852108472 49.4632507,0.680478724 C48.7672187,0.615225717 48.0290293,0.659950197 47.3097131,0.773841942 C47.1397481,0.800753058 46.9841095,0.829631318 46.845853,0.858604193 C46.7617144,0.87623618 46.7012137,0.890205941 46.6674343,0.898650791 L46.4133841,0.962163349 L46.4133841,1.22403233 L46.4133841,11.9566921 Z M46.8301251,1.54941388 C46.9400228,1.52193946 47.1433562,1.47932914 47.4146149,1.43637985 C48.0830414,1.33054566 48.7680952,1.28904049 49.4006386,1.34834143 C50.9238775,1.49114509 51.779714,2.15976732 51.779714,3.57180169 C51.779714,4.33069427 51.3991002,4.92880161 50.7462802,5.39510161 C50.5106694,5.56339501 50.2563542,5.70145185 50.0020604,5.8104349 C49.8508683,5.8752315 49.7356659,5.91519968 49.6752,5.93247566 L49.7673403,5.91957096 L47.0841753,5.91957096 L47.0841753,6.59036219 L49.7673403,6.59036219 C49.8316373,6.5903622 49.9580381,6.60051941 50.1247752,6.63178263 C50.4053654,6.68439329 50.6855534,6.77895677 50.9444913,6.9246093 C51.6780082,7.33721256 52.1151096,8.07482113 52.1151096,9.27352696 C52.1151096,10.232242 51.7383046,10.8608219 51.1003966,11.2547498 C50.8736283,11.3947861 50.6283592,11.4947088 50.3829604,11.5603071 C50.2374856,11.5991944 50.12749,11.6175913 50.0719416,11.6227131 L46.7487797,11.6212964 L47.0841753,11.9566921 L47.0841753,1.22403233 L46.8301251,1.54941388 Z" id="Path-36"></path>
                <path d="M55.4690658,0.888636717 L55.1336701,0.888636717 L55.1336701,1.22403233 L55.1336701,11.9619313 L55.1336701,12.297327 L55.4690658,12.297327 L60.8353982,12.297327 L60.8353982,11.6265357 L55.4690658,11.6265357 L55.8044614,11.9619313 L55.8044614,1.22403233 L55.4690658,1.55942795 L60.8353956,1.55942795 L60.8353956,0.888636717 L55.4690658,0.888636717 Z" id="Path-37"></path>
                <path d="M55.8044614,5.91957096 L55.8044614,6.59036219 L60.5,6.59036219 L60.5,5.91957096 L55.8044614,5.91957096 Z" id="Path-38"></path>
                <path d="M67.1877193,1.33865146 L66.5604618,1.34696305 L70.9206048,12.4150184 L71.5447146,12.169157 L67.1845716,1.10110162 C67.0713774,0.813762472 66.662855,0.819175673 66.5573141,1.10941321 L62.5325667,12.1774685 L63.1629719,12.4067068 L67.1877193,1.33865146 Z" id="Path-39"></path>
                <path d="M69.5668491,8.26734028 L69.5668491,7.59654904 L64.5247474,7.59654904 L64.5247474,8.26734028 L69.5668491,8.26734028 Z" id="Path-40"></path>
                <path d="M72.9096378,8.76918315 C72.9096378,10.8971022 74.6397557,12.6274833 76.7615031,12.6274833 L77.1072673,12.6274833 C79.2365874,12.6274833 80.9591326,10.9045758 80.9591326,8.77092157 L80.9591326,0.946148266 L80.2883414,0.946148266 L80.2883414,8.77092157 C80.2883414,10.5341396 78.8660881,11.9566921 77.1072673,11.9566921 L76.7615031,11.9566921 C75.0102463,11.9566921 73.580429,10.5266572 73.580429,8.76918315 L73.580429,0.890115487 L72.9096378,0.890115487 L72.9096378,8.76918315 Z" id="Rectangle-31"></path>
                <path d="M103.430639,8.76918315 C103.430639,10.8971022 105.160757,12.6274833 107.282504,12.6274833 L107.628268,12.6274833 C109.757589,12.6274833 111.480134,10.9045758 111.480134,8.77092157 L111.480134,0.946148266 L110.809342,0.946148266 L110.809342,8.77092157 C110.809342,10.5341396 109.387089,11.9566921 107.628268,11.9566921 L107.282504,11.9566921 C105.531247,11.9566921 104.10143,10.5266572 104.10143,8.76918315 L104.10143,0.890115487 L103.430639,0.890115487 L103.430639,8.76918315 Z" id="Rectangle-32"></path>
                <path d="M90.6856055,1.55942795 L90.6856055,0.888636717 L82.3007151,0.888636717 L82.3007151,1.55942795 L90.6856055,1.55942795 Z" id="Path-42"></path>
                <path d="M86.6608581,1.53848615 L85.9900668,1.53848615 L85.9900668,12.2920876 L86.6608581,12.2920876 L86.6608581,1.53848615 Z" id="Path-43"></path>
                <path d="M92.6979792,0.888636717 L92.0271879,0.888636717 L92.0271879,12.2920877 L92.6979792,12.2920877 L92.6979792,0.888636717 Z" id="Path-44"></path>
                <path d="M96.0519353,1.13713065 L95.7165397,1.47427351 L101.09334,1.47427351 L101.09334,0.799987793 L95.7165397,0.799987793 L95.3811441,0.799987793 L95.3811441,1.13713065 L95.3811441,12.5999878 L96.0519353,12.5999878 L96.0519353,1.13713065 Z" id="Path-45"></path>
                <path d="M100.747474,6.92575781 L100.747474,6.25496658 L95.7165397,6.25496658 L95.7165397,6.92575781 L100.747474,6.92575781 Z" id="Path-46"></path>
                <path d="M114.83409,11.6212964 L115.169485,11.9566921 L115.169485,0.888636717 L114.498694,0.888636717 L114.498694,11.9566921 L114.498694,12.2920877 L114.83409,12.2920877 L120.535815,12.2920877 L120.535815,11.6212964 L114.83409,11.6212964 Z" id="Path-48"></path>
                <path d="M46.4133841,37.1113633 L47.7549666,37.1113633 L47.7549666,17.9938132 L47.2200814,18.6506925 C47.2528034,18.6439224 47.3218733,18.6308229 47.423577,18.6134631 C47.5969768,18.5838656 47.7957,18.5541112 48.0160047,18.5262566 C49.2826263,18.3661091 50.6142178,18.3399839 51.8445545,18.5308982 C54.5888033,18.9567299 56.139857,20.3205874 56.139857,23.0247471 C56.139857,25.7289069 54.5888032,27.0927646 51.8445544,27.5185965 C50.6142176,27.7095109 49.282626,27.6833858 48.0160043,27.5232383 C47.7956997,27.4953837 47.5969765,27.4656294 47.4235769,27.4360319 C47.3218732,27.4186721 47.2528033,27.4055727 47.2200814,27.3988026 L46.4133841,27.2318998 L46.4133841,28.0556819 L46.4133841,37.1113633 Z M46.9482693,28.7125612 C46.9959314,28.7224224 47.080322,28.7384275 47.1978474,28.7584878 C47.3898298,28.7912572 47.6076421,28.8238697 47.8477188,28.8542243 C49.228291,29.0287793 50.6781712,29.0572251 52.0502692,28.8443133 C55.3850659,28.3268446 57.4814395,26.4834815 57.4814395,23.0247471 C57.4814395,19.5660127 55.3850659,17.7226498 52.0502691,17.2051814 C50.6781713,16.9922697 49.2282913,17.0207156 47.8477192,17.1952707 C47.6076424,17.2256252 47.38983,17.2582378 47.1978475,17.2910072 C47.080322,17.3110676 46.9959314,17.3270727 46.9482693,17.3369338 L46.4133841,17.4475997 L46.4133841,17.9938132 L46.4133841,37.1113633 L47.7549666,37.1113633 L47.7549666,28.0556819 L46.9482693,28.7125612 Z" id="Path-49"></path>
                <path d="M62.1769781,17.3201798 L60.8353956,17.3201798 L60.8353956,37.1113633 L62.1769781,37.1113633 L62.1769781,17.3201798 Z" id="Path-50"></path>
                <path d="M79.8460989,17.6862403 L78.7182101,16.9598035 L65.9731767,36.7481449 L67.1010655,37.4745817 L79.8460989,17.6862403 Z" id="Path-51"></path>
                <path d="M67.4408048,16.9666379 L66.3042287,17.6794059 L78.7138665,37.4677473 L79.8504426,36.7549793 L67.4408048,16.9666379 Z" id="Path-52"></path>
                <path d="M84.3130882,35.7697808 L84.9838795,36.4405721 L84.9838795,17.6584175 L84.3130882,18.3292088 L93.0333748,18.3292088 L93.0333748,16.9876263 L84.3130882,16.9876263 L83.642297,16.9876263 L83.642297,17.6584175 L83.642297,36.4405721 L83.642297,37.1113633 L84.3130882,37.1113633 L93.7041655,37.1113633 L93.7041655,35.7697808 L84.3130882,35.7697808 Z" id="Path-53"></path>
                <path d="M97.7289129,35.7697808 L98.3997041,36.4405721 L98.3997041,17.6584175 L97.0581216,17.6584175 L97.0581216,36.4405721 L97.0581216,37.1113633 L97.7289129,37.1113633 L107.11999,37.1113633 L107.11999,35.7697808 L97.7289129,35.7697808 Z" id="Path-55"></path>
                <path d="M92.6979792,27.0494948 L92.6979792,25.7079123 L84.3130888,25.7079123 L84.3130888,27.0494948 L92.6979792,27.0494948 Z" id="Path-54"></path>
                <path d="M115.120286,37.6554854 C118.396272,37.4860379 120.535815,35.7869892 120.535815,32.4158247 C120.535815,29.2658524 119.103899,27.8850763 115.451963,26.1895345 C115.310563,26.1239516 115.310563,26.1239516 115.170037,26.058839 C112.100987,24.6360306 111.144738,23.7597686 111.144738,21.6831649 C111.144738,19.462927 112.455536,18.5050365 114.85987,18.4125621 C115.801361,18.3763509 116.824344,18.4852372 117.840772,18.6897257 C118.15073,18.7520841 118.436522,18.8188213 118.690815,18.8853287 C118.840988,18.9246046 118.945449,18.9544864 118.996963,18.9703369 L119.391503,17.6880806 C119.322321,17.6667938 119.19959,17.6316855 119.030273,17.5874026 C118.752084,17.5146455 118.441495,17.442118 118.105375,17.3744961 C116.993205,17.1507459 115.869618,17.0311512 114.808309,17.0719708 C111.762465,17.1891186 109.803156,18.6209219 109.803156,21.6831649 C109.803156,24.4626944 111.099232,25.6503584 114.60577,27.2759854 C114.746676,27.3412746 114.746676,27.3412746 114.887008,27.4063618 C118.110682,28.9030676 119.194233,29.9479205 119.194233,32.4158247 C119.194233,34.978203 117.681308,36.1796429 115.050987,36.315694 C113.112424,36.4159644 110.598648,35.7537334 110.361288,35.3976927 L109.245024,36.141869 C109.820633,37.0052826 112.753455,37.7779077 115.120286,37.6554854 Z" id="Path-56"></path>
                <path d="M2.46096811,0.217845484 C1.35817507,0.217845484 0.464184673,1.12261938 0.464184673,2.21462892 L0.464184673,5.5997656 C0.464184673,6.70255865 1.36895856,7.59654904 2.46096811,7.59654904 L5.84610479,7.59654904 C6.94889783,7.59654904 7.84288823,6.69177515 7.84288823,5.5997656 L7.84288823,2.21462892 C7.84288823,1.11183588 6.93811434,0.217845484 5.84610479,0.217845484 L2.46096811,0.217845484 Z M2.46096811,10.279714 C1.35817507,10.279714 0.464184673,11.1844879 0.464184673,12.2764974 L0.464184673,15.6616341 C0.464184673,16.7644271 1.36895856,17.6584175 2.46096811,17.6584175 L5.84610479,17.6584175 C6.94889783,17.6584175 7.84288823,16.7536436 7.84288823,15.6616341 L7.84288823,12.2764974 C7.84288823,11.1737044 6.93811434,10.279714 5.84610479,10.279714 L2.46096811,10.279714 Z M2.46096811,20.3415825 C1.35817507,20.3415825 0.464184673,21.2463564 0.464184673,22.3383659 L0.464184673,25.7235026 C0.464184673,26.8262956 1.36895856,27.720286 2.46096811,27.720286 L5.84610479,27.720286 C6.94889783,27.720286 7.84288823,26.8155121 7.84288823,25.7235026 L7.84288823,22.3383659 C7.84288823,21.2355729 6.93811434,20.3415825 5.84610479,20.3415825 L2.46096811,20.3415825 Z M2.46096811,30.403451 C1.35817507,30.403451 0.464184673,31.3082248 0.464184673,32.4002344 L0.464184673,35.7853711 C0.464184673,36.8881641 1.36895856,37.7821545 2.46096811,37.7821545 L5.84610479,37.7821545 C6.94889783,37.7821545 7.84288823,36.8773806 7.84288823,35.7853711 L7.84288823,32.4002344 C7.84288823,31.2974414 6.93811434,30.403451 5.84610479,30.403451 L2.46096811,30.403451 Z M12.5228366,20.3415825 C11.4200436,20.3415825 10.5260532,21.2463564 10.5260532,22.3383659 L10.5260532,25.7235026 C10.5260532,26.8262956 11.4308271,27.720286 12.5228366,27.720286 L15.9079733,27.720286 C17.0107663,27.720286 17.9047567,26.8155121 17.9047567,25.7235026 L17.9047567,22.3383659 C17.9047567,21.2355729 16.9999828,20.3415825 15.9079733,20.3415825 L12.5228366,20.3415825 Z M12.5228366,30.403451 C11.4200436,30.403451 10.5260532,31.3082248 10.5260532,32.4002344 L10.5260532,35.7853711 C10.5260532,36.8881641 11.4308271,37.7821545 12.5228366,37.7821545 L15.9079733,37.7821545 C17.0107663,37.7821545 17.9047567,36.8773806 17.9047567,35.7853711 L17.9047567,32.4002344 C17.9047567,31.2974414 16.9999828,30.403451 15.9079733,30.403451 L12.5228366,30.403451 Z M22.5847051,0.217845484 C21.4819121,0.217845484 20.5879217,1.12261938 20.5879217,2.21462892 L20.5879217,5.5997656 C20.5879217,6.70255865 21.4926955,7.59654904 22.5847051,7.59654904 L25.9698418,7.59654904 C27.0726348,7.59654904 27.9666252,6.69177515 27.9666252,5.5997656 L27.9666252,2.21462892 C27.9666252,1.11183588 27.0618513,0.217845484 25.9698418,0.217845484 L22.5847051,0.217845484 Z M22.5847051,10.279714 C21.4819121,10.279714 20.5879217,11.1844879 20.5879217,12.2764974 L20.5879217,15.6616341 C20.5879217,16.7644271 21.4926955,17.6584175 22.5847051,17.6584175 L25.9698418,17.6584175 C27.0726348,17.6584175 27.9666252,16.7536436 27.9666252,15.6616341 L27.9666252,12.2764974 C27.9666252,11.1737044 27.0618513,10.279714 25.9698418,10.279714 L22.5847051,10.279714 Z M32.6465736,0.217845484 C31.5437805,0.217845484 30.6497901,1.12261938 30.6497901,2.21462892 L30.6497901,5.5997656 C30.6497901,6.70255865 31.554564,7.59654904 32.6465736,7.59654904 L36.0317103,7.59654904 C37.1345033,7.59654904 38.0284937,6.69177515 38.0284937,5.5997656 L38.0284937,2.21462892 C38.0284937,1.11183588 37.1237198,0.217845484 36.0317103,0.217845484 L32.6465736,0.217845484 Z M32.6465736,10.279714 C31.5437805,10.279714 30.6497901,11.1844879 30.6497901,12.2764974 L30.6497901,15.6616341 C30.6497901,16.7644271 31.554564,17.6584175 32.6465736,17.6584175 L36.0317103,17.6584175 C37.1345033,17.6584175 38.0284937,16.7536436 38.0284937,15.6616341 L38.0284937,12.2764974 C38.0284937,11.1737044 37.1237198,10.279714 36.0317103,10.279714 L32.6465736,10.279714 Z M32.6465736,20.3415825 C31.5437805,20.3415825 30.6497901,21.2463564 30.6497901,22.3383659 L30.6497901,25.7235026 C30.6497901,26.8262956 31.554564,27.720286 32.6465736,27.720286 L36.0317103,27.720286 C37.1345033,27.720286 38.0284937,26.8155121 38.0284937,25.7235026 L38.0284937,22.3383659 C38.0284937,21.2355729 37.1237198,20.3415825 36.0317103,20.3415825 L32.6465736,20.3415825 Z M32.6465736,30.403451 C31.5437805,30.403451 30.6497901,31.3082248 30.6497901,32.4002344 L30.6497901,35.7853711 C30.6497901,36.8881641 31.554564,37.7821545 32.6465736,37.7821545 L36.0317103,37.7821545 C37.1345033,37.7821545 38.0284937,36.8773806 38.0284937,35.7853711 L38.0284937,32.4002344 C38.0284937,31.2974414 37.1237198,30.403451 36.0317103,30.403451 L32.6465736,30.403451 Z" id="Rectangle-14"></path>
                <path d="M22.5847051,20.3415825 C21.4819121,20.3415825 20.5879217,21.2463564 20.5879217,22.3383659 L20.5879217,25.7235026 C20.5879217,26.8262956 21.4926955,27.720286 22.5847051,27.720286 L25.9698418,27.720286 C27.0726348,27.720286 27.9666252,26.8155121 27.9666252,25.7235026 L27.9666252,22.3383659 C27.9666252,21.2355729 27.0618513,20.3415825 25.9698418,20.3415825 L22.5847051,20.3415825 Z M22.5847051,30.403451 C21.4819121,30.403451 20.5879217,31.3082248 20.5879217,32.4002344 L20.5879217,35.7853711 C20.5879217,36.8881641 21.4926955,37.7821545 22.5847051,37.7821545 L25.9698418,37.7821545 C27.0726348,37.7821545 27.9666252,36.8773806 27.9666252,35.7853711 L27.9666252,32.4002344 C27.9666252,31.2974414 27.0618513,30.403451 25.9698418,30.403451 L22.5847051,30.403451 Z M12.5228366,0.217845484 C11.4200436,0.217845484 10.5260532,1.12261938 10.5260532,2.21462892 L10.5260532,5.5997656 C10.5260532,6.70255865 11.4308271,7.59654904 12.5228366,7.59654904 L15.9079733,7.59654904 C17.0107663,7.59654904 17.9047567,6.69177515 17.9047567,5.5997656 L17.9047567,2.21462892 C17.9047567,1.11183588 16.9999828,0.217845484 15.9079733,0.217845484 L12.5228366,0.217845484 Z M12.5228366,10.279714 C11.4200436,10.279714 10.5260532,11.1844879 10.5260532,12.2764974 L10.5260532,15.6616341 C10.5260532,16.7644271 11.4308271,17.6584175 12.5228366,17.6584175 L15.9079733,17.6584175 C17.0107663,17.6584175 17.9047567,16.7536436 17.9047567,15.6616341 L17.9047567,12.2764974 C17.9047567,11.1737044 16.9999828,10.279714 15.9079733,10.279714 L12.5228366,10.279714 Z" id="Rectangle-23" fill-opacity="0.25"></path>
            </g>
        </g>
    </g>
</svg>