<?xml version="1.0" encoding="UTF-8" standalone="no"?>
<svg width="156px" height="57px" viewBox="0 0 156 57" version="1.1" xmlns="http://www.w3.org/2000/svg" xmlns:xlink="http://www.w3.org/1999/xlink" xmlns:sketch="http://www.bohemiancoding.com/sketch/ns">
    <!-- Generator: Sketch 3.1.1 (8761) - http://www.bohemiancoding.com/sketch -->
    <title>logo_macworld</title>
    <desc>Created with Sketch.</desc>
    <defs></defs>
    <g id="Page-1" stroke="none" stroke-width="1" fill="none" fill-rule="evenodd" sketch:type="MSPage">
        <g id="Macworld" sketch:type="MSLayerGroup" fill="#42A655">
            <path d="M24.2767782,17 L28.6569353,17 L28.6569353,41.3613571 L23.48085,41.3613571 L23.48085,28.5884994 L15.8700208,40.0840713 L8.13294566,27.9498566 L8.13294566,41.3613571 L2.95686041,41.3613571 L2.95686041,17 L7.55105717,17 L15.8700208,30.5044281 L24.2767782,17 Z M38.1411563,33.6976425 C37.1202301,33.7997351 35.8794022,33.9681082 35.4496882,34.2215293 C34.7224798,34.6512433 34.3588811,35.3178409 34.3588811,36.2213421 C34.3588811,37.0256786 34.5819985,37.6068857 35.02824,37.9649807 C35.4744815,38.3230757 38.4604777,38.7197831 40.0570849,37.9649807 C41.6536921,37.2101784 41.6536921,36.890857 42.292335,35.2942497 C42.292335,35.2942497 41.3343707,33.3783211 38.1411563,33.6976425 Z M42.6603031,31.143071 C42.5299526,27.9498566 41.825673,27.4039867 41.3133217,27.1230198 C40.8009704,26.842053 39.4521254,26.6725708 38.4604777,26.6725708 C37.3476286,26.6725708 33.5812633,28.2136675 33.4710802,28.9078209 C33.4710802,28.9078209 32.2960771,26.1324685 32.0740489,25.395285 C33.3191177,23.8086487 36.1925735,22.9168018 39.2226082,22.9168018 C41.1948853,22.9168018 42.94677,23.3079459 44.4783148,24.0902457 C46.0098596,24.8725456 46.7756205,26.3489767 46.7756205,28.5195834 L46.7756205,36.783273 C46.7756205,37.3562251 46.7866387,38.050368 46.8086753,38.8657228 C46.8417302,39.4827481 46.9353844,39.9014375 47.0896408,40.1218037 C47.2438971,40.3421698 47.4752781,40.5239692 47.7837907,40.6672072 L47.7837907,41.3613571 L42.6603031,41.3613571 C42.5170651,40.997753 42.4179018,40.6561905 42.3628103,40.3366596 C42.3077187,40.0171287 42.2636462,39.65353 42.2305912,39.2458526 C41.5805111,39.9510243 40.8312774,40.5515131 39.9828676,41.0473369 C38.9691833,41.6313072 37.8232965,41.923288 36.5451727,41.923288 C34.9144632,41.923288 33.5674952,41.4577715 32.5042285,40.5267245 C31.4409618,39.5956774 30.1581202,37.9600518 30.1581202,36.252214 C30.1581202,34.0375341 31.1160846,32.7396782 33.0320132,31.7817139 C33.9954675,31.2999867 35.7733347,30.6020332 37.602925,30.6020332 C41.0150493,30.6020332 42.529953,31.2406201 42.6603031,31.143071 Z M62.7289073,29.2633155 C61.1323001,27.3112137 59.0189784,27.2647499 57.6079144,27.2647499 C56.0212781,27.2647499 54.2188661,30.1386429 54.2188661,32.6018461 C54.2188661,33.924043 54.3731201,34.9872938 54.6816328,35.7916303 C55.2435665,37.2901202 56.3133688,37.8047192 57.8548896,38.0393539 C60.4936572,38.4410004 62.9047813,36.3866189 63.3675502,35.7916303 C64.6173943,36.3866184 65.2834788,37.3885493 65.9221217,38.7603218 C64.4456685,40.8207454 61.1562221,42 58.2584071,42 C55.3605921,42 52.7093723,41.1299824 51.3431021,39.4111264 C49.976832,37.6922703 49.2937071,35.4610964 49.2937071,32.7175377 C49.2937071,29.6213932 50.0484499,27.213929 51.5579581,25.495073 C53.0674663,23.7762169 55.1498952,22.9168018 57.8053075,22.9168018 C60.0640606,22.9168018 63.3675502,23.7986778 65.2834788,26.0339279 C64.6621429,27.6305351 63.0925115,29.8032125 62.7289073,29.2633155 Z M78.375658,23.3465137 L82.2075153,23.3465137 L85.1581202,36.3205064 L87.9677747,23.3465137 L92.8764064,23.3465137 L87.6537545,41.3613571 L82.8112324,41.3613571 L80.026369,31.143071 L77.1258139,41.3613571 L72.2337096,41.3613571 L67.1763315,23.3465137 L72.2337096,23.3465137 L75.0433641,36.2709243 L78.375658,23.3465137 Z M106.087707,36.5684171 C106.825934,35.5877877 107.195042,34.1939927 107.195042,32.3869901 C107.195042,30.5799876 106.825934,29.1889471 106.087707,28.2138269 C105.349481,27.2387066 104.291739,26.7511538 102.914451,26.7511538 C101.537162,26.7511538 100.476666,27.2387066 99.73293,28.2138269 C98.9891942,29.1889471 98.6173319,30.5799876 98.6173319,32.3869901 C98.6173319,34.1939927 98.9891942,35.5877877 99.73293,36.5684171 C100.476666,37.5490465 101.537162,38.0393539 102.914451,38.0393539 C104.291739,38.0393539 105.349481,37.5490465 106.087707,36.5684171 L106.087707,36.5684171 Z M109.85595,39.1714794 C108.335423,41.0501009 106.027122,41.9893975 102.930978,41.9893975 C99.8348334,41.9893975 97.5265325,41.0501009 96.006006,39.1714794 C94.4854795,37.2928578 93.7252276,35.0313841 93.7252276,32.3869901 C93.7252276,29.7866695 94.4854795,27.5334593 96.006006,25.627292 C97.5265325,23.7211247 99.8348334,22.7680554 102.930978,22.7680554 C106.027122,22.7680554 108.335423,23.7211247 109.85595,25.627292 C111.376476,27.5334593 112.136728,29.7866695 112.136728,32.3869901 C112.136728,35.0313841 111.376476,37.2928578 109.85595,39.1714794 L109.85595,39.1714794 Z M125.28192,22.9498566 L125.28192,27.7758513 C124.984425,27.7427964 124.71999,27.7207601 124.488605,27.7097418 C124.257221,27.6987235 124.069913,27.6932144 123.926675,27.6932144 C122.031526,27.6932144 120.75893,28.3102304 120.10885,29.5442809 C119.745246,30.2384343 119.563446,31.3071941 119.563446,32.7505925 L119.563446,41.3613571 L114.820089,41.3613571 L114.820089,23.3465137 L119.315536,23.3465137 L119.315536,26.4867157 C120.042744,25.2857202 120.676287,24.4648685 121.216184,24.0241362 C122.097649,23.2859096 123.243536,22.9168018 124.653879,22.9168018 C124.742026,22.9168018 124.816398,22.9195563 124.876999,22.9250655 C124.9376,22.9305746 125.072572,22.9388382 125.28192,22.9498566 Z M133.490102,41.3613571 L128.779799,41.3613571 L128.779799,17 L133.490102,17 L133.490102,41.3613571 Z M146.360253,23.6357428 C147.208663,24.1150392 147.897297,24.7788823 148.426176,25.627292 L148.426176,17.0330548 L153.202588,17.0330548 L153.202588,41.3613571 L148.624504,41.3613571 L148.624504,38.8657228 C147.952387,39.9344987 147.186626,40.7112778 146.327198,41.1960833 C145.46777,41.6808889 144.399011,41.923288 143.120887,41.923288 C141.01639,41.923288 139.245224,41.0721365 137.807334,39.3698079 C136.369445,37.6674793 135.650511,35.4831325 135.650511,32.816702 C135.650511,29.7425941 136.358427,27.3241118 137.77428,25.5611825 C139.190132,23.7982532 141.082498,22.9168018 143.451434,22.9168018 C144.542247,22.9168018 145.511843,23.1564464 146.360253,23.6357428 L146.360253,23.6357428 Z M148.558395,32.6183735 C148.558395,30.4147119 148.001978,28.8391175 146.889129,27.891543 C146.205994,27.318591 142.559268,26.6725708 141.476413,28.5939566 C140.393557,30.5153424 140.509561,30.9270639 140.509561,32.469627 C140.509561,34.1333915 140.837351,35.4638323 141.49294,36.4609891 C142.148529,37.458146 143.142917,37.956717 144.476132,37.956717 C145.809347,37.956717 146.823016,37.4609006 147.51717,36.4692528 C148.211323,35.4776051 148.558395,34.1939915 148.558395,32.6183735 Z" id="Macworld-2" sketch:type="MSShapeGroup"></path>
        </g>
    </g>
</svg>