<?xml version="1.0" encoding="UTF-8" standalone="no"?>
<svg width="159px" height="57px" viewBox="0 0 159 57" version="1.1" xmlns="http://www.w3.org/2000/svg" xmlns:xlink="http://www.w3.org/1999/xlink" xmlns:sketch="http://www.bohemiancoding.com/sketch/ns">
    <!-- Generator: Sketch 3.1.1 (8761) - http://www.bohemiancoding.com/sketch -->
    <title>logo_appstorm</title>
    <desc>Created with Sketch.</desc>
    <defs></defs>
    <g id="Page-1" stroke="none" stroke-width="1" fill="none" fill-rule="evenodd" sketch:type="MSPage">
        <g id="appstorm" sketch:type="MSLayerGroup" fill="#42A655">
            <path d="M85.0578773,23.954357 C84.0643339,22.553942 81.8139584,22.1240352 80.9070505,22.1240352 C80.4884776,22.1240352 80.069911,22.1755639 79.6513381,22.2786228 C79.2327652,22.3816817 78.860706,22.54915 78.5351493,22.7810325 C78.2095926,23.0129151 77.9479885,23.309205 77.7503291,23.6699112 C77.5526697,24.0306174 77.4538415,24.455729 77.4538415,24.9452589 C77.4538415,25.7954949 77.7677664,26.4460446 78.3956257,26.8969273 C79.0234851,27.3478101 80.0117673,27.7278341 81.3605021,28.0370108 C83.2905882,28.4750112 84.7148773,29.1126787 85.6334123,29.9500324 C86.5519472,30.787386 87.0112078,31.914576 87.0112078,33.3316361 C87.0112078,34.3622252 86.8309916,35.2317717 86.4705538,35.9403018 C86.1101161,36.6488318 85.6392287,37.2285295 85.0578774,37.6794123 C84.4765262,38.130295 83.8196092,38.4523493 83.0871066,38.6455847 C82.3546041,38.8388202 81.6162991,38.9354365 80.8721696,38.9354365 C79.639705,38.9354365 78.4421394,38.6520287 77.279437,38.0852047 C76.1167345,37.5183807 75.1633328,36.6295109 74.4192032,35.4185686 L76.3027718,33.8726927 C76.7213447,34.6713992 77.3375677,35.3412721 78.1514594,35.8823314 C78.9653512,36.4233907 79.8606186,36.6939163 80.8372887,36.6939163 C81.3488777,36.6939163 81.8372054,36.6423876 82.3022864,36.5393287 C82.7673674,36.4362698 83.1743071,36.2559194 83.5231179,35.9982721 C83.8719286,35.7406248 84.150973,35.4121295 84.3602595,35.0127762 C84.5695459,34.6134229 84.6741875,34.1174593 84.6741875,33.5248706 C84.6741875,32.5715756 84.2614344,31.8566151 83.4359156,31.3799676 C82.6103969,30.9033202 81.4186448,30.4588853 79.8606235,30.0466496 C79.3722885,29.917826 78.8548936,29.7567988 78.3084235,29.5635634 C77.7619533,29.3703279 77.2561854,29.0869201 76.7911044,28.7133316 C76.3260234,28.339743 75.9423373,27.8695438 75.6400347,27.3027198 C75.3377321,26.7358957 75.186583,26.0273763 75.186583,25.1771403 C75.186583,24.2496101 75.3493589,23.4573565 75.6749156,22.800356 C76.0004723,22.1433554 76.4364792,21.6023042 76.9829493,21.1771862 C77.5294195,20.7520682 78.1514559,20.436455 78.8490774,20.2303372 C79.5466989,20.0242193 80.2675636,19.921162 81.0116932,19.921162 C82.1511416,19.921162 85.9357105,21.2480338 86.4705536,22.2786229 C86.4705536,22.2786229 86.0514208,25.354772 85.0578773,23.954357 Z M97.9548085,23.0881408 L92.7879347,23.0881408 L92.7879347,33.3265665 C92.7879347,33.9766285 92.846069,34.5141717 92.9623392,34.9392123 C93.0786095,35.3642528 93.2471988,35.6955295 93.4681123,35.9330521 C93.6890257,36.1705748 93.9506298,36.3330879 94.2529325,36.4205962 C94.5552351,36.5081046 94.8807869,36.5518581 95.2295977,36.5518581 C95.5551543,36.5518581 95.8981464,36.5018541 96.2585842,36.4018445 C96.6190219,36.301835 97.5246092,36.1643239 97.8501658,35.9893072 L97.9548085,38.2020073 C97.5362357,38.377024 96.5376336,38.5082845 96.0841797,38.5957929 C95.6307257,38.6833012 95.1365846,38.7270547 94.6017415,38.7270547 C94.1599145,38.7270547 93.6948405,38.6645497 93.2065055,38.5395378 C92.7181705,38.4145259 92.2647233,38.1770068 91.8461505,37.8269734 C91.4275776,37.47694 91.0845855,37.0019018 90.8171639,36.4018445 C90.5497424,35.8017873 90.4160336,35.0142239 90.4160336,34.0391309 L90.4160336,23.0881408 L87.5951815,23.0881408 L87.5951815,20.9504476 L90.4160336,20.9504476 L90.4160336,16 L92.7879347,16 L92.7879347,20.9504476 L97.9548085,20.9504476 L97.9548085,23.0881408 Z M116.746612,29.7083822 C116.746612,31.0336839 116.531515,32.2589444 116.101315,33.3842006 C115.671115,34.5094567 115.072332,35.4846641 114.304949,36.3098519 C113.537565,37.1350398 112.619044,37.7789267 111.549358,38.241532 C110.479671,38.7041373 109.30536,38.9354365 108.026387,38.9354365 C106.770668,38.9354365 105.607983,38.7041373 104.538297,38.241532 C103.468611,37.7789267 102.55009,37.1350398 101.782706,36.3098519 C101.015322,35.4846641 100.41654,34.5094567 99.9863396,33.3842006 C99.5561397,32.2589444 99.341043,31.0336839 99.341043,29.7083822 C99.341043,28.3830805 99.5561397,27.15782 99.9863396,26.0325639 C100.41654,24.9073077 101.015322,23.9321003 101.782706,23.1069125 C102.55009,22.2817247 103.468611,21.6378377 104.538297,21.1752324 C105.607983,20.7126271 106.770668,20.481328 108.026387,20.481328 C109.30536,20.481328 110.479671,20.7126271 111.549358,21.1752324 C112.619044,21.6378377 113.537565,22.2817247 114.304949,23.1069125 C115.072332,23.9321003 115.671115,24.9073077 116.101315,26.0325639 C116.531515,27.15782 116.746612,28.3830805 116.746612,29.7083822 L116.746612,29.7083822 Z M114.235187,29.8316187 C114.235187,28.9286266 114.089851,28.077743 113.799176,27.2789423 C113.5085,26.4801416 113.095747,25.7855427 112.560904,25.1951248 C112.026061,24.6047069 111.374957,24.1358526 110.607573,23.788548 C109.84019,23.4412433 108.979803,23.2675936 108.026387,23.2675936 C107.072971,23.2675936 106.218397,23.4412433 105.462641,23.788548 C104.706884,24.1358526 104.061594,24.6047069 103.526751,25.1951248 C102.991908,25.7855427 102.579155,26.4801416 102.288479,27.2789423 C101.997803,28.077743 101.852468,28.9286266 101.852468,29.8316187 C101.852468,30.7346108 101.997803,31.5854945 102.288479,32.3842952 C102.579155,33.1830959 102.991908,33.8776948 103.526751,34.4681127 C104.061594,35.0585306 104.706884,35.5215965 105.462641,35.8573243 C106.218397,36.1930522 107.072971,36.3609136 108.026387,36.3609136 C108.979803,36.3609136 109.84019,36.1930522 110.607573,35.8573243 C111.374957,35.5215965 112.026061,35.0585306 112.560904,34.4681127 C113.095747,33.8776948 113.5085,33.1830959 113.799176,32.3842952 C114.089851,31.5854945 114.235187,30.7346108 114.235187,29.8316187 L114.235187,29.8316187 Z M119.588842,24.8027752 C119.588842,24.3267873 119.577215,23.7130227 119.553961,22.9614629 C119.530707,22.2099031 119.495827,21.5335094 119.449319,20.9322616 L121.716577,20.9322616 C121.763085,21.4082495 121.797966,21.9343334 121.82122,22.5105293 C121.844474,23.0867251 121.856101,23.5627059 121.856101,23.9384858 L121.925862,23.9384858 C122.390943,22.911354 123.088554,22.0783877 124.018716,21.4395619 C124.948878,20.8007361 125.995295,20.481328 127.157997,20.481328 C127.4603,20.481328 127.733531,20.4938538 127.977698,20.5189058 C128.221866,20.5439578 128.471843,20.594061 128.727638,20.669217 L128.41371,23.0741963 C128.274185,23.0240923 126.540268,22.9238852 124.852482,23.9384857 C123.164697,24.9530862 121.960743,28.3225568 121.960743,29.5000005 L121.960743,38.518673 L119.588842,38.518673 L119.588842,24.8027752 Z M132.883179,24.0290459 C133.364782,23.0082939 134.105235,22.1805013 135.104561,21.5456433 C136.103887,20.9107854 137.217577,20.5933612 138.445664,20.5933612 C138.903187,20.5933612 139.378763,20.6431532 139.872405,20.7427388 C140.366048,20.8423243 140.847644,21.0352685 141.317207,21.3215769 C141.78677,21.6078854 142.220206,21.9875497 142.617528,22.4605811 C143.01485,22.9336126 143.357987,23.543565 143.646949,24.2904567 C144.224872,23.09543 145.013485,22.1805013 146.012811,21.5456433 C147.012137,20.9107854 148.198066,20.5933612 149.570634,20.5933612 C151.713767,20.5933612 153.321092,21.2531056 154.392659,22.5726143 C155.464225,23.8921231 156,25.6348443 156,27.8008303 L156,38.518673 L153.543838,38.518673 L153.543838,28.8464735 C153.543838,27.0041405 153.212741,25.5228275 152.550537,24.4024899 C151.888333,23.2821523 150.762603,22.7219919 149.173314,22.7219919 C148.282349,22.7219919 147.529855,22.9087121 146.915812,23.2821579 C146.301768,23.6556038 145.808133,24.1473001 145.43489,24.7572617 C145.061648,25.3672233 144.790751,26.0580878 144.62219,26.8298759 C144.453629,27.601664 144.36935,28.3983366 144.36935,29.2199175 L144.36935,38.518673 L141.913187,38.518673 L141.913187,28.3236519 C141.913187,27.4771746 141.852988,26.705398 141.732587,26.0082991 C141.612186,25.3112002 141.401488,24.7199197 141.100487,24.2344401 C140.799485,23.7489605 140.384109,23.3755202 139.854345,23.1141081 C139.324582,22.852696 138.650348,22.7219919 137.831624,22.7219919 C137.2537,22.7219919 136.669766,22.85892 136.079802,23.1327803 C135.489839,23.4066406 134.960083,23.8236489 134.490521,24.3838177 C134.020958,24.9439865 133.641701,25.653523 133.35274,26.5124485 C133.063778,27.371374 132.919299,28.3858867 132.919299,29.5560171 L132.919299,38.518673 L130.463137,38.518673 L130.463137,24.8879671 C130.463137,24.4149357 130.451097,23.8049833 130.427017,23.0580915 C130.402937,22.3111998 130.366817,21.6390073 130.318657,21.041494 L132.666459,21.041494 C132.714619,21.5145254 132.750739,22.0373417 132.774819,22.6099587 C132.798899,23.1825757 132.810939,23.6556001 132.810939,24.0290459 L132.883179,24.0290459 Z M14.9725285,26.8554705 C14.9725285,25.3275304 14.5855415,24.1878545 13.811556,23.4364085 C13.0375705,22.6849626 11.9128897,22.3092453 10.4374798,22.3092452 C8.39528752,22.3092452 6.18698798,23.3281523 5.5823118,23.9543573 L4.45712138,22.3092452 C5.15854575,21.5828474 5.64241595,21.3574208 6.79130069,20.8815051 C7.94018543,20.4055893 9.24021972,20.167635 10.6914425,20.167635 C11.6105503,20.167635 12.4691776,20.2991361 13.2673502,20.5621421 C14.0655228,20.8251482 14.7669366,21.2196514 15.3716128,21.7456636 C15.976289,22.2716758 16.4479293,22.9354431 16.786548,23.7369854 C17.1251666,24.5385277 17.2944734,25.4778211 17.2944734,26.5548936 L17.2944734,34.257176 C17.2944734,34.9334774 17.3186601,35.6348164 17.3670342,36.3612141 C17.4154083,37.0876119 17.4879683,37.7012835 17.5847165,38.2022475 L15.3716128,38.2022475 C15.2990516,37.7764281 15.2385849,37.3130434 15.1902108,36.8120795 C15.1418367,36.3111155 15.1176501,35.822683 15.1176501,35.3467672 L15.0450893,35.3467672 C14.2711038,36.5240325 13.3943365,37.3693965 12.414761,37.8828846 C11.4351856,38.3963726 10.2560848,38.6531128 8.87742308,38.6531128 C8.22437281,38.6531128 7.55319231,38.5591835 6.86386147,38.371322 C6.17453062,38.1834605 5.54567683,37.8766247 4.97728122,37.4508053 C4.40888561,37.024986 3.93724527,36.4739339 3.56234604,35.7976325 C3.1874468,35.1213312 3,34.294753 3,33.3178733 C3,31.9652706 3.33256691,30.8944762 3.99771071,30.1054579 C4.66285451,29.3164397 5.55171516,28.7278159 6.66431933,28.3395688 C7.7769235,27.9513217 9.0527711,27.7008435 10.4919004,27.5881266 C11.9310297,27.4754097 13.4245575,27.4190521 14.9725285,27.4190521 L14.9725285,26.8554705 Z M14.0935107,29.8316187 C13.0841234,29.8316187 12.0687431,29.872137 11.0473393,29.9531748 C10.0259355,30.0342125 9.1006777,30.1962856 8.27153814,30.4393988 C7.44239859,30.6825121 6.76347565,31.0355999 6.23474898,31.4986727 C5.7060223,31.9617456 5.44166293,32.575308 5.44166293,33.3393782 C5.44166293,33.9182193 5.55581811,34.4044385 5.7841319,34.7980504 C6.0124457,35.1916624 6.31886224,35.5100202 6.70339073,35.7531335 C7.08791922,35.9962467 7.51449912,36.1698964 7.98314322,36.2740878 C8.45178732,36.3782792 8.92643255,36.4303742 9.40709317,36.4303742 C10.2722823,36.4303742 11.0413277,36.2856661 11.7142526,35.9962455 C12.3871774,35.706825 12.9519452,35.3132189 13.4085728,34.8154156 C13.8652004,34.3176123 14.2136741,33.7445682 14.4540044,33.0962662 C14.6943347,32.4479641 14.814498,31.7649419 14.814498,31.0471789 L14.814498,29.8316187 L14.0935107,29.8316187 Z M23.470587,43 L21.0986858,43 L21.0986858,20.5843985 L23.4705869,20.5843985 L23.4705869,23.3975521 L23.5752296,23.3975521 C24.2495971,22.3324845 25.1506779,21.5279075 26.2784993,20.9837969 C27.4063207,20.4396862 28.5515654,20.167635 29.7142679,20.167635 C30.9932405,20.167635 32.1501121,20.3875913 33.1849173,20.8275105 C34.2197225,21.2674298 35.1033631,21.8694155 35.8358656,22.6334857 C36.5683682,23.3975559 37.1380838,24.3005345 37.5450297,25.3424485 C37.9519755,26.3843624 38.1554454,27.5072973 38.1554454,28.7112867 C38.1554454,29.9152762 38.1554459,39.078838 29.7142679,39.078838 C24.8725741,39.078838 24.249597,36.1764375 23.5752296,35.1576771 L23.470587,43 Z M35.1635644,29.7082871 C35.1635644,28.7811112 35.0294254,27.9074393 34.7611434,27.0872452 C34.4928614,26.2670511 34.1072118,25.5538495 33.6041831,24.9476191 C33.1011543,24.3413887 32.4807615,23.8599776 31.7429859,23.5033715 C31.0052104,23.1467654 30.1668417,22.968465 29.2278547,22.968465 C28.3559382,22.968465 27.5511042,23.140822 26.8133287,23.4855413 C26.0755532,23.8302605 25.438393,24.3057282 24.901829,24.9119587 C24.365265,25.5181891 23.9460806,26.2313906 23.6442634,27.0515847 C23.3424461,27.8717788 23.1915397,28.7573374 23.1915397,29.7082871 C23.1915397,30.6592368 23.3424461,31.5447954 23.6442634,32.3649895 C23.9460806,33.1851836 24.365265,33.8924418 24.901829,34.4867854 C25.438393,35.0811289 26.0755532,35.5506533 26.8133287,35.8953725 C27.5511042,36.2400918 28.3559382,36.4124488 29.2278547,36.4124488 C30.1668417,36.4124488 31.0052104,36.2400918 31.7429859,35.8953725 C32.4807615,35.5506533 33.1011543,35.0751856 33.6041831,34.4689552 C34.1072118,33.8627247 34.4928614,33.1495232 34.7611434,32.3293291 C35.0294254,31.509135 35.1635644,30.6354631 35.1635644,29.7082871 L35.1635644,29.7082871 Z M43.161417,43 L40.7895159,43 L40.7895159,20.5843985 L43.161417,20.5843985 L43.161417,23.3975521 L43.2660597,23.3975521 C43.9404271,22.3324845 44.841508,21.5279075 45.9693294,20.9837969 C47.0971507,20.4396862 48.2423955,20.167635 49.4050979,20.167635 C50.6840706,20.167635 51.8409422,20.3875913 52.8757474,20.8275105 C53.9105525,21.2674298 54.7941932,21.8694155 55.5266957,22.6334857 C56.2591982,23.3975559 56.8289139,24.3005345 57.2358597,25.3424485 C57.6428056,26.3843624 57.8462755,27.5072973 57.8462755,28.7112867 C57.8462755,29.9152762 57.8462759,39.078838 49.405098,39.078838 C44.5634042,39.078838 43.9404271,36.1764375 43.2660597,35.1576771 L43.161417,43 Z M54.8543945,29.7082871 C54.8543945,28.7811112 54.7202555,27.9074393 54.4519735,27.0872452 C54.1836915,26.2670511 53.7980419,25.5538495 53.2950131,24.9476191 C52.7919844,24.3413887 52.1715915,23.8599776 51.433816,23.5033715 C50.6960405,23.1467654 49.8576718,22.968465 48.9186848,22.968465 C48.0467683,22.968465 47.2419343,23.140822 46.5041588,23.4855413 C45.7663833,23.8302605 45.1292231,24.3057282 44.5926591,24.9119587 C44.056095,25.5181891 43.6369107,26.2313906 43.3350934,27.0515847 C43.0332762,27.8717788 42.8823698,28.7573374 42.8823698,29.7082871 C42.8823698,30.6592368 43.0332762,31.5447954 43.3350934,32.3649895 C43.6369107,33.1851836 44.056095,33.8924418 44.5926591,34.4867854 C45.1292231,35.0811289 45.7663833,35.5506533 46.5041588,35.8953725 C47.2419343,36.2400918 48.0467683,36.4124488 48.9186848,36.4124488 C49.8576718,36.4124488 50.6960405,36.2400918 51.433816,35.8953725 C52.1715915,35.5506533 52.7919844,35.0751856 53.2950131,34.4689552 C53.7980419,33.8627247 54.1836915,33.1495232 54.4519735,32.3293291 C54.7202555,31.509135 54.8543945,30.6354631 54.8543945,29.7082871 L54.8543945,29.7082871 Z" sketch:type="MSShapeGroup"></path>
            <path d="M58.6150706,19.23631 L52.1188627,38.76369 C51.7079865,39.9987699 52.3968276,41 53.6531265,41 L71.3627512,41 C72.6209779,41 73.973875,39.9993054 74.3849294,38.76369 L80.8811373,19.23631 C81.2920135,18.0012301 80.6031724,17 79.3468735,17 L61.6372488,17 C60.3790221,17 59.026125,18.0006946 58.6150706,19.23631 Z M70.5008859,19.2325581 L61.3660893,26.4883721 L67.3607995,28.7209302 L62.5079389,38.4883721 L73.0700474,26.4883721 L67.6462619,24.5348837 L70.5008859,19.2325581 Z" id="Path" sketch:type="MSShapeGroup"></path>
        </g>
    </g>
</svg>