<?xml version="1.0" encoding="UTF-8" standalone="no"?>
<svg width="79px" height="57px" viewBox="0 0 79 57" version="1.1" xmlns="http://www.w3.org/2000/svg" xmlns:xlink="http://www.w3.org/1999/xlink" xmlns:sketch="http://www.bohemiancoding.com/sketch/ns">
    <!-- Generator: Sketch 3.1.1 (8761) - http://www.bohemiancoding.com/sketch -->
    <title>logo_tuaw</title>
    <desc>Created with Sketch.</desc>
    <defs></defs>
    <g id="Page-1" stroke="none" stroke-width="1" fill="none" fill-rule="evenodd" sketch:type="MSPage">
        <g id="TUAW" sketch:type="MSLayerGroup" fill="#42A655">
            <path d="M6.27388615,22.1694915 L2,22.1694915 L2,16.220339 L16.9586015,16.220339 L16.9586015,22.1694915 L12.6847154,22.1694915 L12.6847154,42 L6.27388615,42 L6.27388615,22.1694915 Z" id="Rectangle-2" sketch:type="MSShapeGroup"></path>
            <path d="M27.9994741,36.7118644 C26.9310025,36.7118644 25.862531,36.0508475 25.862531,35.720339 L25.862531,16.220339 L19.4517018,16.220339 L19.4517018,35.3898305 C19.6459296,39.0695908 22.9196919,42 26.9310025,42 C30.9423132,42 34.2160754,39.0695908 34.4019727,35.3898305 L34.4103033,16.220339 L27.9994741,16.220339 L27.9994741,28.1889322" id="Rectangle-4" sketch:type="MSShapeGroup"></path>
            <path d="M45.0950186,22.5 C45.0950186,21.9523956 44.6166476,21.5084746 44.0265471,21.5084746 C43.4364466,21.5084746 42.9580756,21.9523956 42.9580756,22.5 L42.9580756,29.5707882 L42.9580756,30.1016949 L45.0950186,30.1016949 L45.0950186,30.1016949 L45.0950186,29.5707882 L45.0950186,22.5000002 Z M36.5555769,22.8305085 L36.5472463,22.8305085 L36.5472463,42 L42.9580756,42 L42.9580756,35.3898305 L42.9580756,35.3898305 L45.0950186,35.3898305 L45.0950186,42 L51.5058479,42 L51.5058479,22.8305085 L51.4975173,22.8305085 C51.5030503,22.7209837 51.5058479,22.610795 51.5058479,22.5 C51.5058479,18.6667694 48.1572509,15.559322 44.0265471,15.559322 C39.8958434,15.559322 36.5472463,18.6667694 36.5472463,22.5 C36.5472463,22.610795 36.5500439,22.7209837 36.5555769,22.8305085 L36.5555769,22.8305085 Z" id="Rectangle-7" sketch:type="MSShapeGroup"></path>
            <path d="M60.0536202,36.059322 C60.0536202,36.6069264 60.5319912,37.0508475 61.1220917,37.0508475 C61.7121922,37.0508475 62.1905632,36.6069264 62.1905632,36.059322 L62.1905632,28.9885339 L62.1905632,16.559322 L68.6013924,16.559322 L68.6013924,35.7288136 L68.5930619,35.7288136 C68.5985949,35.8383384 68.6013924,35.948527 68.6013924,36.059322 C68.6013924,39.8925526 65.2527954,43 61.1220917,43 C56.9913879,43 53.6427909,39.8925526 53.6427909,36.059322 C53.6427909,35.948527 53.6455885,35.8383384 53.6511215,35.7288136 L53.6427909,35.7288136 L53.6427909,16.559322 L60.0536202,16.559322 L60.0536202,28.9885339 L60.0536202,36.059322 Z" id="Rectangle-11" sketch:type="MSShapeGroup"></path>
            <path d="M68.6013924,36.059322 C68.6013924,36.6069264 69.0797634,37.0508475 69.669864,37.0508475 C70.2599645,37.0508475 70.7383355,36.6069264 70.7383355,36.059322 L70.7383355,28.9885339 L70.7383355,16.559322 L77.1491647,16.559322 L77.1491647,35.7288136 L77.1408341,35.7288136 C77.1463672,35.8383384 77.1491647,35.948527 77.1491647,36.059322 C77.1491647,39.8925526 73.8005677,43 69.669864,43 C65.5391602,43 62.1905632,39.8925526 62.1905632,36.059322 C62.1905632,35.948527 62.1933607,35.8383384 62.1988938,35.7288136 L62.1905632,35.7288136 L62.1905632,16.559322 L68.6013924,16.559322 L68.6013924,28.9885339 L68.6013924,36.059322 Z" id="Rectangle-12" sketch:type="MSShapeGroup"></path>
            <path d="M27.2871597,12.2542373 C27.2871597,12.2542373 26.2186882,5.31355932 35.1226176,3 C35.4787748,10.2711862 27.2871597,12.2542373 27.2871597,12.2542373 Z" id="Path-3" sketch:type="MSShapeGroup"></path>
        </g>
    </g>
</svg>