<?xml version="1.0" encoding="UTF-8" standalone="no"?>
<svg width="50px" height="57px" viewBox="0 0 50 57" version="1.1" xmlns="http://www.w3.org/2000/svg" xmlns:xlink="http://www.w3.org/1999/xlink" xmlns:sketch="http://www.bohemiancoding.com/sketch/ns">
    <!-- Generator: Sketch 3.1.1 (8761) - http://www.bohemiancoding.com/sketch -->
    <title>logo_macgasm</title>
    <desc>Created with Sketch.</desc>
    <defs></defs>
    <g id="Page-1" stroke="none" stroke-width="1" fill="none" fill-rule="evenodd" sketch:type="MSPage">
        <g id="Macgasm" sketch:type="MSLayerGroup" fill="#42A655">
            <path d="M42.7942074,34.4578595 C50.5949908,25.5494258 47.7905145,12.1027731 42.7942074,7.6060966 C35.9607189,1.45595701 17.5103002,5.55605007 14.7769048,5.21437565 C12.0435094,4.87270122 2,1.45595701 2,1.45595701 C2,1.45595701 6.99016511,11.3645152 4.05004653,18.1980037 C2.20491025,22.4865101 3.67080739,32.6959795 10.6768117,38.4389753 L10.6768117,19.9063758 L10.6768117,18.4066625 L12.0267925,17.753446 C12.5611784,17.4948722 13.4341273,17.1335242 14.5466787,16.7762619 C16.4885685,16.1526826 18.4498033,15.784598 20.3478481,15.8100131 C22.5532441,15.8395436 24.5125507,16.4102148 26.0790792,17.5758299 C26.6097255,17.3415823 27.3373693,17.0576548 28.2136555,16.7762619 C30.1555454,16.1526826 32.1167801,15.784598 34.0148249,15.8100131 C37.9327192,15.8624742 41.0739634,17.6227563 42.6161364,21.3925126 L42.7942074,21.827797 L42.7942074,22.2980967 L42.7942074,34.4578595 Z M38.0107655,38.4473155 C35.6771188,39.8700013 32.8530113,41.015903 29.4689049,41.7735387 C29.3545792,41.799134 29.2406881,41.8240561 29.1272305,41.8483102 L29.1272305,21.6147477 C29.3390426,21.5381316 29.4482985,21.4038149 29.676158,21.3306447 C31.1651394,20.8525033 32.6411276,20.5754898 33.9507797,20.5930262 C36.0886358,20.6216524 37.4430436,21.3806319 38.1888364,23.2036808 L38.0107655,22.2980967 L38.0107655,38.4473155 Z M24.3437886,42.5047206 C20.9151503,42.6925737 17.9687085,42.1977423 15.4602536,41.2262414 L15.4602536,21.6147477 C16.6898784,21.2763355 17.1686257,20.6934625 20.2838028,20.5930262 C22.2601818,20.5293058 23.5685848,21.2709361 24.3437886,22.8114624 L24.3437886,42.5047206 Z" id="Path-11" sketch:type="MSShapeGroup"></path>
        </g>
    </g>
</svg>