<?xml version="1.0" encoding="UTF-8" standalone="no"?>
<svg width="213px" height="57px" viewBox="0 0 213 57" version="1.1" xmlns="http://www.w3.org/2000/svg" xmlns:xlink="http://www.w3.org/1999/xlink" xmlns:sketch="http://www.bohemiancoding.com/sketch/ns">
    <!-- Generator: Sketch 3.1.1 (8761) - http://www.bohemiancoding.com/sketch -->
    <title>logo_macstories</title>
    <desc>Created with Sketch.</desc>
    <defs></defs>
    <g id="Page-1" stroke="none" stroke-width="1" fill="none" fill-rule="evenodd" sketch:type="MSPage">
        <g id="Macstories" sketch:type="MSLayerGroup" fill="#42A655">
            <path d="M30,55 C44.3594035,55 56,43.3594035 56,29 C56,14.6405965 44.3594035,3 30,3 C15.6405965,3 4,14.6405965 4,29 C4,43.3594035 15.6405965,55 30,55 Z M17.9512195,12.5121951 L17.9512195,45.4878049 L30,37.8780488 L42.0487805,45.4878049 L42.0487805,12.5121951 L17.9512195,12.5121951 Z M66.4634146,40.097561 L66.4634146,17.2660909 L70.5853659,17.2682927 L75.3414634,32.1707317 L80.7317073,17.2682927 L84.5365854,17.2682927 L84.5365854,40.097561 L80.4146341,40.097561 L80.4146341,28.9954713 L76.9268293,40.097561 L74.0731707,40.097561 L70.5853659,28.6829268 L70.5853659,40.097561 L66.4634146,40.097561 Z M101.024391,40.4146345 L101.02439,28.6829268 C101.02439,28.6829268 101.341463,23.2926829 94.3658537,23.6097561 C94.0487805,24.5609756 94.0487805,25.8292683 94.0487805,25.8292683 C94.0487805,25.8292683 97.5365854,25.8292686 97.5365854,28.0487805 C96.5853659,27.7317073 89.3158751,24.5997422 88.6585366,32.4878046 C88.0243902,40.0975613 93.097561,40.4146341 93.097561,40.4146341 L101.024391,40.4146345 Z M97.5365854,36.9268293 L97.5365854,32.1707317 C97.5365854,32.1707317 93.7317073,29.6341464 92.4634146,31.5365854 C91.5121951,36.609756 94.0487805,37.2439024 94.0487805,37.2439024 L97.5365854,36.9268293 Z M115.609756,40.097561 C115.609756,40.097561 115.292683,37.5609758 114.658537,36.2926829 C114.658537,36.2926829 108.634146,39.1463415 108.317073,32.804878 C108,26.4634146 111.804878,26.4634146 114.341463,27.4146341 C115.292683,25.195122 114.97561,24.5609756 114.97561,24.5609756 C114.97561,24.5609756 106.414634,20.7560976 105.146341,29.9512194 C103.124976,44.6061191 115.609756,40.097561 115.609756,40.097561 Z M129.878049,21.3902439 L131.146341,17.5853659 C131.146341,17.5853659 120.823009,14.9471183 119.414634,21.7073172 C117.829268,29.3170734 131.146341,29.0000001 130.195122,34.0731707 C129.59718,37.2621932 123.536585,38.512195 122.585366,34.0731707 C120.365854,34.3902439 118.780488,34.3902439 118.780488,34.3902439 C118.780488,34.3902439 119.731707,40.7317086 126.073171,40.7317073 C132.414634,40.7317061 133.823796,35.9586512 134,33.7560976 C134.634146,25.8292683 123.219512,26.4634146 123.219512,22.9756098 C123.219512,18.2195122 129.878049,21.3902439 129.878049,21.3902439 Z M137.804878,17.2682927 L141.134146,17.2682927 L141.134146,23.9268293 L144.463415,23.9268293 L143.829268,26.7804878 L141.134146,26.7804878 L141.134146,36.6097561 C141.134146,38.195122 143.512195,37.8780488 143.512195,37.8780488 L142.560976,40.7317073 C142.560976,40.7317073 138.121951,40.7317073 137.804878,36.9268293 L137.804878,17.2682927 Z M147.634146,35.3414631 L147.634146,28.3658537 C147.634146,22.3414637 159.04878,22.3414632 159.04878,28.0487804 C159.04878,28.0487804 159.052099,30.898414 159.04878,35.0243899 C159.042914,42.3170728 147.634146,41.9999997 147.634146,35.3414631 Z M150.647079,34.3902437 L150.647079,30.3426231 C150.647079,26.1463415 156.036626,25.8292683 156.036626,30.1929134 C156.036626,30.1929134 156.036627,32.7591889 156.036626,34.7073169 C156.036626,38.1951224 150.647079,38.1951224 150.647079,34.3902437 Z M163.487805,40.097561 L166.97561,40.097561 L166.97561,29 C166.97561,29 167.609756,25.8292683 171.731707,27.4146341 C172.365854,25.5121952 172.365854,23.9268293 172.365854,23.9268293 C172.365854,23.9268293 167.609756,23.2926829 166.341463,24.2439025 C165.073171,24.2439025 163.487805,23.9268293 163.487805,23.9268293 L163.487805,40.097561 Z M175.536585,40.097561 L175.536585,24.2439024 C175.536585,24.2439024 176.743091,23.9268293 177.280488,23.9268293 C177.905693,23.9268293 179.02439,24.2439024 179.02439,24.2439024 L179.02439,40.097561 L175.536585,40.097561 Z M177.121951,20.7560976 C178.172639,20.7560976 179.02439,19.9043466 179.02439,18.8536585 C179.02439,17.8029705 178.172639,16.9512195 177.121951,16.9512195 C176.071263,16.9512195 175.219512,17.8029705 175.219512,18.8536585 C175.219512,19.9043466 176.071263,20.7560976 177.121951,20.7560976 Z M183.463415,36.9268293 C183.463415,36.9268293 185.365854,43.5853659 194.243902,39.1463415 C194.243902,37.5609752 192.97561,36.2926829 192.97561,36.2926829 C192.97561,36.2926829 186.95122,39.4634142 186.634146,34.3902439 L195.195122,33.7560976 L195.195122,27.7317072 C195.195122,27.7317072 192.97561,23.2926829 188.853659,23.6097561 C184.731707,23.9268293 183.463415,27.7317073 183.463415,27.7317073 L183.463415,36.9268293 Z M186.95122,31.5365854 L191.707317,30.902439 C191.707317,30.902439 192.341463,27.097561 189.487805,27.097561 C186.634146,27.097561 186.95122,31.5365854 186.95122,31.5365854 Z M206.609756,27.4146341 L207.878049,24.2439024 C207.878049,24.2439024 199,22.3414634 198.682927,27.7317073 C198.365854,33.1219513 206.609756,32.1707314 206.609756,35.6585363 C206.609756,38.5121948 201.853659,38.1951217 201.536585,35.9756095 L198.04878,36.2926829 C198.04878,36.2926829 198.682927,40.7317076 203.756098,40.7317073 C208.829268,40.731707 210.414634,37.2438962 210.414634,35.9756098 C210.414634,29.6341461 202.487805,29.9512192 202.487805,28.3658537 C202.487805,26.1463415 206.609756,27.4146341 206.609756,27.4146341 Z" sketch:type="MSShapeGroup"></path>
        </g>
    </g>
</svg>