<?xml version="1.0" encoding="utf-8"?>
<!-- Generator: Adobe Illustrator 16.0.0, SVG Export Plug-In . SVG Version: 6.00 Build 0)  -->
<!DOCTYPE svg PUBLIC "-//W3C//DTD SVG 1.1//EN" "http://www.w3.org/Graphics/SVG/1.1/DTD/svg11.dtd">
<svg version="1.1" id="Слой_1" xmlns="http://www.w3.org/2000/svg" xmlns:xlink="http://www.w3.org/1999/xlink" x="0px" y="0px"
	 width="72px" height="57px" viewBox="0 0 72 57" enable-background="new 0 0 72 57" xml:space="preserve">
<style>
	.mac {
		fill: #fff;
	}
</style>
<g id="imac">
	<path class="mac" fill="#0D0F0F" d="M70.484,44.797h-1.125c0.002,0.481-0.051,0.852-0.131,1.108c-0.131,0.39-0.248,0.518-0.484,0.665
		c-0.24,0.141-0.699,0.264-1.426,0.262H5.209c-0.481,0.001-0.853-0.051-1.111-0.131c-0.391-0.131-0.52-0.248-0.667-0.482
		c-0.141-0.238-0.265-0.696-0.263-1.422V5.604C3.167,5.123,3.22,4.753,3.3,4.495c0.131-0.39,0.248-0.518,0.483-0.664
		c0.24-0.142,0.699-0.265,1.426-0.263h62.109c0.482,0,0.854,0.052,1.111,0.131c0.391,0.13,0.52,0.248,0.668,0.482
		c0.141,0.239,0.264,0.696,0.262,1.422v39.193H70.484h1.125V5.604c0-0.636-0.064-1.22-0.229-1.765
		c-0.236-0.813-0.773-1.548-1.52-1.962c-0.742-0.42-1.594-0.557-2.543-0.559H5.209c-0.636,0-1.22,0.064-1.764,0.228
		C2.632,1.781,1.897,2.315,1.481,3.062C1.059,3.803,0.92,4.654,0.918,5.604v39.193c0.001,0.637,0.064,1.221,0.229,1.765
		c0.236,0.813,0.773,1.548,1.52,1.962c0.742,0.42,1.592,0.557,2.542,0.559h62.109c0.637,0,1.221-0.063,1.764-0.228
		c0.814-0.235,1.549-0.77,1.965-1.515c0.422-0.742,0.561-1.592,0.563-2.543H70.484z"/>
	<polyline class="mac" fill="#0D0F0F" points="69.982,38.426 2.546,38.426 2.546,40.676 69.982,40.676 	"/>
	<path class="mac" fill="#0D0F0F" d="M41.664,48.024l-0.004,0.12c0,0.279,0.037,1.002,0.371,1.972c0.332,0.969,0.965,2.181,2.121,3.41
		c0.119,0.126,0.18,0.219,0.197,0.255l0.008,0.016l0.104-0.04l-0.109,0.022l0.006,0.018l0.104-0.04l-0.109,0.022l0.318-0.064h-0.324
		l0.006,0.064l0.318-0.064h-0.324h0.418l-0.385-0.164l-0.033,0.164h0.418l-0.385-0.164l0.24,0.102l-0.197-0.174l-0.043,0.072
		l0.24,0.102l-0.197-0.174l-0.006,0.005c-0.041,0.052-0.377,0.235-0.873,0.359c-0.744,0.201-1.83,0.339-2.971,0.413
		c-1.143,0.076-2.348,0.096-3.391,0.096h-1.834c-1.631,0.001-3.672-0.053-5.223-0.283c-0.771-0.11-1.423-0.278-1.768-0.441
		l-0.193-0.104l-0.056-0.042l-0.002-0.003l-0.192,0.174l0.236-0.099l-0.044-0.075l-0.192,0.174l0.236-0.099l-0.386,0.162h0.418
		l-0.032-0.162l-0.386,0.162h0.418h-0.294l0.285,0.076l0.009-0.076h-0.294l0.285,0.076l-0.009-0.003l0.009,0.004v-0.001
		l-0.009-0.003l0.009,0.004c0.01-0.024,0.067-0.124,0.202-0.265v-0.002c1.265-1.344,1.937-2.655,2.282-3.646
		c0.348-0.992,0.374-1.662,0.377-1.758l-2.25-0.053l0.343,0.009l-0.342-0.02l-0.001,0.011l0.343,0.009l-0.342-0.02
		c-0.009,0.071-0.111,1.863-2.049,3.927l0,0c-0.226,0.24-0.415,0.488-0.562,0.771c-0.144,0.281-0.243,0.608-0.243,0.959
		C25.925,54.217,26.16,54.697,26.45,55c0.254,0.274,0.54,0.459,0.838,0.609c0.521,0.26,1.102,0.422,1.741,0.553
		c1.905,0.381,4.384,0.437,6.318,0.439h1.834c1.682-0.001,3.785-0.047,5.551-0.307c0.889-0.135,1.688-0.31,2.379-0.623
		c0.346-0.162,0.676-0.359,0.967-0.672c0.291-0.303,0.523-0.783,0.518-1.285c0-0.351-0.1-0.678-0.244-0.959
		c-0.145-0.282-0.334-0.531-0.561-0.771c-0.932-0.992-1.393-1.908-1.633-2.6c-0.236-0.691-0.248-1.162-0.248-1.24v-0.008
		l-0.631-0.018l0.631,0.036v-0.019l-0.631-0.018l0.631,0.036L41.664,48.024z"/>
	<circle class="mac" fill-rule="evenodd" clip-rule="evenodd" fill="#0D0F0F" cx="36.45" cy="43.363" r="1.701"/>
</g>
</svg>
