<?xml version="1.0" encoding="utf-8"?>
<!-- Generator: Adobe Illustrator 16.0.0, SVG Export Plug-In . SVG Version: 6.00 Build 0)  -->
<!DOCTYPE svg PUBLIC "-//W3C//DTD SVG 1.1//EN" "http://www.w3.org/Graphics/SVG/1.1/DTD/svg11.dtd">
<svg version="1.1" id="Слой_1" xmlns="http://www.w3.org/2000/svg" xmlns:xlink="http://www.w3.org/1999/xlink" x="0px" y="0px"
	 width="71px" height="60px" viewBox="0 0 71 60" enable-background="new 0 0 71 60" xml:space="preserve">
<g id="manual">
	<g>
		<path fill="#0D0F0F" d="M8.3,4.773L8.3,4.773c1.851,0,5.3,0.431,11.22,2.483c11.057,3.832,14.236,7.573,14.245,7.582
			c0.437,0.564,1.076,0.952,1.774,0.952c0.066,0,0.133-0.003,0.199-0.011c0.76-0.08,1.386-0.464,1.728-1.141
			c0.299-0.375,3.044-3.52,13.708-7.216c6.307-2.187,9.841-2.646,11.694-2.646c0.203,0,0.384,0.005,0.545,0.015v35.732
			c-0.215-0.009-0.44-0.014-0.679-0.014c-3.279,0-7.654,0.895-13.003,2.658c-7.952,2.623-12.137,5.372-14.22,7.164
			c-2.167-1.76-6.506-4.546-14.528-7.286c-5.147-1.759-9.366-2.65-12.54-2.65c-0.305,0-0.591,0.009-0.86,0.023V4.798
			C7.791,4.783,8.028,4.773,8.3,4.773 M8.3,2.523c-2.248,0-2.965,0.535-2.965,0.535v40.17c0,0,0.739-0.582,3.11-0.582
			c2.236,0,5.924,0.518,11.812,2.529c12.131,4.145,15.321,8.314,15.321,8.314s2.682-4.168,14.859-8.185
			c6.195-2.043,10.027-2.545,12.298-2.545c2.192,0,2.929,0.468,2.929,0.468V3.058c0,0-0.622-0.531-2.795-0.531
			c-2.211,0-6.029,0.55-12.432,2.77c-12.693,4.4-14.893,8.166-14.893,8.166s-3.206-4.144-15.288-8.332
			C14.247,3.047,10.524,2.523,8.3,2.523L8.3,2.523z"/>
	</g>
	
		<path fill="none" stroke="#0D0F0F" stroke-width="2.25" stroke-linecap="round" stroke-linejoin="round" stroke-miterlimit="10" d="
		M64.771,7.645c3.881-0.357,4.904,0.515,4.904,0.515v39.002c0,0-3.455-2.197-17.248,2.354c-13.799,4.551-16.84,9.274-16.84,9.274
		s-3.613-4.726-17.355-9.421C4.487,44.674,1.325,47.162,1.325,47.162V8.16c0,0,1.036-0.771,4.431-0.573"/>
	
		<line fill="none" stroke="#0D0F0F" stroke-width="2.25" stroke-linecap="round" stroke-linejoin="round" stroke-miterlimit="10" x1="35.498" y1="51.034" x2="35.498" y2="14.333"/>
</g>
</svg>
