<?xml version="1.0" encoding="UTF-8" standalone="no"?>
<svg width="796px" height="370px" viewBox="0 0 796 370" version="1.1" xmlns="http://www.w3.org/2000/svg" xmlns:xlink="http://www.w3.org/1999/xlink" xmlns:sketch="http://www.bohemiancoding.com/sketch/ns">
    <!-- Generator: Sketch 3.0.4 (8053) - http://www.bohemiancoding.com/sketch -->
    <title>Slice 2</title>
    <desc>Created with Sketch.</desc>
    <defs></defs>
    <style>
	.map {
		fill: #2b2b37;
	}
	</style>
    <g id="Page-1" stroke="none" stroke-width="1" fill="none" fill-rule="evenodd" sketch:type="MSPage">
        <path class="map" d="M791.118,319.472 C792.029,319.398 793.257,318.579 794.025,319.321 C793.469,320.648 792.469,321.933 791.118,322.546 C790.481,322.833 789.647,322.729 788.979,323.008 C787.708,323.536 787.037,324.864 785.921,325.776 C784.867,326.637 783.485,327.371 782.403,328.081 C781.361,328.765 779.855,330.154 778.581,329.157 C778.678,327.355 780.585,327.379 781.029,325.927 C781.025,324.852 780.079,324.732 780.11,323.622 C782.234,321.754 785.566,320.411 786.072,316.553 C786.299,314.845 784.921,311.178 786.991,311.018 C789.423,310.832 788.049,313.479 788.214,314.861 C788.28,315.42 788.848,315.797 789.129,316.553 C789.635,317.9 789.593,319.123 791.118,319.472 L791.118,319.472 Z M776.288,328.695 C775.435,331.26 771.72,332.603 769.253,334.229 C768.497,334.73 767.879,335.863 766.96,336.224 C765.767,336.698 764.412,336.547 763.138,337.148 C761.122,338.103 759.604,339.97 757.786,341.146 C756.01,342.295 753.415,343.909 751.365,344.065 C749.103,344.236 744.925,342.773 747.697,340.684 C748.898,339.78 751.443,338.724 752.744,338.072 C757.091,335.879 763.207,334.404 766.809,331.768 C768.844,330.282 770.686,328.702 772.62,327.464 C773.581,326.847 775.211,328.512 776.288,328.695 L776.288,328.695 Z M749.837,225.867 C750.327,225.736 750.311,226.108 750.601,226.174 C750.419,228.371 749.107,229.807 746.319,229.555 C745.072,229.442 742.894,228.503 742.805,227.867 C742.489,225.658 748.439,227.02 749.837,225.867 L749.837,225.867 Z M742.346,236.32 C743.447,236.635 748.358,240.124 746.778,241.696 C745.918,242.558 744.817,241.238 743.416,240.931 C741.547,240.516 740.11,241.017 738.829,240.007 C737.377,238.863 737.022,236.367 735.466,234.934 C734.678,234.212 732.593,233.242 731.184,233.398 C728.759,233.662 728.782,236.46 726.597,237.702 C724.508,237.473 723.277,238.086 721.705,237.547 C720.049,236.98 719.223,234.826 717.729,234.628 C716.173,234.418 712.493,237.147 711.918,234.783 C711.454,232.87 714.485,232.241 714.67,230.94 C714.864,229.605 713.482,227.529 712.836,226.943 C712.196,226.36 711.296,226.314 710.543,225.867 C709.763,225.398 709.154,224.497 708.25,224.02 C705.046,222.343 700.154,223.026 698.922,220.333 C698.705,219.855 699.042,219.331 698.771,218.644 C698.435,217.798 697.207,217.53 696.783,216.796 C695.698,214.926 696.455,212.154 698.312,211.879 C699.984,211.63 703.281,213.703 703.663,214.953 C703.864,215.613 703.524,216.35 703.663,217.107 C703.833,218.015 705.188,220.232 706.416,220.333 C707.999,220.464 708.93,218.004 710.389,217.107 C711.396,216.486 713.046,215.772 714.366,215.877 C715.667,215.978 716.54,217.002 718.033,217.565 C719.103,217.969 720.435,218.128 721.705,218.489 C722.81,218.803 723.775,219.455 724.914,219.871 C728.551,221.195 732.883,221.975 734.852,224.33 C735.389,224.971 735.373,225.926 736.076,226.636 C736.724,227.288 740.261,227.932 740.358,229.404 C740.431,230.522 738.898,230.587 738.829,231.709 C738.69,233.949 741.813,233.813 742.346,236.32 L742.346,236.32 Z M745.099,283.814 C745.404,285.346 744.3,286.399 744.026,287.656 C743.697,289.182 744.022,291.153 743.416,292.729 C742.705,294.577 740.96,296.393 739.593,298.722 C738.474,300.635 736.948,302.79 735.312,304.102 C734.346,304.878 733.196,305.328 732.254,306.101 C730.787,307.304 729.589,308.857 728.281,310.25 C726.902,311.717 725.231,312.835 724.149,314.093 C722.578,315.921 721.794,318.871 719.107,319.166 C717.532,319.34 716.119,319.201 714.67,319.779 C712.404,320.687 710.906,322.352 709.779,322.395 C708.597,322.434 707.505,320.998 706.416,320.858 C705.192,320.698 704.231,321.789 702.439,321.778 C701.713,321.774 701.343,321.343 700.3,321.009 C698.119,320.311 695.717,320.342 695.408,317.935 C695.235,316.627 696.239,316.037 696.173,314.861 C696.104,313.689 694.961,313.394 694.489,312.4 C694.791,311.341 694.841,310.005 693.725,309.326 C693.687,308.368 693.926,307.688 694.335,307.175 C693.447,307.556 692.281,307.793 691.277,308.406 C690.165,309.085 689.362,310.634 688.069,310.405 C686.864,309.978 687.787,308.771 687.609,307.793 C687.474,307.048 685.787,303.869 685.011,303.333 C684.126,302.728 680.891,301.505 679.81,301.334 C675.088,300.593 672.076,303.132 668.343,303.489 C667.385,303.578 666.339,303.329 665.44,303.489 C662.37,304.032 658.946,306.485 657.031,308.1 C653.868,308.414 650.66,307.447 647.398,308.406 C644.158,309.357 642.297,312.074 637.309,311.325 C636.32,310.471 634.563,310.048 634.556,308.561 C634.548,307.389 636.285,306.628 636.849,305.794 C637.455,304.897 638.486,302.782 638.529,301.489 C638.563,300.468 637.845,299.246 637.919,297.954 C637.977,296.952 638.536,295.873 638.529,294.879 C638.521,293.521 637.675,292.322 637.459,290.885 C637.382,290.365 637.533,289.694 637.459,289.038 C637.355,288.083 636.888,287.295 637,286.733 C637.208,285.715 638.39,285.606 638.683,284.733 C639.166,283.301 638.096,283.072 638.073,281.352 C638.054,280.138 638.988,279.544 639.602,277.972 C639.884,277.238 639.896,275.88 640.212,275.36 C640.61,274.704 642.301,274.148 642.965,273.823 C645.309,272.666 647.185,270.516 649.54,270.135 C650.139,270.034 650.949,270.209 651.374,270.135 C652.76,269.891 654.505,268.722 656.42,268.288 C658.274,267.868 659.918,268.024 661.312,267.212 C662.845,266.324 665.019,263.991 665.594,262.602 C666.289,260.913 666.088,259.485 667.428,258.914 C668.088,258.63 668.733,258.937 669.416,258.759 C670.123,258.576 671.644,257.847 672.165,257.377 C673.231,256.418 673.408,254.846 674.614,253.841 C675.447,253.146 677.019,252.082 678.131,251.535 C678.787,251.209 679.999,250.868 680.575,250.922 C682.729,251.108 683.737,254.128 686.08,253.535 C686.918,253.321 687.772,251.528 688.528,250.46 C689.632,248.892 690.436,246.781 692.35,246.307 C693.895,245.93 695.629,246.909 696.478,245.542 C696.667,244.572 695.756,243.99 696.478,243.388 C698.258,243.5 701.273,245.919 703.968,246 C705.416,246.047 708.115,244.409 708.404,246.617 C708.532,247.596 707.315,248.383 707.026,249.385 C706.822,250.091 707.331,250.472 706.876,251.229 C705.632,251.722 704.312,251.982 704.273,253.379 C704.231,255.13 706.744,255.956 708.25,256.915 C709.281,257.571 710.146,258.58 710.698,258.914 C711.165,259.193 711.914,259.325 712.227,259.527 C713.215,260.175 713.922,261.643 715.285,261.681 C716.841,261.72 718.389,259.729 719.258,257.835 C720.277,255.619 720.331,252.937 720.786,250.612 C720.941,249.835 721.49,249.079 721.705,248.306 C722.296,246.206 723.095,243.365 724.914,242.62 C726.74,244.564 727.358,248.345 727.057,251.535 C728.281,252.471 730.427,252.161 730.724,254.303 C730.829,255.048 730.358,255.991 730.42,256.76 C730.524,258.053 731.478,259.19 731.643,260.296 C731.949,262.341 731.308,264.034 732.254,265.52 C733.447,267.402 735.786,267.337 737.3,269.367 C737.269,270.632 737.771,271.14 738.065,272.13 C738.203,272.596 738.072,273.361 738.219,273.668 C738.709,274.7 740.033,274.801 740.512,275.666 C740.744,276.089 740.682,276.896 740.968,277.666 C741.388,278.795 742.396,279.633 743.111,280.739 C743.798,281.807 744.929,282.967 745.099,283.814 L745.099,283.814 Z M724.458,24.359 C729.076,24.39 734.512,26.323 734.087,30.662 C728.679,31.854 724.157,26.921 718.493,28.357 C717.589,28.586 716.586,29.583 716.659,30.507 C716.872,33.185 723.582,32.96 724.149,35.58 C723.049,36.407 721.845,35.627 720.941,35.735 C719.562,35.898 717.238,37.362 716.354,38.192 C715.32,39.166 714.412,41.663 713.296,41.884 C711.929,42.151 709.844,40.529 707.791,40.96 C707.037,41.119 706.316,42.062 705.651,42.19 C703.964,42.512 701.818,41.267 700.76,43.265 C701.32,44.67 700.98,46.627 702.134,47.414 C702.884,47.927 703.818,47.531 704.733,47.877 C705.806,48.28 706.404,49.596 707.331,50.338 C708.091,50.939 708.899,50.955 709.32,51.719 C709.416,52.853 708.875,52.977 709.014,53.718 C709.253,55.007 711.254,55.298 711.308,56.175 C711.377,57.285 710.042,57.048 709.779,58.174 C709.686,58.888 710.605,59.078 710.698,60.018 C710.756,60.646 710.192,61.302 710.239,62.016 C710.304,63.041 711.107,63.724 711.003,64.629 C710.914,65.405 710.239,66.01 709.624,66.321 C706.698,64.431 704.061,61.827 700.91,59.404 C697.682,56.92 692.575,53.87 692.042,48.645 C692.026,47.845 693.733,47.217 694.03,46.033 C694.153,45.548 693.837,44.857 693.879,44.189 C693.984,42.384 695.466,40.649 695.408,39.578 C695.339,38.402 693.154,36.217 692.042,35.887 C691.154,36.356 692.034,37.288 691.891,38.041 C691.713,38.969 690.594,40.102 689.598,40.191 C686.706,40.444 686.381,36.446 681.798,37.579 C680.609,37.874 678.941,39.671 679.354,41.884 C679.478,42.555 681.319,43.277 681.188,44.189 C681.061,45.074 677.023,45.334 676.142,45.264 C673.671,45.066 672.401,43.211 670.181,43.265 C669.088,43.292 668.131,44.185 667.273,44.34 C662.455,45.225 655.312,41.957 653.667,46.184 C653.435,46.782 653.567,47.562 653.362,48.183 C653.065,49.072 652.359,49.771 652.138,50.338 C651.949,50.811 651.984,51.746 651.679,52.488 C651.401,53.159 648.509,55.783 651.069,56.486 C651.675,56.649 651.961,56.221 652.748,56.33 C654.065,56.509 656.251,58.628 657.795,58.636 C658.718,58.64 659.995,57.592 660.698,57.561 C662.115,57.491 663.138,58.411 664.216,58.943 C665.242,59.451 666.814,60.518 667.579,60.48 C669.023,60.406 668.336,59.401 669.721,58.943 C672.366,59.731 673.606,62.548 676.142,64.784 C677.061,65.591 678.42,66.286 679.66,67.396 C680.351,68.017 682.474,69.683 682.563,70.47 C682.648,71.204 681.972,71.518 681.798,72.162 C681.548,73.098 682.13,73.785 681.494,74.468 C679.05,73.56 678.505,71.142 676.752,69.089 C676.103,68.324 675.447,67.416 674.459,66.321 C674.015,65.828 672.393,64.097 671.401,64.477 C669.478,65.211 672.455,68.142 672.93,68.782 C673.945,70.137 675.289,71.961 675.378,73.393 C675.436,74.309 674.783,75.974 674.768,77.542 C674.756,78.602 675.034,79.565 674.918,80.461 C674.806,81.362 674.169,82.39 673.849,83.384 C673.486,84.509 673.405,85.856 673.084,86.61 C672.494,87.995 670.494,89.625 669.108,89.684 C667.837,89.738 667.293,88.701 666.049,88.763 C664.169,88.853 663.821,90.595 662.687,91.989 C662.787,93.503 663.258,94.023 662.992,95.063 C662.578,96.693 660.324,96.977 660.393,98.599 C660.459,100.101 662.459,100.392 663.451,101.06 C664.814,101.972 667.204,104.002 668.498,105.671 C669.351,106.766 670.575,108.811 670.486,109.972 C670.37,111.493 666.015,113.609 664.216,113.046 C662.505,112.514 663.092,110.872 662.687,109.359 C662.378,108.194 661.47,107.693 661.007,106.746 C660.764,106.249 660.88,105.461 660.547,104.903 C659.625,103.338 658.011,104.192 656.111,103.21 C654.865,102.566 655.227,101.211 654.737,99.981 C654.077,98.327 651.308,97.547 649.081,97.986 C647.447,98.304 646.938,99.686 645.409,99.981 C643.17,98.646 645.868,95.35 643.115,95.063 C641.008,94.842 639.613,98.106 638.378,99.061 C637.544,99.701 636.027,99.834 635.93,100.749 C635.752,102.446 637.714,102.1 639.293,102.748 C640.725,103.338 640.891,104.969 642.2,105.054 C643.293,105.128 644.019,103.921 645.104,103.824 C646.98,103.657 648.506,104.506 649.691,105.209 C648.922,107.072 644.811,108.439 644.799,110.895 C644.791,112.32 646.436,112.565 647.702,113.507 C648.772,114.303 650.177,116.551 651.679,118.119 C652.328,118.794 653.374,119.241 653.667,119.656 C654.378,120.673 654.266,121.911 655.042,122.579 C655.169,123.421 654.66,123.627 654.737,124.422 C655.112,125.529 656.803,125.319 657.185,126.421 C656.868,129.072 657.969,131.568 655.807,132.569 C654.814,137.324 653.69,141.043 650.455,143.635 C647.552,145.961 643.71,146.648 640.212,147.785 C639.305,148.08 638.579,149.042 637.764,149.322 C635.733,150.016 632.112,149.594 631.957,152.089 C631.876,153.32 633.509,154.061 633.637,155.315 C633.833,157.24 632.12,159.177 630.884,159.312 C629.996,159.41 628.085,158.788 627.981,157.158 C627.861,155.326 630.243,154.577 630.428,153.471 C630.749,151.515 628.745,149.609 626.452,149.784 C624.436,149.935 619.841,154.01 619.726,156.238 C619.637,157.904 623.011,161.37 624.158,162.387 C628.451,166.191 633.011,168.473 632.262,177.757 C631.189,180.106 628.448,180.61 626.297,181.906 C624.664,182.892 623.853,185.951 621.1,186.211 C619.996,185.831 620.641,184.095 620.336,183.292 C619.919,182.19 617.726,181.65 616.359,180.525 C615.243,179.601 614.772,178.145 613.915,177.295 C612.845,176.235 611.247,176.014 609.938,175.296 C609.116,174.846 608.471,173.262 607.645,173.301 C606.297,173.355 606.765,174.66 606.421,176.833 C606.085,178.972 604.533,180.614 605.046,183.137 C605.259,184.169 606.544,185.004 607.185,186.056 C608.247,187.799 608.394,189.828 609.479,190.822 C610.197,191.478 611.417,191.621 612.232,192.204 C613.849,193.369 616.707,195.891 617.278,197.277 C617.942,198.895 617.301,200.801 617.737,202.505 C618.243,204.473 620.807,205.882 619.266,207.885 C617.807,207.613 616.525,206.651 615.289,205.885 C613.189,204.578 612.224,203.452 610.857,201.275 C610.455,200.638 609.861,200.017 609.633,199.431 C609.1,198.053 609.212,196.493 608.714,194.82 C608.29,193.38 606.629,191.106 605.351,189.899 C604.278,188.881 602.375,188.287 602.294,186.824 C602.182,184.763 602.985,182.337 602.907,179.907 C602.888,179.384 602.533,178.855 602.448,178.219 C602.29,177.039 602.568,175.595 602.294,174.527 C602.043,173.546 601.332,172.657 600.919,171.764 C600.51,170.879 600.093,169.99 599.695,168.841 C599.077,167.063 598.382,163.637 596.942,163.462 C595.409,163.276 593.896,166.35 591.896,166.384 C590.869,166.4 589.506,165.573 589.297,164.537 C589.108,163.594 589.784,162.643 589.757,161.618 C589.699,159.557 588.247,158.761 587.159,157.314 C586.718,156.728 586.603,155.905 586.24,155.47 C585.545,154.635 584.216,154.169 583.336,153.32 C582.495,152.504 581.579,151.332 581.193,150.552 C580.603,149.348 580.413,147.788 579.514,147.629 C578.649,147.478 577.653,148.72 576.761,149.015 C575.831,149.322 573.541,149.718 572.634,149.784 C569.564,149.997 567.07,149.174 567.433,152.858 C566.958,154.511 565.22,154.53 564.07,155.315 C562.607,156.316 561.541,158.323 559.943,159.926 C559.167,160.71 558.043,161.199 557.344,161.925 C556.761,162.53 556.576,163.501 555.966,164.079 C554.333,165.628 551.888,165.759 550.769,167.922 C550.707,170.475 551.973,172.408 551.688,174.834 C551.557,175.941 550.734,176.923 550.615,178.064 C550.514,179.042 551.016,180.094 550.769,181.138 C550.638,181.697 550.02,181.992 549.545,182.675 C549.12,183.288 548.95,184.103 548.63,184.518 C548.117,185.182 547.271,185.644 546.792,186.211 C546.016,187.135 545.854,187.794 545.113,187.903 C541.761,188.388 540.935,181.98 539.456,179.294 C538.773,178.06 537.383,176.946 536.703,175.452 C535.92,173.728 535.68,171.566 534.561,169.61 C533.607,167.941 532.298,166.268 531.657,164.537 C531.113,163.074 530.642,161.241 530.128,159.619 C529.584,157.904 528.993,155.746 528.904,154.395 C528.777,152.4 529.283,151.169 527.68,150.397 C526.205,150.746 525.549,152.24 523.858,152.24 C522.225,152.24 517.843,149.399 519.121,146.861 C518.055,145.339 515.364,144.505 513.31,142.712 C512.132,141.683 511.074,139.234 509.028,139.024 C508.468,138.966 507.735,139.284 507.194,139.331 C505.901,139.444 503.607,139.214 502.148,139.331 C500.314,139.479 498.047,139.894 495.727,139.638 C494.229,139.474 492.375,139.183 490.835,139.024 C488.878,138.823 486.275,138.357 485.179,137.332 C484.503,136.703 484.229,134.689 483.036,134.413 C481.619,134.083 480.839,135.185 479.519,135.488 C476.72,136.132 474.38,134.91 472.488,133.645 C471.144,132.748 469.92,132.282 468.97,131.646 C466.646,130.081 466.229,125.377 462.7,125.342 C461.469,125.33 459.519,126.103 459.337,127.496 C459.214,128.475 460.5,130.291 461.021,131.032 C462.735,133.462 465.886,134.374 466.832,137.639 C467.465,137.887 468.754,137.08 469.43,137.794 C470.021,139.195 469.422,141.796 470.804,142.405 C477.156,143.46 478.974,139.959 481.812,137.487 C483.461,138.57 482.92,139.517 483.495,140.713 C484.082,141.939 485.001,142.902 486.094,143.329 C486.862,143.624 487.847,143.348 489.001,143.787 C489.719,144.062 492.735,146.931 492.824,147.94 C492.901,148.844 490.847,151.922 490.221,152.702 C489.615,153.463 488.677,153.859 488.387,154.546 C488.167,155.078 488.241,156.207 488.082,156.545 C487.8,157.158 486.426,157.958 485.634,158.695 C484.8,159.479 483.824,160.089 483.036,160.694 C482.071,161.44 481.472,162.464 480.438,162.849 C478.403,163.602 476.468,163.279 474.781,164.385 C473.677,165.107 473.673,166.738 472.333,167.611 C470.94,168.523 468.55,168.531 466.523,169.458 C465.221,170.052 464.442,171.205 463.314,171.609 C462.859,171.772 462.283,171.632 461.785,171.764 C460.766,172.024 459.832,172.75 458.878,172.99 C458.125,173.185 457.326,173.084 456.584,173.301 C454.229,173.984 452.071,176.391 449.704,174.989 C448.589,172.401 448.407,169.14 447.106,166.842 C446.442,165.67 445.137,165.309 444.662,164.079 C444.596,163.089 445.782,163.361 445.882,162.542 C445.492,160.881 443.932,160.104 442.978,158.695 C442.511,158.009 442.295,157.03 441.755,156.238 C439.932,153.572 436.337,152.186 435.639,148.86 C435.449,147.955 435.67,147.245 435.488,146.554 C435.187,145.417 434.422,144.221 433.65,143.329 C433.067,142.646 431.874,142.18 431.206,141.174 C430.762,140.511 430.666,139.575 430.288,138.869 C428.766,136.016 426.566,133.497 424.172,131.49 C422.925,131.673 421.585,131.758 420.963,132.569 C421.585,134.58 422.539,136.265 423.562,137.949 C424.496,139.482 425.824,141.136 426.465,142.867 C426.704,143.507 426.662,144.346 426.925,145.017 C427.886,147.455 430.909,148.204 431.511,151.014 C431.917,152.896 431.422,154.201 431.971,156.083 C432.496,157.892 435.152,158.959 436.253,160.694 C437.148,162.111 437.156,164.114 437.782,165.461 C438.697,167.432 441.256,168.286 443.133,169.61 C444.816,170.802 446.021,172.637 447.411,173.914 C448.229,174.66 449.353,174.796 449.554,175.607 C449.812,176.647 449.118,176.996 448.94,177.908 C450.114,179.139 451.256,181.41 453.222,181.6 C454.028,181.677 455.048,180.858 456.28,180.676 C456.901,180.586 457.592,180.773 458.114,180.676 C458.928,180.528 459.639,179.799 460.561,179.601 C462.125,179.263 463.936,179.399 465.913,179.139 C467.781,178.894 469.063,177.307 470.499,177.757 C472.071,179.492 470.943,181.46 470.499,183.137 C470.345,183.727 470.341,184.336 470.194,184.829 C469.372,187.565 467.21,189.591 466.218,192.052 C465.913,192.805 465.967,193.729 465.608,194.51 C464.472,196.974 462.098,199.404 460.256,201.426 C459.218,202.564 458.302,203.592 457.198,204.5 C456.102,205.405 454.762,205.901 453.527,206.806 C451.079,208.607 448.53,211.184 446.801,213.571 C446.133,214.495 445.812,215.558 445.117,216.335 C444.121,217.456 442.581,218.008 441.755,219.102 C441.102,219.972 440.669,221.536 439.921,223.1 C439.079,224.859 437.322,226.046 437.627,228.48 C437.743,229.411 438.573,229.986 438.851,230.94 C439.326,232.578 438.963,233.957 438.697,235.703 C439.561,237.807 440.183,240.155 441.755,241.545 C441.944,244.654 441.5,247.669 441.755,250.305 C441.917,251.978 442.565,253.216 441.909,254.761 C441.33,256.123 439.11,258.514 437.782,259.372 C436.337,260.307 434.129,260.552 432.581,261.681 C431.504,262.465 430.612,263.839 429.523,264.756 C427.72,266.269 425.249,267.682 425.09,269.212 C424.998,270.096 425.782,271.428 426.006,272.285 C426.604,274.556 427.183,277.817 426.16,280.277 C425.052,282.936 419.446,282.381 418.82,285.195 C418.631,286.049 419.195,286.729 419.125,287.656 C419.071,288.437 418.048,291.266 417.597,292.112 C416.921,293.385 415.384,293.952 414.388,295.035 C413.137,296.393 412.504,298.369 411.176,299.797 C409.373,301.742 406.936,303.799 404.6,305.483 C402.569,306.955 398.925,308.484 395.736,308.713 C393.879,308.845 391.886,308.274 389.925,308.561 C389.207,308.662 388.427,309.326 387.477,309.482 C386.925,309.571 386.361,309.384 385.798,309.482 C384.836,309.644 383.936,310.413 383.045,310.405 C381.064,310.382 378.52,308.002 378.458,305.639 C378.435,304.731 379.234,303.865 379.222,303.027 C379.207,302.044 378.01,300.814 377.079,299.029 C376.188,297.313 375.836,295.365 374.94,293.959 C373.991,292.465 372.736,291.755 372.037,290.575 C370.628,288.215 370.524,285.413 370.048,282.583 C369.894,281.66 369.265,280.658 369.13,279.509 C368.964,278.092 369.3,276.528 368.979,275.36 C368.732,274.459 367.74,273.54 367.141,272.437 C366.064,270.446 365.307,267.838 364.392,266.292 C363.531,264.841 361.794,263.327 361.639,261.681 C361.535,260.564 361.778,258.479 361.945,257.377 C362.111,256.298 362.906,255.444 363.168,254.303 C363.342,253.55 363.134,252.681 363.319,251.842 C364.099,248.329 367.952,247.048 367.45,242.775 C367.234,240.962 365.96,240.07 365.767,238.009 C365.678,237.042 366.246,236.2 366.226,235.241 C366.199,233.945 365.107,232.016 364.543,230.785 C362.995,227.393 362.045,224.291 359.805,221.718 C358.585,220.313 356.987,219.324 355.983,218.027 C355.161,216.971 354.161,214.992 354.145,214.184 C354.13,213.303 354.817,212.76 355.064,211.879 C355.385,210.742 355.408,208.599 355.829,206.806 C356.022,205.983 356.906,203.991 356.747,202.657 C356.593,201.371 354.69,198.907 353.076,198.507 C350.941,197.976 348.744,199.194 346.045,198.969 C343.721,197.49 343.894,193.62 340.539,193.128 C336.134,192.479 331.628,194.265 328.613,195.584 C326.872,196.349 325.099,197.514 323.567,197.583 C322.115,197.653 320.686,196.808 319.289,196.664 C317.466,196.474 315.13,196.648 313.323,196.97 C311.567,197.284 309.98,198.546 308.432,198.658 C305.466,198.883 302.648,195.973 300.787,194.51 C299.648,193.617 298.489,192.887 297.424,192.052 C296.281,191.152 294.798,190.609 293.906,189.747 C292.702,188.574 292.702,186.537 292.073,184.98 C291.327,183.148 289.061,181.802 287.331,180.062 C286.038,178.762 283.069,176.818 282.745,175.145 C282.582,174.291 283.107,173.305 283.049,172.377 C282.968,171.03 281.961,170.266 281.98,169.303 C282.011,167.952 283.594,166.908 283.969,165.767 C284.162,165.185 284.069,164.362 284.273,163.617 C284.702,162.057 285.729,161.133 285.497,158.851 C285.405,157.942 284.629,157.112 284.579,155.932 C284.547,155.124 285.107,154.674 285.038,153.933 C284.922,152.621 283.227,152.365 283.049,150.859 C282.872,149.302 284.528,148.017 285.497,146.248 C285.934,145.456 286.173,144.241 286.567,143.635 C287.424,142.327 288.822,141.695 289.474,140.406 C289.953,139.455 290.107,138.046 290.544,137.332 C291.107,136.416 292.227,135.923 293.296,134.72 C294.165,133.738 294.52,132.55 295.13,132.108 C295.899,131.549 297.045,131.413 297.883,131.032 C300.713,129.736 302.783,128.067 304.15,125.342 C303.733,122.87 304.362,121.826 305.374,120.118 C306.308,118.538 306.991,117.028 308.586,116.12 C310.497,115.033 312.293,114.932 313.628,112.894 C314.296,111.873 315.3,110.111 315.312,109.052 C315.327,107.53 313.76,105.582 312.408,105.36 C311.026,105.139 308.903,106.416 308.127,104.903 C307.879,104.417 308.219,103.284 308.127,102.748 C307.949,101.743 307.092,101.033 307.057,100.291 C306.984,98.848 308.47,97.345 308.891,95.68 C309.462,93.413 308.91,91.678 308.737,89.07 C310.875,85.682 315.624,87.362 320.358,87.685 C321.068,87.735 321.883,87.514 322.651,87.533 C325.458,87.599 327.667,88.449 328.613,85.996 C328.968,85.072 329.285,81.637 329.072,80.768 C328.821,79.739 326.813,77.073 325.86,76.467 C324.343,75.497 322.142,75.92 321.273,74.162 C321.98,71.126 325.362,73.653 327.389,72.931 C328.424,72.563 328.308,70.761 329.227,70.47 C329.852,70.272 330.651,71.103 331.52,71.088 C332.261,71.072 334.945,69.717 335.648,69.24 C336.624,68.576 336.925,67.198 337.786,66.628 C338.369,66.243 339.138,66.29 339.775,66.015 C341.076,65.452 342.721,64.307 343.597,63.247 C344.86,61.725 345.427,59.839 346.96,59.56 C349.01,59.183 353.647,59.967 353.995,57.712 C354.323,55.566 352.114,53.877 352.925,51.564 C353.566,49.736 355.199,50.058 357.512,48.951 C358.628,49.747 358.304,52.022 358.427,53.412 C359.848,53.423 362.74,52.988 363.014,51.719 C363.358,50.136 360.944,48.525 360.416,47.57 C359.844,46.534 359.72,44.713 358.582,44.496 C356.253,44.045 353.991,47.721 351.088,47.721 C349.18,47.721 347.157,46.242 346.655,44.803 C346.369,43.98 346.628,43.203 346.5,42.342 C346.315,41.084 345.566,39.78 345.89,38.041 C347.061,36.023 349.759,35.697 351.701,34.656 C352.435,34.264 353.026,33.426 353.84,33.119 C355.211,32.611 357.238,33.123 358.582,32.351 C359.431,31.866 359.192,31.027 359.805,30.045 C360.188,29.428 361.122,29.067 361.639,28.357 C361.999,27.864 362.041,27.119 362.404,26.664 C363.732,25.003 366.157,24.39 367.141,22.671 C367.578,21.91 366.388,21.626 366.686,20.516 C367.18,19.445 369.087,20.233 370.199,20.054 C371.72,19.818 373.126,17.958 374.786,17.598 C376.52,17.221 378.377,17.45 379.987,16.829 C380.948,16.456 381.832,15.579 382.74,15.443 C383.06,15.397 383.963,15.618 384.419,15.598 C385.002,15.575 385.632,15.214 386.408,15.137 C387.531,15.024 388.925,15.412 390.384,15.443 C392.801,15.497 395.099,14.713 397.11,15.598 C398.164,16.06 398.045,17.26 399.404,17.749 C400.087,17.998 400.99,17.652 402.002,17.749 C403.5,17.892 405.064,18.933 407.048,19.134 C407.755,19.204 408.485,19.045 409.187,19.134 C411.372,19.403 413.774,20.559 415.917,21.285 C417.708,21.894 421.504,22.651 421.573,24.359 C421.658,26.381 418.272,26.971 416.832,26.971 C414.427,26.971 411.241,25.558 408.732,26.358 C408.77,29.836 412.504,32.467 415.917,32.044 C416.218,30.41 413.986,31.318 414.234,29.739 C415.759,28.582 417.585,30.515 419.739,30.2 C420.581,29.971 420.438,28.749 420.654,27.895 C422.473,26.785 424.751,25.154 427.535,26.358 C427.674,26.086 427.878,25.88 428.148,25.745 C428.33,24.056 426.315,23.175 427.384,21.592 C427.917,20.501 430.766,20.878 431.206,21.747 C431.427,22.787 430.5,22.674 430.593,23.591 C431.133,24.817 432.38,25.011 433.04,24.976 C434.542,24.894 434.839,23.544 436.253,22.822 C436.824,22.531 437.662,22.5 438.392,22.209 C439.256,21.863 439.99,21.165 440.685,20.978 C441.195,20.842 441.963,20.978 442.673,20.823 C443.577,20.629 444.53,19.899 445.272,19.903 C446.195,19.903 446.855,20.974 448.025,21.133 C448.662,21.219 449.388,20.769 450.318,20.672 C451.067,20.59 451.843,20.761 452.457,20.672 C453.917,20.458 454.92,19.686 456.129,19.748 C456.982,19.794 458.446,20.951 459.032,20.365 C460.021,19.379 457.712,18.645 458.422,17.749 C460.77,17.927 463.26,17.873 465.608,18.211 C469.102,18.711 472.395,20.45 475.546,20.516 C475.248,18.381 472.812,18.995 471.723,18.059 C471.391,17.772 470.025,15.521 470.04,14.83 C470.052,14.484 471.773,11.527 472.183,11.143 C473.53,9.869 477.951,9.877 479.214,11.601 C480.079,12.781 479.793,14.558 481.048,14.523 C482.125,14.492 482.7,11.822 483.955,11.756 C484.99,11.701 485.511,13.468 486.553,13.448 C487.816,13.421 488.7,11.049 490.376,10.987 C491.279,10.952 491.58,11.453 492.974,11.601 C493.932,10.983 492.654,10.169 493.129,9.295 C494.839,8.045 498.739,8.996 500.924,8.22 C501.53,7.49 500.148,6.974 500.773,6.221 C502.654,4.897 505.823,4.777 509.028,4.226 C510.989,3.888 512.843,2.518 514.379,2.378 C515.986,2.235 517.518,3.325 518.966,3.302 C519.843,3.287 520.869,3.019 521.719,2.689 C522.58,2.351 523.167,1.513 524.013,1.303 C525.356,0.973 527.051,1.462 528.599,1.303 C530.24,1.136 531.692,0.496 532.881,0.69 C533.993,0.868 534.885,2.06 535.939,2.227 C539.159,2.732 542.483,1.742 545.418,2.534 C545.943,2.677 546.472,3.224 547.101,3.457 C549.066,4.179 550.406,3.954 550.769,6.376 C552.317,6.927 553.224,8.352 555.051,8.837 C556.271,9.159 557.495,8.682 558.873,8.682 C560.68,8.682 562.993,8.751 564.529,8.988 C565.406,9.124 566.124,9.773 566.977,9.912 C567.595,10.013 568.414,9.846 569.116,9.912 C570.074,10.001 570.935,10.397 571.715,10.374 C573.317,10.323 574.529,8.887 575.842,8.682 C576.545,8.573 577.479,8.934 578.135,8.988 C580.707,9.206 583.676,8.651 585.78,9.144 C586.904,9.408 588.823,10.65 590.062,11.601 C590.961,12.292 591.506,13.39 592.355,13.906 C593.158,14.395 595.193,15.272 596.027,15.137 C597,14.982 597.046,13.887 598.012,13.448 C601.043,12.769 606.429,14.418 608.869,13.293 C609.815,12.855 609.629,11.849 610.398,11.294 C614.984,11.069 619.552,11.484 623.853,11.601 C625.363,11.643 626.922,11.212 628.285,11.449 C629.803,11.713 630.907,13.238 632.413,13.755 C633.417,14.097 635.185,13.918 636.694,14.217 C637.706,14.415 638.536,15.028 639.293,15.137 C640.926,15.37 642.486,14.954 644.035,14.83 C647.544,14.546 652.049,14.36 655.501,15.754 C657.339,16.495 658.115,17.993 660.088,18.211 C662.914,18.525 667.285,17.978 670.181,18.211 C670.872,18.269 671.517,18.556 672.015,18.517 C672.984,18.448 673.571,17.621 674.768,17.598 C676.281,17.562 678.687,19.969 680.883,19.596 C681.829,18.952 680.127,18.056 681.034,17.442 C681.895,16.724 683.072,17.434 684.397,17.442 C685.119,17.45 686.011,17.074 686.69,17.135 C688.373,17.283 689.969,18.801 692.042,19.286 C693.69,19.674 695.957,19.818 698.007,19.596 C699.478,19.433 700.736,18.937 702.134,19.134 C702.81,19.228 703.412,19.72 704.123,19.903 C704.771,20.07 705.412,19.911 705.957,20.054 C706.466,20.194 706.972,20.675 707.486,20.823 C710.331,21.642 714.111,22.045 717.119,22.977 C718.887,23.524 720.698,24.627 722.165,24.666 C722.891,24.689 723.532,24.351 724.458,24.359 L724.458,24.359 Z M590.062,60.018 C590.664,58.061 589.726,56.086 588.533,54.793 C586.769,55.1 588.042,56.944 587.923,58.023 C587.749,59.548 586.139,60.607 586.24,62.172 C585.653,62.863 584.649,63.135 584.56,64.322 C585.529,64.997 585.958,63.79 586.699,63.092 C587.869,61.989 589.656,61.337 590.062,60.018 L590.062,60.018 L590.062,60.018 Z M550.004,6.683 C548.321,6.683 547.688,7.35 546.642,7.913 C546.066,8.22 544.896,8.391 545.263,9.295 C546.734,9.116 549.653,8.449 550.004,6.683 L550.004,6.683 L550.004,6.683 Z M517.897,79.231 C517.321,78.07 515.669,79.572 516.368,80.616 C517.402,80.682 517.773,80.081 517.897,79.231 L517.897,79.231 L517.897,79.231 Z M485.484,25.589 C489.075,26.432 490.766,22.352 488.387,20.054 C487.831,19.519 485.955,19.309 485.179,18.059 C484.244,16.557 484.376,14.55 482.121,14.985 C482.094,15.164 482.144,15.42 481.966,15.443 C481.754,18.804 486.623,19.651 486.553,22.36 C486.518,23.78 485.024,23.932 485.484,25.589 L485.484,25.589 L485.484,25.589 Z M482.272,85.534 C484.75,85.053 482.302,81.071 480.438,81.536 C478.001,82.149 480.584,85.86 482.272,85.534 L482.272,85.534 L482.272,85.534 Z M470.959,105.36 C471.723,100.031 467.588,99.631 466.832,95.832 C467.183,95.878 467.002,95.389 467.287,95.37 C468.295,94.885 469.812,96.146 470.345,94.912 C470.357,93.091 468.059,91.733 465.758,92.606 C465.094,92.148 465.001,91.112 464.843,90.145 C463.109,89.109 458.82,86.842 458.878,84.766 C458.928,83.058 461.117,82.099 463.619,82.153 C464.673,81.35 463.994,78.881 463.009,78.311 C459.056,77.441 456.947,78.028 454.446,79.848 C453.245,80.721 451.905,81.323 451.233,81.847 C450.615,82.328 449.789,83.644 449.859,84.304 C449.955,85.254 451.31,85.814 451.847,87.071 C452.121,87.72 452.063,88.53 452.307,89.07 C452.974,90.553 454.685,91.512 455.974,92.757 C456.886,93.638 459.438,95.548 459.492,96.6 C459.534,97.477 458.708,97.671 458.422,98.599 C458.137,99.507 457.805,101.654 457.963,102.442 C458.302,104.13 460.04,104.188 461.631,104.903 C463.21,105.609 464.731,106.859 466.372,106.898 C468.121,106.944 469.982,106.381 470.959,105.36 L470.959,105.36 L470.959,105.36 Z M435.029,94.295 C439.171,93.542 437.28,90.021 435.179,88.763 C433.589,87.809 431.685,86.978 429.828,85.84 C428.751,85.181 424.658,83.935 424.631,82.615 C424.6,81.172 427.677,80.698 426.465,78.156 C424.372,77.643 419.396,78.451 419.739,80.768 C419.936,82.107 421.515,81.365 421.878,82.767 C420.38,83.302 418.558,84.708 416.987,84.459 C415.114,84.164 414.631,81.851 413.624,80.461 C412.168,80.508 411.21,79.044 409.496,79.231 C407.697,79.429 406.743,82.053 405.824,83.384 C405.338,84.082 404.562,84.444 404.295,85.072 C404.137,85.453 404.311,86.058 404.145,86.61 C403.62,88.317 402.149,88.942 402.307,90.452 C402.45,91.783 403.89,92.381 403.99,93.526 C403.89,94.706 402.006,94.093 402.156,95.525 C404.894,97.796 405.044,94.454 406.438,93.988 C407.558,93.611 409.755,94.298 411.176,93.988 C412.322,93.736 413.226,92.637 414.539,92.144 C415.342,91.842 416.334,91.574 417.446,91.527 C422.311,91.325 425.45,94.508 429.678,94.601 C431.075,94.632 433.577,94.558 435.029,94.295 L435.029,94.295 L435.029,94.295 Z M425.241,112.433 C425.326,110.783 424.616,109.541 424.477,107.208 C421.654,105.496 419.546,108.796 416.681,108.434 C414.921,108.213 413.658,106.152 411.789,106.44 C410.759,106.595 410.249,107.934 409.187,108.128 C407.002,108.532 406.006,106.37 403.685,107.208 C400.411,104.701 398.948,100.617 398.18,95.987 C396.396,93.635 393.674,95.548 392.369,97.062 C391.566,97.054 390.562,96.616 390.384,97.524 C389.782,100.365 394.38,100.668 394.357,102.597 C394.342,103.851 392.562,103.734 391.759,104.592 C390.906,105.504 391.473,106.315 390.384,106.898 C387.369,107.263 386.369,105.605 386.408,102.904 C385.106,100.916 383.462,99.469 382.28,97.83 C381.844,97.225 381.191,96.282 381.056,95.37 C380.948,94.651 381.396,93.74 381.211,92.913 C380.879,91.446 378.16,90.339 376.469,89.532 C374.663,88.666 372.4,87.847 371.118,86.765 C370.211,85.996 369.782,84.661 368.979,84.152 C368.296,83.721 367.446,83.811 366.837,83.384 C365.999,82.794 366.138,81.812 365.002,81.536 C364.427,81.323 363.539,82.111 363.168,82.615 C362.423,85.969 365.138,86.198 366.377,87.685 C367.23,88.706 367.655,90.242 368.52,90.914 C369.443,91.632 370.697,91.5 371.883,91.989 C372.701,92.327 373.234,93.351 374.022,93.833 C375.481,94.725 377.825,94.881 377.998,96.6 C377.091,97.221 375.033,95.696 374.33,97.217 C374.149,98.215 375.118,98.727 375.095,99.674 C375.056,101.188 373.384,102.845 371.883,102.597 C371.732,101.696 372.682,100.959 372.647,99.981 C372.581,98.025 368.67,95.04 366.686,94.143 C365.755,93.72 364.624,93.697 363.779,93.22 C362.277,92.369 359.647,90.281 358.732,89.07 C357.64,87.615 356.705,84.921 354.3,85.072 C353.319,85.134 352.508,86.039 351.701,86.458 C350.968,86.834 350.157,87.184 349.408,87.685 C348.516,88.278 347.79,88.88 346.96,88.915 C345.041,88.996 343.412,87.483 341.763,87.84 C341.207,87.96 340.744,88.461 340.08,89.07 C340.057,89.967 340.346,90.541 340.234,91.527 C339.736,92.393 338.257,92.338 337.176,92.913 C335.593,93.751 334.184,95.475 332.895,96.756 C332.064,97.578 331.315,98.257 331.211,98.906 C331.13,99.414 331.64,100.377 331.52,101.06 C331.385,101.801 329.999,103.338 329.072,103.979 C328.531,104.351 327.814,104.402 327.238,104.747 C326.034,105.465 325.493,106.401 324.485,106.591 C321.814,107.092 316.956,106.052 316.995,108.897 C317.018,110.799 319.57,110.806 321.122,110.74 C323.285,110.655 325.122,111.202 326.319,110.895 C327.145,110.686 328.049,109.754 328.918,109.359 C329.466,109.11 330.034,109.106 330.447,108.897 C331.362,108.434 331.879,107.685 332.59,107.359 C333.987,106.719 336.59,106.218 338.091,106.129 C340.153,106.009 342.307,106.343 344.972,106.129 C345.922,106.055 346.86,105.442 347.879,105.36 C349.543,105.228 351.732,106.02 353.076,105.978 C354.006,105.946 355.045,105.038 356.134,105.054 C357.365,105.073 358.663,105.954 358.887,106.746 C359.014,107.196 358.628,107.915 358.732,108.59 C358.91,109.708 359.863,110.17 359.805,110.895 C359.724,111.858 357.338,113.143 357.663,114.276 C357.875,115.006 359.586,115.767 360.416,116.275 C361.284,116.807 362.751,117.544 363.779,117.657 C364.643,117.754 365.408,117.416 366.226,117.505 C367.543,117.649 369.674,118.453 370.508,119.042 C371.944,120.06 371.744,121.69 373.412,122.268 C374.122,122.516 375.404,122.377 376.315,122.579 C378.543,123.064 380.195,124.919 381.821,124.729 C384.381,124.43 383.214,122.004 383.504,120.273 C384.156,116.349 391.782,116.527 393.288,119.194 C394.403,119.493 395.38,119.241 396.651,119.656 C397.384,119.897 397.932,120.704 398.639,120.886 C399.172,121.022 399.948,120.809 400.627,120.886 C403.558,121.22 406.214,123.413 408.732,123.037 C410.33,122.8 411.488,121.29 413.009,121.193 C415.936,121.011 417.809,123.382 420.963,122.268 C423.284,121.449 422.766,119.031 423.562,116.582 C424.114,114.878 425.179,113.717 425.241,112.433 L425.241,112.433 L425.241,112.433 Z M425.09,248.155 C425.797,247.025 426.685,243.85 425.09,243.082 L424.786,243.082 C424.102,244.359 423.376,247.44 425.09,248.155 L425.09,248.155 L425.09,248.155 Z M422.948,216.028 C423.465,214.961 424.677,213.839 424.477,212.496 C424.037,209.534 418.527,210.994 417.905,213.109 C417.485,214.534 418.156,215.663 417.597,217.107 C418.199,218.244 419.709,218.469 421.573,218.334 C422.604,217.876 422.477,217.006 422.948,216.028 L422.948,216.028 L422.948,216.028 Z M413.624,231.861 C414.23,230.731 412.658,229.997 412.399,228.786 C412.099,227.366 412.743,225.704 411.481,224.944 L411.025,224.944 C409.917,227.463 411.484,231.62 413.624,231.861 L413.624,231.861 L413.624,231.861 Z M398.794,42.035 C395.566,39.267 390.072,43.044 386.408,42.804 C384.844,42.703 382.782,41.534 382.28,40.036 C382.122,39.563 382.253,38.926 382.126,38.041 C381.987,37.059 381.481,36.03 381.516,35.425 C381.67,32.65 388.546,32.126 388.546,28.663 C387.234,27.398 383.384,27.612 382.126,28.97 C381.674,29.459 381.697,30.449 381.056,31.431 C379.686,33.531 375.257,33.779 373.871,36.349 C373.562,36.919 373.025,38.479 373.257,39.423 C373.62,40.878 376.825,41.274 376.929,42.804 C377.107,45.381 373.01,45.058 372.493,47.263 C372.261,48.261 372.972,49.592 372.801,50.489 C372.489,52.103 370.937,51.634 368.979,52.488 C367.979,52.922 367.01,54.521 365.921,54.638 C364.913,54.746 364.3,54.048 363.628,54.18 C362.624,54.37 362.96,55.608 361.485,55.868 C360.311,56.074 358.257,54.813 358.122,56.33 C358.033,57.305 359.968,57.833 361.18,57.712 C362.141,57.619 362.844,56.955 363.779,56.944 C365.589,56.928 366.767,58.294 367.906,58.329 C370.531,58.403 373.106,55.892 375.859,56.175 C377.103,56.303 377.84,57.188 378.763,57.099 C380.238,56.959 381.493,55.247 382.585,54.638 C382.122,52.049 382.628,48.633 385.033,48.49 C386.686,48.393 389.164,51.331 389.465,48.49 C389.597,47.256 388.161,46.165 387.172,46.184 C386.292,46.204 385.137,47.935 384.419,46.495 C384.423,45.086 385.994,45.458 386.867,45.109 C387.516,44.849 387.975,44.138 388.701,43.878 C392.338,42.594 397.38,45.14 398.794,42.035 L398.794,42.035 Z M710.084,328.387 C709.628,330.305 708.169,332.436 706.261,333.768 C704.88,334.734 700.497,336.679 699.995,333.922 C699.853,333.154 700.848,329.587 701.215,328.85 C702.293,326.695 703.451,328.1 705.192,328.387 C706.976,328.679 708.655,327.301 710.084,328.387 L710.084,328.387 Z M698.157,104.903 C698.775,106.746 699.204,108.563 699.687,110.282 C698.003,112.39 694.671,111.61 692.196,112.739 C691.037,113.271 690.714,115.212 689.598,115.507 C688.694,115.743 687.999,114.722 687.15,114.738 C684.953,114.781 683.879,118.433 681.188,117.505 C679.648,118.429 681.25,121.969 679.354,122.268 C678.003,122.482 677.266,120.731 676.447,119.656 C675.455,118.352 674.042,117.638 674.003,116.582 C673.961,115.487 676.2,113.655 676.907,112.894 C677.776,111.959 679.478,110.216 680.575,109.972 C682.613,109.521 684.682,110.17 686.234,109.514 C687.574,108.939 687.648,106.82 688.373,106.284 C688.987,105.83 689.686,105.954 690.208,105.671 C691.628,104.898 693.161,102.24 692.35,99.523 C691.837,97.807 689.011,95.929 690.822,93.833 C693.532,94.124 697.1,96.806 697.547,99.523 C697.721,100.583 697.142,101.642 697.242,102.748 C697.296,103.385 697.88,104.068 698.157,104.903 L698.157,104.903 Z M698.771,88.146 C698.427,88.93 697.736,88.768 697.088,89.221 C696.462,89.664 695.721,91.073 694.949,91.221 C693.725,91.453 692.343,90.009 691.126,90.301 C689.69,90.642 690.532,91.748 690.057,93.064 C688.802,92.796 686.741,91.391 686.69,89.99 C686.659,89.109 687.798,88.566 688.069,87.533 C688.524,85.775 687.347,84.89 686.69,83.229 C686.648,82.98 686.837,82.965 686.845,82.767 C688.339,82.452 691.273,85.282 694.644,85.84 C696.821,86.202 698.644,86.007 698.771,88.146 L698.771,88.146 Z M693.115,244.157 C693.273,245.434 691.057,245.29 690.822,244.463 C690.868,243.473 692.841,243.163 693.115,244.157 L693.115,244.157 Z M682.413,75.237 C683.926,76.04 687.594,77.865 685.011,79.541 C683.447,78.959 681.818,76.971 682.413,75.237 L682.413,75.237 Z M675.378,237.396 C677.131,236.44 679.042,234.333 682.104,235.396 C681.436,237.31 679.131,237.267 677.671,238.164 C676.2,239.065 674.949,240.601 673.084,240.776 C672.945,240.504 672.74,240.299 672.474,240.159 C672.466,238.443 674.169,238.051 675.378,237.396 L675.378,237.396 Z M671.25,208.498 C673.05,208.502 674.74,207.943 675.988,208.653 C675.756,212.496 669.825,209.573 665.899,210.19 C665.061,210.318 664.814,210.97 663.91,210.649 C663.961,209.348 665.359,208.032 666.814,207.885 C667.938,207.769 669.613,208.494 671.25,208.498 L671.25,208.498 Z M672.779,213.26 C672.953,215.384 670.065,215.625 669.262,217.259 C670.532,219.211 671.022,221.943 672.474,223.713 C672.412,224.885 672.71,226.415 672.015,226.943 C668.937,227.533 667.278,221.975 666.049,220.026 C663.695,220.472 665.845,228.037 662.687,227.098 C661.142,226.636 662.71,224.47 662.382,222.794 C662.092,221.322 660.656,221.016 660.547,219.871 C660.459,218.923 661.586,217.918 661.922,216.952 C662.409,215.558 662.1,212.876 663.756,212.803 C664.571,212.764 665.671,214.53 666.204,214.646 C668.03,215.042 670.2,212.775 672.779,213.26 L672.779,213.26 Z M667.123,236.165 C666.559,237.325 663.417,236.77 663.146,235.703 C663.687,234.492 666.857,234.857 667.123,236.165 L667.123,236.165 Z M664.216,239.852 C664.038,240.081 663.833,240.287 663.606,240.469 C662.447,240.093 661.204,239.81 660.853,238.622 C661.714,237.357 664.173,238.408 664.216,239.852 L664.216,239.852 Z M658.559,205.579 C658.999,206.48 660.293,207.45 660.243,208.036 C660.142,209.185 657.841,209.135 657.335,210.342 C656.868,211.459 657.366,211.533 657.185,213.26 C656.54,214.514 654.81,214.817 654.278,216.335 C653.633,218.167 654.374,220.527 652.903,221.869 C651.888,221.819 650.775,222.755 649.54,222.638 C648.204,222.514 646.922,220.666 644.799,220.639 C643.984,220.631 643.027,221.159 642.2,221.101 C641.544,221.055 641.019,220.449 640.057,220.181 C638.903,219.855 637.818,220.034 637.309,219.719 C636.262,219.071 636.42,217.231 636.084,216.183 C635.745,215.124 634.474,214.557 633.791,213.109 C632.799,211.013 632.37,206.321 635.015,205.885 C636.081,205.707 637.177,206.53 637.919,206.347 C639.393,205.983 639.135,204.065 640.366,203.27 C641.05,202.827 642.297,203.014 643.27,202.657 C644.274,202.288 645.026,201.329 645.718,200.506 C646.358,199.738 646.861,198.449 647.702,197.894 C648.656,197.265 649.536,197.25 650.305,196.664 C652.308,195.127 652.37,192.984 653.972,191.129 C655.328,189.561 657.474,192.638 657.64,193.896 C658.401,194.875 659.895,195.115 660.547,196.202 C659.648,198.904 657.107,199.14 657.64,202.963 C657.729,203.584 658.154,204.745 658.559,205.579 L658.559,205.579 Z M660.088,236.01 C659.312,237.112 656.621,235.92 655.656,237.085 C654.065,237.046 652.459,237.023 652.138,235.703 C652.594,234.577 654.046,235.35 655.196,235.241 C657.042,235.074 659.594,233.77 660.088,236.01 L660.088,236.01 Z M649.691,235.396 C648.347,236.825 646.363,235.796 644.645,235.548 C643.093,235.327 641.436,235.435 639.753,235.241 C637.614,234.993 635.675,233.805 633.637,233.553 C632.401,233.398 631.135,233.731 629.969,233.553 C628.591,233.339 623.467,231.391 623.393,230.017 C623.32,228.604 625.698,228.2 627.826,228.48 C630.575,228.841 632.405,231.278 635.93,230.785 C636.768,230.669 637.386,230.048 638.224,230.017 C640.008,229.951 641.772,231.344 643.88,231.092 C644.339,231.585 644.027,232 644.035,232.784 C645.826,233.747 648.756,233.568 649.691,235.396 L649.691,235.396 Z M630.162,216.762 C634.054,216.762 634.054,222.829 630.162,222.829 C626.274,222.829 626.274,216.762 630.162,216.762 L630.162,216.762 Z M624.463,216.028 C624.942,216.09 626.633,218.458 626.606,219.102 C626.552,220.189 624.931,220.13 624.463,221.563 C623.745,223.772 624.787,226.275 623.548,227.405 C622.849,227.828 621.598,227.7 620.49,227.711 C617.714,225.747 615.517,223.414 613.15,220.795 C612.289,219.843 611.239,219.017 610.703,218.027 C609.907,216.56 609.626,214.945 608.714,213.571 C607.915,212.36 606.44,211.502 605.656,210.19 C605.016,209.111 604.957,207.695 604.282,206.654 C603.653,205.688 602.583,205.272 601.834,204.5 C601.344,203.996 601.07,203.208 600.614,202.657 C598.691,200.343 594.996,199.136 594.803,195.74 C595.591,194.836 596.398,196.077 597.861,196.357 C598.807,196.536 599.931,196.279 600.614,196.509 C602.004,196.978 602.961,199.159 604.436,200.351 C605.259,201.018 606.34,201.48 607.185,202.195 C608.093,202.959 608.757,204.054 609.479,204.5 C610.475,205.114 611.853,205.517 613.15,206.347 C614.915,207.477 618.073,208.653 618.502,210.959 C618.606,211.533 618.232,212.504 618.347,212.954 C618.556,213.761 619.575,214.11 620.182,214.798 C620.934,215.655 621.089,216.936 622.17,217.107 C623.247,217.41 623.297,215.877 624.463,216.028 L624.463,216.028 Z M552.298,183.75 C553.614,184.185 558.008,189.553 556.73,192.514 C556.367,193.357 554.854,194.44 553.367,194.202 C550.34,193.722 550.919,186.948 551.839,184.212 C551.923,183.991 552.078,183.835 552.298,183.75 L552.298,183.75 Z M468.361,252.611 C468.461,253.449 468.893,254.345 468.816,254.761 C468.596,255.988 467.252,256.24 466.832,257.07 C466.727,260.444 465.411,263.37 464.229,266.138 C463.214,268.525 462.623,271.149 461.785,273.209 C461.48,273.959 460.839,274.545 460.561,275.204 C459.461,277.817 459.056,281.927 457.044,283.045 C456.322,283.445 453.53,284.132 452.762,284.12 C450.89,284.089 449.268,282.68 448.789,281.046 C448.53,280.173 448.785,279.261 448.635,278.279 C448.45,277.048 447.72,275.993 447.87,274.591 C448.21,271.463 451.241,269.945 451.388,267.368 C451.5,265.427 450.411,263.498 450.623,261.526 C450.758,260.292 451.635,258.258 452.612,257.529 C454.021,256.476 455.928,256.585 457.349,255.84 C458.526,255.223 460.152,254.202 461.021,253.072 C461.758,252.114 461.797,251.019 462.395,250.305 C462.808,249.812 463.735,249.68 464.229,249.075 C464.673,248.535 464.573,247.522 465.303,246.924 C467.426,246.016 468.036,249.924 468.361,252.611 L468.361,252.611 Z M435.179,19.748 C434.735,18.086 437.87,18.354 437.322,19.903 C436.832,20.365 435.492,20.326 435.179,19.748 L435.179,19.748 Z M416.376,111.664 C416.446,110.395 419.326,109.929 419.89,111.051 C419.701,112.285 416.967,113.135 416.376,111.664 L416.376,111.664 Z M363.933,103.365 C365.528,102.069 369.076,102.946 371.273,102.904 C370.859,104.08 370.798,105.605 369.894,106.284 C367.388,105.83 365.053,105.209 363.933,103.365 L363.933,103.365 Z M352.771,95.218 C354.871,93.014 357.076,94.178 356.288,98.444 C355.786,99.717 353.601,101.417 352.616,99.523 C352.952,98.032 352.809,96.934 352.771,95.218 L352.771,95.218 Z M355.829,90.301 C356.003,91.601 355.462,92.183 354.759,92.606 C352.744,92.249 354.277,88.612 355.829,90.301 L355.829,90.301 Z M337.176,62.478 C337.354,63.946 335.362,64.524 335.648,66.166 C333.547,67.823 330.045,66.965 326.624,67.396 C325.076,67.594 323.37,69.143 321.732,67.858 C321.354,66.826 323.091,66.686 323.262,65.708 C323.142,64.8 321.999,64.928 321.732,64.171 C322.176,62.975 323.562,62.731 323.416,60.941 C324.269,60.006 325.91,60.359 326.169,59.098 C326.346,58.22 325.663,57.13 324.79,56.637 C324.288,56.353 323.52,56.486 322.956,56.175 C321.466,55.352 320.926,53.636 320.053,53.256 C320.165,51.572 319.594,50.353 320.053,49.258 C320.331,48.595 322.339,46.72 323.416,46.339 C324.752,45.866 326.149,46.289 326.933,45.264 C327.285,45.214 327.52,45.288 327.698,45.416 C327.69,46.386 326.879,46.545 326.779,47.414 C326.968,48.812 329.416,47.938 329.682,49.258 C329.451,50.695 328.165,50.978 328.153,52.026 C328.149,52.938 330.007,54.669 330.906,55.868 C331.578,56.757 332.752,57.417 333.354,58.329 C333.879,59.125 333.995,60.072 334.423,60.48 C335.227,61.244 337.041,61.372 337.176,62.478 L337.176,62.478 Z M320.509,56.637 C320.659,57.79 319.424,57.957 318.98,59.249 C318.582,60.425 319.057,61.823 318.524,62.634 C318.057,63.336 316.787,63.294 315.922,63.554 C313.999,64.132 310.285,66.402 308.737,63.86 C308.96,62.498 310.273,62.226 310.725,61.097 C310.752,60.208 309.81,59.738 309.96,58.791 C310.146,57.631 311.014,58.03 312.254,57.561 C313.154,57.215 313.54,56.12 314.702,55.406 C316.744,54.153 320.312,55.112 320.509,56.637 L320.509,56.637 Z M260.575,232.474 C260.884,238.059 256.617,239.849 254.154,243.544 C253.641,244.316 253.355,245.538 252.625,246.617 C251.158,248.787 249.525,249.237 249.722,253.224 C249.776,254.322 250.332,255.39 250.332,256.608 C250.332,258.091 250.204,260.04 249.872,261.371 C249.621,262.391 248.783,263.215 248.648,264.139 C248.513,265.078 248.922,265.804 248.803,266.599 C248.671,267.484 247.791,268.738 247.119,269.98 C245.706,272.604 245.397,275.689 242.533,276.741 C240.849,277.362 238.567,277.017 236.726,277.666 C235.98,277.925 235.038,278.62 234.123,279.047 C231.463,280.293 227.672,281.974 226.938,284.733 C226.286,287.191 227.849,289.154 227.397,291.96 C226.923,292.795 226.282,293.626 225.564,294.573 C224.903,295.442 224.575,296.471 223.88,297.34 C222.961,298.493 221.533,299.006 220.977,300.566 C220.788,301.093 220.907,301.726 220.672,302.565 C220.583,302.875 220.019,303.353 219.753,303.946 C219.506,304.494 219.517,305.193 219.293,305.639 C218.594,307.059 216.517,310.285 215.012,310.712 C211.838,311.608 208.49,309.357 206.297,309.788 C206.614,311.329 207.726,311.17 208.44,312.249 C208.857,312.886 209.085,313.728 209.66,314.399 C210.348,315.198 210.954,315.494 211.039,316.398 C211.212,318.292 209.745,320.198 208.745,320.858 C207.83,321.459 205.931,321.812 204.309,322.084 C203.178,322.274 200.259,322.286 199.722,323.008 C198.934,324.079 200.139,326.715 199.571,327.774 C198.429,330.022 195.355,327.712 193.761,328.387 C193.626,329.548 194.051,330.763 194.985,331.307 C195.946,331.873 197.406,331.136 198.043,332.23 C197.73,333.76 196.093,333.957 195.749,335.46 C195.792,336.923 196.24,337.308 196.054,338.224 C195.657,340.199 192.603,340.118 192.691,342.221 C192.823,345.369 198.699,344.08 198.807,347.139 C198.869,348.995 197.124,349.014 196.514,350.826 C196.186,351.797 196.703,352.022 196.514,352.825 C196.259,353.916 194.985,354.231 194.985,355.438 C194.981,356.909 197.124,358.524 198.193,359.742 C199.239,360.934 200.583,362.634 202.016,363.433 C204.162,364.625 207.359,364.357 208.286,366.507 C207.992,367.8 206.753,368.142 205.533,368.502 L205.228,368.502 C204.815,368.25 203.348,368.25 202.934,368.502 L200.796,368.502 C198.749,367.555 196.267,366.942 193.761,366.046 C192.857,365.723 191.838,364.951 190.857,364.508 C190.12,364.175 189.29,364.043 188.714,363.74 C187.398,363.045 185.915,360.79 184.587,359.898 C183.78,359.354 182.514,359.067 181.989,358.512 C181.487,357.988 181.213,356.851 180.765,356.21 C180.271,355.5 179.363,354.987 178.776,354.211 C177.506,352.515 175.884,350.232 175.873,348.983 C175.861,347.752 177.039,346.918 176.638,345.757 C176.263,344.667 173.915,344.904 173.58,343.603 C173.375,342.819 174.255,341.495 174.19,340.378 C174.155,339.733 172.95,338.849 173.425,337.917 C173.974,336.842 175.008,338.006 175.873,337.455 C175.224,335.238 175.923,331.668 173.73,331 C172.603,331.955 174.881,334.097 172.966,334.688 C171.116,333.864 171.545,331.415 171.132,329.618 C170.862,328.431 170.275,327.363 170.217,326.082 C170.186,325.411 170.479,324.627 170.367,323.932 C170.043,321.859 167.749,320.163 167.614,318.09 C167.553,317.089 168.224,316.243 168.379,315.168 C168.487,314.446 168.278,313.631 168.379,312.862 C168.514,311.888 169.051,310.987 169.143,310.098 C169.325,308.406 169.139,305.515 168.838,304.102 C168.46,302.328 167.058,300.818 166.85,298.877 C166.777,298.179 167.082,297.01 167.004,296.11 C166.931,295.275 166.475,294.452 166.394,293.497 C166.317,292.621 166.611,291.782 166.699,290.73 C166.862,288.801 166.325,286.65 166.394,284.733 C166.414,284.167 166.707,283.751 166.699,283.197 C166.68,281.613 166.155,280.013 166.086,278.434 C165.966,275.511 166.406,273.446 165.935,270.748 C165.58,268.707 165.139,265.578 164.406,264.294 C163.587,262.865 160.371,260.436 158.75,259.527 C157.68,258.93 156.398,258.72 155.232,258.146 C152.742,256.915 147.916,254.322 146.823,251.842 C146.506,251.128 146.549,250.181 146.209,249.385 C145.545,247.809 144.144,246.443 143.151,244.925 C141.263,242.026 139.738,238.389 137.8,235.396 C136.819,233.875 135.97,232.152 134.897,230.94 C134.267,230.226 132.252,229.555 131.993,228.48 C131.649,227.059 130.603,225.106 130.769,224.02 C130.989,222.553 133.831,221.365 133.827,220.026 C133.823,218.888 132.31,218.225 131.993,217.259 C131.221,214.91 132.445,213.529 133.368,211.572 C133.673,210.928 133.97,209.895 134.287,209.422 C134.846,208.576 135.985,208.339 136.73,207.423 C137.147,206.911 137.41,205.843 137.954,205.117 C139.117,203.564 140.993,202.982 141.472,201.582 C141.862,200.44 142.089,194.731 141.622,192.821 C141.356,191.715 140.333,190.795 139.943,189.747 C139.252,187.892 139.09,185.866 137.19,185.904 C136.016,185.928 135.19,187.232 134.437,188.054 C134.256,189.149 134.352,190.333 133.213,190.667 C131.476,191.183 130.808,188.827 128.781,188.21 C127.974,187.961 126.688,187.977 126.182,187.748 C124.704,187.08 124.225,184.903 122.665,184.057 C121.36,183.354 120.244,183.599 119.453,182.519 C119.125,181.778 119.383,180.439 119.302,179.445 C117.626,178.46 116.206,174.784 114.256,173.914 C112.963,173.336 110.982,173.39 109.364,172.839 C108.603,172.579 108.016,172.245 107.221,172.071 C106.24,171.85 105.233,171.838 104.472,171.454 C101.445,169.944 99.812,165.049 96.063,165.154 C94.464,165.197 92.924,166.699 91.476,166.691 C90.036,166.683 87.623,165.534 85.816,164.692 C83.94,163.815 81.862,163.338 80.314,162.542 C79.063,161.898 78.194,160.722 77.102,160.232 C76.264,159.86 75.04,159.794 74.353,159.468 C73.376,159.002 72.357,158.009 71.141,157.158 C69.986,156.355 68.739,155.128 68.693,154.088 C68.642,152.885 69.793,151.86 69.916,150.704 C70.31,147.043 67.627,144.412 65.94,142.25 C64.689,140.643 63.221,139.28 61.967,137.794 C62.036,136.808 62.036,136.629 61.967,135.644 C61.017,134.716 60.218,133.342 59.214,131.952 C58.306,130.698 56.538,129.363 56.31,127.958 C56.029,126.231 56.963,124.713 56.31,123.037 C55.222,120.254 51.38,121.511 51.874,125.191 C52.013,126.204 53.434,127.566 53.862,128.572 C54.303,129.597 54.218,130.873 54.627,132.108 C55.021,133.291 56.206,134.312 56.615,135.644 C57.264,137.747 57.245,140.014 57.839,141.33 C58.365,142.498 60.299,143.604 59.214,145.017 C57.766,145.32 57.21,143.864 56.31,143.018 C55.808,142.548 53.99,141.656 53.712,140.561 C53.48,139.657 54.283,138.438 54.017,137.332 C53.492,135.162 49.137,135.108 49.121,132.876 C49.113,131.475 50.944,131.308 50.959,129.953 C50.971,128.47 48.948,127.217 48.511,125.959 C48.114,124.806 48.048,122.97 47.901,121.349 C47.759,119.827 47.944,118.064 47.592,116.888 C47.28,115.833 45.7,114.381 44.689,113.814 C43.349,113.065 42.288,113.376 41.631,112.277 C41.06,111.319 40.685,109.316 40.562,108.284 C40.342,106.436 40.511,104.413 40.407,102.442 C40.307,100.466 40.106,98.572 40.407,96.449 C41.164,94.962 42.542,94.229 43.314,92.757 C43.851,91.733 43.928,90.468 44.535,89.377 C45.654,87.37 48.094,85.515 49.735,83.535 C51.504,81.404 53.133,79.363 54.168,76.925 C54.538,76.06 55.534,74.142 55.392,73.082 C55.191,71.603 52.419,70.385 52.639,68.627 C52.778,67.536 54.322,67.551 54.782,66.476 C55.017,65.921 55.229,64.373 55.241,63.709 C55.264,62.226 54.484,60.681 54.782,59.098 C55.032,57.747 57.033,57.2 56.005,55.717 C54.986,54.25 53.156,56.509 52.029,55.562 C50.994,54.688 52.237,53.633 52.334,52.026 C52.372,51.386 51.963,50.656 52.029,50.182 C52.121,49.495 53.453,48.338 53.098,47.877 C52.272,46.824 51.345,44.154 49.581,43.265 C47.338,42.132 44.909,42.897 41.785,42.342 C39.871,42.004 38.963,40.203 37.199,40.346 C36.11,40.432 35.484,41.686 33.986,42.342 C32.504,42.994 30.566,42.772 29.094,43.11 C27.635,43.448 26.932,44.461 25.423,44.34 C24.164,44.244 24.156,43.102 22.674,42.959 C22.095,42.901 20.998,43.32 20.075,43.421 C17.712,43.669 13.446,43.79 11.052,43.265 C8.863,42.788 7.512,42.09 5.091,40.96 C3.272,40.114 -0.102,39.069 0.045,37.73 C0.137,36.868 3.241,35.957 4.477,35.58 C6.469,34.971 7.697,33.985 9.218,33.888 C9.805,33.853 10.577,34.253 11.357,34.198 C12.141,34.14 13.106,33.414 14.11,33.275 C16.245,32.975 19.257,33.383 19.002,31.275 C17.38,29.987 10.767,32.23 10.593,29.432 C10.489,27.74 13.102,27.227 15.029,26.819 C16.782,26.447 19.442,25.818 20.99,25.896 C22.735,25.985 25.033,27.949 26.036,25.745 C26.523,24.177 25.442,22.861 25.118,21.592 C26.415,19.791 28.805,20.016 30.623,19.748 C32.701,19.441 34.395,19.069 36.434,18.211 C38.222,17.458 40.121,16.953 42.241,16.674 C44.318,16.402 46.334,15.614 48.206,15.443 C49.747,15.304 51.16,15.428 52.639,15.137 C53.948,14.88 55.33,14.151 56.77,14.217 C57.731,14.259 58.554,14.966 59.519,15.137 C60.426,15.296 61.465,15.09 62.426,15.292 C63.164,15.447 63.828,15.948 64.565,16.06 C65.723,16.235 66.967,15.897 68.083,16.06 C69.11,16.208 69.982,16.852 70.986,16.98 C73.341,17.287 76.036,16.856 78.326,17.291 C79.194,17.454 79.978,17.885 80.924,18.059 C81.82,18.222 82.804,18.036 83.677,18.211 C84.893,18.455 85.909,19.612 87.194,19.748 C89.561,19.996 92.217,18.715 94.684,18.517 C96.472,18.378 98.314,18.591 100.19,18.211 C101.897,17.865 103.549,17.202 105.082,17.135 C105.916,17.101 106.615,17.392 107.376,17.291 C108.167,17.182 109.117,16.227 109.974,16.367 C111.113,16.55 110.912,17.998 112.117,18.366 C113.449,17.671 114.777,18.412 116.244,18.366 C117.673,18.316 118.951,17.656 120.526,17.904 C123.31,18.343 127.198,21.083 129.391,19.596 C129.943,19.22 129.812,18.571 130.31,17.598 C130.985,16.274 132.317,14.717 131.993,12.831 C128.928,12.882 126.001,14.388 122.511,14.523 C118.986,12.303 123.453,10.925 126.028,9.912 C128.152,9.074 129.831,7.215 132.452,6.838 C134.592,6.528 136.943,7.312 139.483,7.607 C140.966,7.777 142.448,7.502 143.306,7.758 C144.808,8.212 145.58,9.707 146.823,10.064 C147.36,10.219 148.24,10.203 148.962,10.374 C150.337,10.693 151.568,11.422 152.939,10.374 C154.016,10.568 154.143,11.721 155.232,11.911 C156.248,11.36 157.032,9.959 158.595,9.606 C159.275,9.45 159.989,9.722 160.734,9.606 C161.981,9.404 163.641,7.708 164.406,9.295 C164.093,10.405 162.425,10.572 161.499,11.449 C160.676,12.229 159.41,14.019 159.514,14.83 C159.695,16.297 161.881,15.73 161.958,17.598 C161.634,18.673 160.39,18.191 159.36,18.673 C158.418,19.111 158.066,20.019 157.066,20.21 C154.286,20.738 151.981,19.507 149.576,19.596 C149.464,20.644 150.765,21.254 151.41,21.592 C153.591,22.744 155.367,22.585 158.441,22.515 C160.016,22.48 161.827,22.989 163.182,22.053 C164.039,21.463 163.993,20.163 164.711,19.441 C165.576,18.576 167.568,17.695 168.838,17.904 C169.533,18.02 170.51,18.851 170.522,19.441 C170.545,20.838 168.556,20.392 168.533,21.902 C169.827,22.682 173.244,21.048 173.425,19.748 C173.556,18.801 172.313,18.253 172.356,17.291 C172.429,15.68 174.607,15.707 174.344,14.061 C173.294,13.231 172.197,14.24 171.132,14.061 C169.63,13.809 168.278,12 167.614,10.832 C168.278,10.005 169.668,10.557 170.672,10.681 C171.796,9.116 173.888,8.507 176.788,8.22 C177.819,8.119 179.193,7.708 179.695,8.682 C179.943,10.137 177.552,11.011 178.012,12.68 C180.07,13.196 180.746,10.405 182.448,9.295 C183.197,8.806 184.271,8.48 185.352,8.069 C186.294,7.708 187.332,6.815 188.104,6.838 C188.95,6.861 189.101,7.56 189.939,7.913 C190.691,8.232 191.676,7.696 191.927,8.682 C190.155,11.768 183.549,9.994 181.834,13.138 C182.217,15.245 180.799,17.256 181.989,18.673 C182.838,19.682 184.753,18.995 185.197,20.054 C185.796,21.471 183.344,21.471 183.977,23.129 C185.595,24.103 187.522,22.201 189.019,21.44 C190.626,20.621 192.657,19.655 192.842,17.749 C192.035,16.189 189.024,17.396 188.564,15.754 C188.313,14.861 189.487,12.862 189.784,12.524 C191.379,10.727 196.946,8.169 200.946,8.526 C201.707,8.596 202.475,9.062 203.239,9.144 C205.869,9.415 208.973,8.003 211.039,9.144 C212.699,8.169 214.691,9.275 217,8.988 C218.78,10.044 218.289,12.292 220.977,13.293 C221.706,13.565 222.618,13.37 223.575,13.599 C224.285,13.77 225.054,14.609 225.869,14.985 C227.027,15.513 227.915,15.393 228.162,16.212 C228.405,17.015 227.32,17.535 227.397,18.366 C228.058,18.913 227.506,19.736 227.857,20.516 C228.517,21.941 230.181,21.836 231.83,22.515 C232.988,22.992 235.459,24.456 235.347,25.589 C235.274,26.35 233.027,27.685 232.289,28.05 C231.768,28.306 229.189,29.56 228.317,29.432 C226.872,29.218 226.309,26.28 224.34,26.358 C223.483,26.393 222.676,26.913 222.656,28.05 C222.626,30.069 224.903,30.146 224.95,31.893 C225.012,33.981 223.815,34.125 222.046,35.425 C220.78,34.908 219.714,34.183 218.07,34.043 C217.093,35.211 219.675,35.63 218.834,37.117 C216.378,37.641 214.506,36.419 212.263,35.735 C211.56,35.522 210.548,35.607 209.969,35.273 C209.101,34.769 208.846,33.275 208.131,32.506 C207.305,31.613 205.656,30.348 204.309,30.355 C202.421,30.36 199.687,32.72 198.193,30.507 C199.228,26.986 204.131,29.599 207.367,28.357 C208.572,27.895 208.985,26.614 209.969,26.052 C211.946,24.918 215.158,24.759 214.861,22.515 C214.71,21.386 213.139,21.401 212.263,20.823 C211.066,20.039 210.15,17.271 208.44,17.135 C207.56,17.066 206.927,17.815 205.992,17.904 C204.015,18.091 201.815,17.104 200.031,17.904 C199.201,18.381 199.761,19.146 199.112,20.054 C198.579,20.8 197.321,21.009 196.819,21.747 C196.232,22.612 196.352,23.688 195.595,24.359 C194.34,25.477 191.684,25.655 190.093,26.203 C189.382,26.447 188.487,27.286 187.799,27.282 C186.537,27.274 185.996,25.574 184.587,26.203 C184.464,27.848 186.317,28.516 187.491,29.277 C188.761,30.1 190.097,30.919 190.549,32.351 C189.305,35.006 187.321,32.211 185.352,32.2 C183.182,32.184 180.016,36.353 178.166,32.968 C178.626,31.175 180.591,30.895 181.07,29.126 C178.912,29.494 177.031,31.322 174.495,31.893 C173.429,32.129 172.39,32.071 171.437,32.351 C169.607,32.89 168.329,34.249 166.394,34.967 C165.637,35.246 164.734,35.161 163.946,35.425 C162.101,36.046 159.889,37.156 157.985,38.192 C156.039,39.252 153.842,40.366 152.634,41.422 C151.981,41.988 150.282,44.007 150.34,44.647 C150.418,45.563 152.132,45.866 152.174,46.801 C152.136,47.368 151.182,48.591 151.869,49.413 C152.495,50.163 153.75,49.557 155.078,49.72 C157.414,50.011 158.943,51.952 160.734,52.949 C162.089,53.702 164.101,54.599 165.63,54.793 C167.73,55.057 170.081,54.176 170.367,55.868 C170.645,57.495 168.39,58.077 168.228,59.098 C169.36,60.6 167.46,61.318 167.464,62.634 C167.468,63.701 168.769,65.3 169.908,65.397 C171.448,65.529 173.703,63.872 174.344,62.323 C175.105,60.48 174.78,57.98 176.178,56.637 C183.301,56.835 189.329,53.384 188.869,46.033 C188.823,45.307 188.413,44.372 188.564,43.572 C188.788,42.384 190.819,41.387 190.549,39.884 C192.545,39.267 192.46,36.05 194.525,35.58 C196.255,35.188 198.212,36.81 200.487,36.655 C201.228,36.605 202.189,35.937 202.934,36.042 C204.429,36.252 205.328,38.103 206.452,38.961 C207.444,39.725 208.49,39.481 208.745,40.498 C208.448,42.221 207.243,42.264 207.367,43.878 C207.479,45.288 208.934,46.355 209.66,46.495 C210.776,46.704 212.371,46.103 213.483,45.571 C215.529,44.597 217.282,41.663 218.988,42.035 C220.336,42.33 221.39,46.634 221.587,48.183 C221.799,49.844 221.363,51.114 221.436,52.643 C221.633,55.236 224.88,54.972 226.479,56.33 C226.961,56.742 227.151,57.794 227.552,58.329 C228.328,59.369 229.266,59.369 229.386,60.48 C229.672,63.135 226.992,63.359 227.243,66.321 C226.691,67.47 225.297,67.4 225.409,68.933 C225.587,71.359 229.054,69.5 229.996,71.394 C230.506,72.411 229.911,73.168 229.537,74.62 C230.722,76.04 230.714,78.307 228.622,78.311 C227.351,78.311 227,76.937 225.714,76.618 C225,76.44 224.027,76.475 223.116,76.312 C222.336,76.172 221.409,75.939 220.672,75.85 C218.784,75.625 216.741,76.176 215.625,75.081 C217.444,72.652 219.861,70.257 222.201,68.165 C222.896,67.54 224.39,67.113 224.035,65.859 C222.733,64.71 221.135,65.929 219.907,66.628 C218.618,67.357 217.081,68.409 215.625,68.627 C213.096,69.003 209.741,67.882 207.676,69.24 C207.39,70.4 210.027,69.95 209.66,71.701 C208.649,71.868 207.691,71.949 206.911,71.239 C206.201,70.595 206.606,69.628 206.147,69.24 C205.363,68.588 202.417,68.409 201.101,68.627 C199.494,68.89 198.073,69.857 197.888,71.239 C199.819,72.147 203,70.303 203.699,72.625 C202.641,74.538 200.151,75.59 200.487,78.156 C200.618,79.145 201.788,80.469 202.629,80.616 C203.475,80.764 203.95,79.922 204.768,79.999 C205.633,80.081 205.436,81.075 206.452,80.923 C207.923,80.291 208.737,78.214 210.425,78.311 C212.448,80.779 208.598,81.983 206.452,82.767 C204.004,83.66 200.823,84.133 198.958,84.921 C197.981,85.332 194.282,88.927 193.761,86.147 C193.386,84.145 195.591,84.723 196.054,83.073 C193.687,82.612 191.483,84.098 189.329,84.921 C186.255,86.089 181.047,86.831 180.305,90.301 C180.159,90.995 180.607,92.295 180.155,92.757 C179.788,93.13 177.595,93.196 176.638,93.526 C175.163,94.034 173.877,95.122 172.966,95.37 C172.278,95.56 171.263,95.506 170.827,95.68 C169.61,96.154 169.163,97.807 167.769,98.906 C167.197,99.356 165.931,99.682 165.475,100.136 C164.684,100.928 164.58,102.911 163.182,103.21 C162.294,103.288 161.572,102.539 160.734,103.055 C160.634,105.015 161.421,107.682 160.583,109.665 C158.773,111.148 156.784,112.2 154.468,113.507 C153.186,114.233 152.039,114.42 150.491,115.2 C149.395,115.751 148.39,117.063 147.128,117.812 C144.209,119.54 140.684,121.585 140.707,125.959 C140.711,126.907 141.198,127.927 141.317,129.033 C141.391,129.685 141.24,130.322 141.317,131.032 C141.499,132.639 142.657,134.685 141.317,135.795 C139.259,134.945 136.642,134.658 135.202,133.183 C134.808,131.665 135.997,130.415 135.815,129.033 C135.669,127.923 134.117,125.948 133.213,125.804 C132.283,125.657 131.426,126.65 130.464,126.573 C129.321,126.483 128.259,124.9 126.793,124.729 C124.642,124.477 123.059,125.222 120.677,124.884 C118.372,126.122 117.696,128.327 114.87,128.11 C113.874,128.036 112.963,127.271 111.812,127.035 C110.565,126.775 108.673,126.332 107.376,126.421 C104.773,126.596 102.885,128.478 100.65,129.647 C98.677,130.679 95.885,131.964 95.299,134.106 C94.978,135.259 95.248,136.882 94.839,137.949 C94.569,138.652 93.978,139.277 93.615,139.944 C91.901,143.092 90.48,147.253 91.781,151.782 C91.974,152.454 93.677,156.242 94.38,157.007 C95.167,157.857 97.488,159.134 98.812,159.157 C99.932,159.181 101.244,158.587 102.329,158.389 C103.588,158.164 105.163,158.144 106.306,157.776 C109.611,156.712 108.958,152.217 112.267,150.704 C113.712,150.048 115.383,149.915 117.924,149.784 C118.731,150.467 119.109,151.662 118.997,152.702 C118.912,153.486 118.171,154.197 117.773,155.315 C117.426,156.296 117.352,157.445 117.009,158.237 C116.553,159.274 115.538,160.031 115.175,161.005 C114.935,161.638 115.067,162.425 114.87,163 C114.518,164.013 113.171,164.727 113.796,165.767 C117.07,167.075 121.032,165.395 123.889,165.923 C125.094,166.144 127.58,167.592 127.557,169.458 C127.542,170.856 126.483,171.772 126.333,173.301 C126.148,175.227 125.348,177.583 125.263,179.139 C125.128,181.689 128.985,186.091 131.684,186.056 C134.592,186.017 136.286,183.148 139.788,184.674 C140.95,185.179 142.178,187.073 143.46,186.979 C144.518,186.902 146.116,185.038 146.823,183.75 C147.684,182.178 147.746,180.855 149.267,180.062 C150.908,179.209 152.213,179.62 154.313,178.832 C155.252,178.483 156.066,177.881 156.912,177.295 C157.653,176.783 158.433,175.44 159.36,176.371 C160.58,177.598 157.865,178.289 158.9,179.601 C161.02,180.73 162.105,177.501 163.641,177.451 C164.132,177.435 165.827,178.409 166.699,178.988 C167.892,179.776 168.298,180.882 169.603,181.138 C170.441,181.305 171.788,180.816 172.966,180.983 C174.525,181.208 175.456,182.554 176.638,182.519 C178.078,182.481 178.769,180.905 180,180.676 C182.699,180.179 183.703,180.979 184.892,182.675 C186.224,182.908 186.271,181.126 187.491,181.755 C186.823,183.094 187.718,183.711 188.255,184.829 C188.603,185.547 188.545,186.056 188.869,186.366 C189.599,187.065 191.008,187.065 192.077,187.748 C193.205,188.462 193.842,189.789 195.135,191.284 C196.467,192.813 198.707,194.397 200.487,194.51 C202.166,194.618 203.533,194.032 204.923,194.202 C208.085,194.595 210.05,196.182 212.263,197.894 C213.498,198.849 214.614,199.512 215.012,200.657 C215.29,201.457 215.154,202.529 215.471,203.425 C216.147,205.339 218.923,206.262 217.919,209.573 C218.378,210.544 219.409,210.893 220.517,211.572 C221.405,212.116 222.154,213.26 223.116,213.416 C223.737,213.516 224.413,213.226 224.95,213.26 C226.687,213.381 227.88,214.06 229.386,214.646 C230.32,215.007 231.517,215.147 232.139,215.57 C232.915,216.098 233.015,217.868 233.973,218.334 C234.598,218.64 235.988,218.217 237.031,218.334 C238.672,218.524 240.899,219.537 242.382,219.564 C243.282,219.583 244.027,219.195 244.826,219.257 C248.571,219.545 250.695,224.051 254.308,225.405 C255.428,225.825 257.204,225.53 257.976,225.867 C259.332,226.457 260.475,230.626 260.575,232.474 L260.575,232.474 L260.575,232.474 Z M216.849,26.203 C217.602,26.296 218.027,26.055 217.919,25.283 C217.239,24.801 216.247,25.434 216.849,26.203 L216.849,26.203 L216.849,26.203 Z M199.267,11.143 C199.07,10.929 198.545,10.929 198.348,11.143 L198.348,11.756 C198.996,11.896 199.116,11.503 199.267,11.143 L199.267,11.143 L199.267,11.143 Z M167.159,86.61 C166.522,85.984 164.444,86.163 163.028,86.303 C162.028,86.403 160.838,86.617 160.734,87.378 C162.325,88.111 166.661,88.639 167.159,86.61 L167.159,86.61 L167.159,86.61 Z M159.205,83.997 C160.406,83.046 159.873,81.106 158.595,80.768 C158.093,80.636 157.425,81.14 156.607,81.078 C155.742,81.013 154.877,80.217 154.163,80.155 C152.943,80.05 151.703,80.655 151.255,81.229 C151.209,82.149 151.927,82.297 151.869,83.229 C150.383,84.296 151.17,87.867 152.634,87.995 C154.186,88.131 154.989,84.047 157.066,83.69 C157.819,83.559 158.205,84.121 159.205,83.997 L159.205,83.997 L159.205,83.997 Z M158.9,184.829 C160.109,184.631 159.757,181.84 158.29,182.519 C157.182,183.036 157.757,185.012 158.9,184.829 L158.9,184.829 L158.9,184.829 Z M157.066,90.145 C154.892,89.369 152.885,90.673 151.105,90.914 C150.043,91.057 148.109,90.696 148.352,92.295 C148.549,93.6 150.553,93.126 151.715,92.757 C154.132,91.989 155.657,91.329 157.066,90.145 L157.066,90.145 L157.066,90.145 Z M150.34,78.462 C153.387,77.158 149.738,73.141 148.352,72.776 C145.873,72.124 142.348,74.604 139.483,75.388 C137.87,75.831 136.333,75.87 135.966,77.236 C137.414,79.642 140.275,76.708 142.387,77.08 C143.456,77.271 144.082,78.742 145.14,78.924 C145.862,79.048 150.051,78.586 150.34,78.462 L150.34,78.462 L150.34,78.462 Z M148.197,80.923 C147.564,80.174 144.136,81.013 143.151,81.692 C142.476,82.161 142.016,83.306 141.317,84.152 C140.595,85.026 139.788,85.701 139.178,86.458 C138.626,87.141 135.53,91.632 137.954,92.144 C138.989,92.362 141.116,90.203 141.317,89.377 C142.009,86.559 143.271,84.548 145.445,83.229 C146.703,82.464 147.993,82.561 148.197,80.923 L148.197,80.923 L148.197,80.923 Z M141.167,22.977 C141.676,22.647 142.456,22.201 142.082,21.44 C140.395,20.644 137.541,21.25 135.051,20.978 C133.638,18.971 131.275,18.661 131.074,21.902 C133.92,24.223 138.228,20.819 141.167,22.977 L141.167,22.977 L141.167,22.977 Z M129.086,63.709 C130.792,63.647 131.947,58.578 129.086,59.249 C127.171,59.699 126.707,63.794 129.086,63.709 L129.086,63.709 L129.086,63.709 Z M120.831,178.988 C120.908,178.759 121.055,178.599 121.136,178.37 C120.673,176.841 119.206,178.929 120.831,178.988 L120.831,178.988 L120.831,178.988 Z M113.796,38.81 C114.665,38.507 115.87,38.662 116.09,37.73 C115.376,37.156 114.642,36.38 113.796,36.349 C112.688,36.31 112.155,37.296 111.044,37.886 C109.75,38.573 107.959,38.74 107.835,39.884 C110.202,40.35 112.333,39.314 113.796,38.81 L113.796,38.81 L113.796,38.81 Z M113.032,27.74 C114.009,27.573 115.012,28.015 115.634,27.127 C114.904,23.742 110.248,25.811 107.53,26.052 C106.959,27.014 106.194,27.782 106.001,29.126 C108.109,29.661 110.654,28.147 113.032,27.74 L113.032,27.74 L113.032,27.74 Z M60.438,72.625 C61.16,71.879 60.133,70.303 59.059,70.932 C58.955,71.495 59.256,72.853 60.438,72.625 L60.438,72.625 L60.438,72.625 Z M56.156,50.338 C56.191,50.046 55.982,49.996 56.005,49.72 C55.538,49.716 54.998,49.631 55.087,50.182 C55.307,50.625 55.897,50.702 56.156,50.338 L56.156,50.338 Z M210.274,22.053 C210.595,23.419 206.251,25.205 205.838,23.439 C205.51,22.026 209.166,20.26 210.274,22.053 L210.274,22.053 Z M205.228,368.502 L202.934,368.502 C203.348,368.25 204.815,368.25 205.228,368.502 L205.228,368.502 Z M198.348,11.143 C198.545,10.929 199.07,10.929 199.267,11.143 C199.116,11.503 198.996,11.896 198.348,11.756 L198.348,11.143 L198.348,11.143 Z M184.742,35.58 C184.772,36.426 181.703,37.828 181.375,36.193 C181.321,35.906 181.39,35.332 181.989,34.967 C182.803,34.462 184.711,34.749 184.742,35.58 L184.742,35.58 Z M121.136,178.37 C121.055,178.599 120.908,178.759 120.831,178.988 C119.206,178.929 120.673,176.841 121.136,178.37 L121.136,178.37 Z M59.059,70.932 C60.133,70.303 61.16,71.879 60.438,72.625 C59.256,72.853 58.955,71.495 59.059,70.932 L59.059,70.932 Z M51.419,58.791 C51.094,59.796 50.21,60.239 49.276,60.635 C48.982,60.414 48.728,60.157 48.511,59.866 C48.577,58.407 50.643,57.332 51.419,58.791" id="Map" fill="#0F1318" sketch:type="MSShapeGroup"></path>
    </g>
</svg>