<?xml version="1.0" encoding="utf-8"?>
<!-- Generator: Adobe Illustrator 16.0.0, SVG Export Plug-In . SVG Version: 6.00 Build 0)  -->
<!DOCTYPE svg PUBLIC "-//W3C//DTD SVG 1.1//EN" "http://www.w3.org/Graphics/SVG/1.1/DTD/svg11.dtd">
<svg version="1.1" id="Слой_1" xmlns="http://www.w3.org/2000/svg" xmlns:xlink="http://www.w3.org/1999/xlink" x="0px" y="0px"
	 width="68px" height="72px" viewBox="0 0 68 72" enable-background="new 0 0 68 72" xml:space="preserve">
<style>
	.safe {
		fill: #954326;
	}
</style>
<g id="safe">
	<g>
		<path class="safe" fill="#0D0F0F" d="M33.917,3.194c5.288,0,22.502,6.601,30.059,9.695c0.758,4.909,3.075,24.057-4.56,36.104
			c-7.702,12.152-21.87,18.824-25.458,20.366c-3.638-1.703-18.183-9.054-25.663-20.86c-7.336-11.58-4.926-30.494-4.081-35.697
			C11.661,9.733,28.63,3.194,33.917,3.194 M33.917,0.944c-7.25,0-31.707,10.254-31.707,10.254c0,0.044-4.836,24.266,4.185,38.505
			c9.021,14.24,27.521,22.107,27.521,22.107s18.05-6.861,27.4-21.613c9.35-14.753,4.672-38.912,4.672-38.912
			S41.166,0.944,33.917,0.944L33.917,0.944z"/>
	</g>
	<g>
		<path class="safe" fill="#0D0F0F" d="M33.917,20.584l3.14,6.364l0.523,1.061l1.171,0.17l7.025,1.021l-5.083,4.954l-0.848,0.826l0.2,1.166
			l1.2,6.995l-6.283-3.302l-1.047-0.551l-1.047,0.551l-6.283,3.302l1.2-6.995l0.2-1.166l-0.847-0.826L22.057,29.2l7.024-1.021
			l1.17-0.17l0.523-1.061L33.917,20.584 M33.917,15.5l-5.159,10.453l-11.536,1.676l8.347,8.137l-1.971,11.488l10.318-5.424
			l10.318,5.424l-1.971-11.488l8.348-8.137l-11.537-1.676L33.917,15.5L33.917,15.5z"/>
	</g>
</g>
</svg>
