<?xml version="1.0" encoding="utf-8"?>
<!DOCTYPE svg PUBLIC "-//W3C//DTD SVG 1.1//EN" "http://www.w3.org/Graphics/SVG/1.1/DTD/svg11.dtd">
<svg version="1.1" baseProfile="full"
 xmlns="http://www.w3.org/2000/svg"
 xmlns:xlink="http://www.w3.org/1999/xlink"
 xmlns:ev="http://www.w3.org/2001/xml-events"
  height="33px"
  width="31px"
>
<defs>
<linearGradient id="PSgrad_0" x1="0%" x2="0%" y1="100%" y2="0%">
  <stop offset="0%" stop-color="rgb(184,25,16)" stop-opacity="1" />
  <stop offset="100%" stop-color="rgb(232,49,31)" stop-opacity="1" />
</linearGradient>

</defs><path fill="rgb( 228, 44, 39 )"
 d="M5.13800000000001,0.99099999999999 C5.13800000000001,0.99099999999999 25.89,0.99099999999999 25.89,0.99099999999999 C28.712,0.99099999999999 31,3.279 31,6.101 C31,6.101 31,26.899 31,26.899 C31,29.721 28.712,32.009 25.89,32.009 C25.89,32.009 5.13800000000001,32.009 5.13800000000001,32.009 C2.315,32.009 0.02799999999999,29.721 0.02799999999999,26.899 C0.02799999999999,26.899 0.02799999999999,6.101 0.02799999999999,6.101 C0.02799999999999,3.279 2.315,0.99099999999999 5.13800000000001,0.99099999999999 Z "/>
<path fill="rgb( 255, 255, 255 )"
 d="M12.008,21.355 C12.008,21.355 21.404,16.486 21.404,16.486 C21.404,16.486 12.006,11.5839999999999 12.006,11.5839999999999 C12.006,11.5839999999999 12.008,21.355 12.008,21.355 Z "/>
<path fill="rgb( 255, 255, 255 )"
 d="M12.008,21.355 C12.008,21.355 21.404,16.486 21.404,16.486 C21.404,16.486 12.006,11.5839999999999 12.006,11.5839999999999 C12.006,11.5839999999999 12.008,21.355 12.008,21.355 Z "/>
</svg>
