<?xml version="1.0" encoding="utf-8"?>
<!DOCTYPE svg PUBLIC "-//W3C//DTD SVG 1.1//EN" "http://www.w3.org/Graphics/SVG/1.1/DTD/svg11.dtd">
<svg version="1.1" baseProfile="full"
 xmlns="http://www.w3.org/2000/svg"
 xmlns:xlink="http://www.w3.org/1999/xlink"
 xmlns:ev="http://www.w3.org/2001/xml-events" 
  height="33px" 
  width="31px" 
>
<path fill="rgb( 0, 172, 237 )"
 d="M5.13800000000001,0.99099999999999 C5.13800000000001,0.99099999999999 25.89,0.99099999999999 25.89,0.99099999999999 C28.712,0.99099999999999 31,3.279 31,6.101 C31,6.101 31,26.899 31,26.899 C31,29.721 28.712,32.009 25.89,32.009 C25.89,32.009 5.13800000000001,32.009 5.13800000000001,32.009 C2.315,32.009 0.02800000000001,29.721 0.02800000000001,26.899 C0.02800000000001,26.899 0.02800000000001,6.101 0.02800000000001,6.101 C0.02800000000001,3.279 2.315,0.99099999999999 5.13800000000001,0.99099999999999 Z "/>
<path fill="rgb( 255, 255, 255 )"
 d="M6.979,19.2619999999999 C6.979,19.2619999999999 10.555,22.371 13.398,19.289 C13.398,19.289 12.923,19.289 12.618,19.054 C12.339,18.84 12.229,18.391 12.229,18.391 C12.229,18.391 13.114,17.896 12.782,17.522 C12.782,17.522 10.825,17.4829999999999 10.716,16.302 C10.716,16.302 11.865,15.5599999999999 11.865,15.5599999999999 C11.865,15.5599999999999 11.414,15.779 10.967,15.557 C10.967,15.557 9.807,14.725 10.028,13.873 C10.028,13.873 10.997,13.774 10.997,13.774 C10.997,13.774 9.316,12.58 9.786,11.662 C9.786,11.662 9.94799999999999,10.872 15.508,14.564 C15.508,14.564 16.489,11.075 18.3,10.308 C18.3,10.308 18.601,10.452 18.601,10.606 C18.601,10.606 18.858,10.054 19.196,10.003 C19.196,10.003 19.606,10.3630000000001 19.339,10.568 C19.339,10.568 20.028,10.097 20.364,10.336 C20.364,10.336 20.337,10.755 19.347,11.277 C19.347,11.277 21.917,11.419 22.814,14.847 C22.814,14.847 23.929,15.247 24.975,14.574 C24.975,14.574 25.062,15.081 23.437,15.797 C23.437,15.797 23.589,16.0410000000001 24.95,15.856 C24.95,15.856 24.94,16.869 22.785,16.861 C22.785,16.861 20.966,22.1319999999999 16.543,22.8579999999999 C11.169,23.739 7.39400000000001,21.053 6.979,19.2619999999999 Z "/>
</svg>
