<?xml version="1.0" encoding="utf-8"?>
<!-- Generator: Adobe Illustrator 16.0.0, SVG Export Plug-In . SVG Version: 6.00 Build 0)  -->
<!DOCTYPE svg PUBLIC "-//W3C//DTD SVG 1.1//EN" "http://www.w3.org/Graphics/SVG/1.1/DTD/svg11.dtd">
<svg version="1.1" id="Слой_1" xmlns="http://www.w3.org/2000/svg" xmlns:xlink="http://www.w3.org/1999/xlink" x="0px" y="0px"
	 width="72px" height="46px" viewBox="0 0 72 46" enable-background="new 0 0 72 46" xml:space="preserve">
	 <style>
	 	.eye {
	 		fill: #954326
	 	}

	 	.stroke {
	 		stroke: #954326
	 	}
	 </style>
<g id="visual">
	<g>
		<path class="eye" fill="#0D0F0F" d="M36.271,3.637c9.348,0,17.647,3.433,24.668,10.204c3.959,3.819,6.387,7.692,7.383,9.446
			c-2.318,4.084-12.441,19.651-32.051,19.651c-19.506,0-30.08-15.5-32.56-19.651C6.195,19.132,16.772,3.637,36.271,3.637
			 M36.271,1.387c-24.129,0-35.143,21.9-35.143,21.9s11.008,21.901,35.143,21.901s34.602-21.901,34.602-21.901
			S60.4,1.387,36.271,1.387L36.271,1.387z"/>
	</g>
	<g>
		<path class="eye" fill="#0D0F0F" d="M36.148,10.333c7.305,0,13.25,5.944,13.25,13.25c0,7.306-5.945,13.25-13.25,13.25
			c-7.306,0-13.25-5.944-13.25-13.25C22.898,16.277,28.842,10.333,36.148,10.333 M36.148,8.083c-8.56,0-15.5,6.939-15.5,15.5
			s6.939,15.5,15.5,15.5c8.561,0,15.5-6.939,15.5-15.5S44.709,8.083,36.148,8.083L36.148,8.083z"/>
	</g>
	<path class="stroke" fill="none" stroke="#0D0F0F" stroke-width="2.25" stroke-miterlimit="10" d="M26.932,24.828
		c-0.055-0.408-0.083-0.822-0.083-1.245c0-5.137,4.164-9.3,9.299-9.3c0.508,0,1.006,0.041,1.493,0.119"/>
</g>
</svg>
