<?xml version="1.0" encoding="utf-8"?>
<!-- Generator: Adobe Illustrator 16.0.0, SVG Export Plug-In . SVG Version: 6.00 Build 0)  -->
<!DOCTYPE svg PUBLIC "-//W3C//DTD SVG 1.1//EN" "http://www.w3.org/Graphics/SVG/1.1/DTD/svg11.dtd">
<svg version="1.1" id="Слой_1" xmlns="http://www.w3.org/2000/svg" xmlns:xlink="http://www.w3.org/1999/xlink" x="0px" y="0px"
	 width="67px" height="72px" viewBox="0 0 67 72" enable-background="new 0 0 67 72" xml:space="preserve">
<g>
	<path fill="#0D0F0F" d="M33.353,2.319c5.364,0,22.832,6.712,30.481,9.852c0.762,4.96,3.116,24.466-4.621,36.701
		c-7.816,12.358-22.199,19.137-25.818,20.693c-3.671-1.721-18.436-9.189-26.025-21.195c-7.45-11.782-4.992-31.028-4.137-36.287
		C10.771,8.969,27.99,2.319,33.353,2.319 M33.353,0.069c-7.346,0-32.125,10.411-32.125,10.411c0,0.044-4.9,24.637,4.24,39.092
		c9.141,14.459,27.885,22.445,27.885,22.445s18.289-6.966,27.762-21.942c9.473-14.979,4.733-39.505,4.733-39.505
		S40.697,0.069,33.353,0.069L33.353,0.069z"/>
</g>
</svg>
